<svg width="237" height="60" viewBox="0 0 237 60" fill="none" xmlns="http://www.w3.org/2000/svg">
<path d="M76.578 18.883H80.998L85.197 36.121L90.11 18.883H95.38L100.276 36.121L104.577 18.883H108.98L102.843 41H97.437L92.66 23.796L88.053 41H82.46L76.578 18.883ZM108.468 32.585C108.468 30.7603 108.825 29.168 109.539 27.808C110.253 26.4367 111.25 25.377 112.531 24.629C113.812 23.8697 115.308 23.49 117.019 23.49C118.651 23.49 120.096 23.8697 121.354 24.629C122.612 25.377 123.598 26.431 124.312 27.791C125.026 29.1397 125.383 30.7263 125.383 32.551V33.622H112.684C113.024 36.614 114.531 38.11 117.206 38.11C118.237 38.11 119.07 37.8833 119.705 37.43C120.34 36.9767 120.748 36.3533 120.929 35.56H125.162C124.833 37.4187 123.995 38.8637 122.646 39.895C121.297 40.9263 119.495 41.442 117.24 41.442C114.531 41.442 112.389 40.6543 110.814 39.079C109.25 37.4923 108.468 35.3277 108.468 32.585ZM116.883 26.839C114.514 26.839 113.132 28.1423 112.735 30.749H120.912C120.81 29.5477 120.391 28.5957 119.654 27.893C118.929 27.1903 118.005 26.839 116.883 26.839ZM128.217 17.2H132.399V26.788C132.989 25.7453 133.748 24.935 134.677 24.357C135.607 23.779 136.666 23.49 137.856 23.49C139.284 23.49 140.531 23.864 141.596 24.612C142.673 25.3487 143.506 26.3913 144.095 27.74C144.696 29.0773 144.996 30.6413 144.996 32.432C144.996 34.234 144.696 35.8093 144.095 37.158C143.506 38.5067 142.673 39.5607 141.596 40.32C140.531 41.068 139.284 41.442 137.856 41.442C136.666 41.442 135.607 41.153 134.677 40.575C133.748 39.9857 132.989 39.164 132.399 38.11V41H128.217V17.2ZM140.746 32.432C140.746 30.7433 140.378 29.4343 139.641 28.505C138.916 27.5757 137.896 27.111 136.581 27.111C135.255 27.111 134.224 27.5757 133.487 28.505C132.762 29.4343 132.399 30.7433 132.399 32.432C132.399 34.1433 132.762 35.4693 133.487 36.41C134.224 37.3507 135.255 37.821 136.581 37.821C137.896 37.821 138.916 37.3507 139.641 36.41C140.378 35.4693 140.746 34.1433 140.746 32.432ZM147.94 17.2H152.122V41H147.94V17.2ZM170.321 30.12V41H166.139V38.671C165.595 39.5777 164.852 40.2633 163.912 40.728C162.982 41.1813 161.906 41.408 160.682 41.408C159.571 41.408 158.585 41.187 157.724 40.745C156.862 40.2917 156.182 39.6797 155.684 38.909C155.196 38.127 154.953 37.2317 154.953 36.223C154.953 34.6703 155.463 33.4577 156.483 32.585C157.514 31.7123 158.999 31.208 160.937 31.072L165.238 30.749C165.838 30.715 166.139 30.4487 166.139 29.95V29.627C166.139 28.743 165.844 28.0233 165.255 27.468C164.665 26.9127 163.861 26.635 162.841 26.635C160.891 26.635 159.809 27.5813 159.594 29.474H155.31C155.389 28.2953 155.752 27.264 156.398 26.38C157.055 25.4847 157.933 24.7877 159.033 24.289C160.132 23.7903 161.39 23.541 162.807 23.541C164.303 23.541 165.612 23.8187 166.734 24.374C167.867 24.918 168.745 25.6887 169.369 26.686C170.003 27.672 170.321 28.8167 170.321 30.12ZM159.169 35.934C159.169 36.6253 159.435 37.175 159.968 37.583C160.5 37.991 161.214 38.195 162.11 38.195C163.3 38.195 164.269 37.8267 165.017 37.09C165.765 36.3533 166.139 35.3957 166.139 34.217V33.588L161.6 33.877C159.979 33.979 159.169 34.6647 159.169 35.934ZM185.233 31.174C185.233 29.8253 184.899 28.845 184.23 28.233C183.573 27.6097 182.683 27.298 181.561 27.298C180.507 27.298 179.623 27.638 178.909 28.318C178.207 28.998 177.855 29.8707 177.855 30.936V41H173.673V24H177.855V26.567C178.49 25.581 179.283 24.8217 180.235 24.289C181.199 23.7563 182.168 23.49 183.142 23.49C184.967 23.49 186.463 24.0793 187.63 25.258C188.809 26.4253 189.398 28.1027 189.398 30.29V41H185.233V31.174ZM192.206 32.432C192.206 30.6413 192.558 29.0773 193.26 27.74C193.963 26.3913 194.943 25.3487 196.201 24.612C197.471 23.864 198.95 23.49 200.638 23.49C202.157 23.49 203.523 23.779 204.735 24.357C205.948 24.935 206.917 25.7623 207.642 26.839C208.368 27.9043 208.753 29.185 208.798 30.681H204.565C204.52 29.5023 204.14 28.6127 203.426 28.012C202.724 27.4113 201.794 27.111 200.638 27.111C199.312 27.111 198.281 27.5757 197.544 28.505C196.819 29.423 196.456 30.732 196.456 32.432C196.456 34.1433 196.819 35.4693 197.544 36.41C198.281 37.3507 199.312 37.821 200.638 37.821C201.772 37.821 202.69 37.549 203.392 37.005C204.106 36.461 204.497 35.645 204.565 34.557H208.798C208.719 36.0077 208.317 37.2487 207.591 38.28C206.866 39.3 205.903 40.082 204.701 40.626C203.5 41.17 202.146 41.442 200.638 41.442C198.961 41.442 197.488 41.068 196.218 40.32C194.96 39.5607 193.974 38.5067 193.26 37.158C192.558 35.8093 192.206 34.234 192.206 32.432ZM211.165 32.585C211.165 30.7603 211.522 29.168 212.236 27.808C212.95 26.4367 213.948 25.377 215.228 24.629C216.509 23.8697 218.005 23.49 219.716 23.49C221.348 23.49 222.793 23.8697 224.051 24.629C225.309 25.377 226.295 26.431 227.009 27.791C227.723 29.1397 228.08 30.7263 228.08 32.551V33.622H215.381C215.721 36.614 217.229 38.11 219.903 38.11C220.935 38.11 221.768 37.8833 222.402 37.43C223.037 36.9767 223.445 36.3533 223.626 35.56H227.859C227.531 37.4187 226.692 38.8637 225.343 39.895C223.995 40.9263 222.193 41.442 219.937 41.442C217.229 41.442 215.087 40.6543 213.511 39.079C211.947 37.4923 211.165 35.3277 211.165 32.585ZM219.58 26.839C217.212 26.839 215.829 28.1423 215.432 30.749H223.609C223.507 29.5477 223.088 28.5957 222.351 27.893C221.626 27.1903 220.702 26.839 219.58 26.839Z" fill="white"/>
<path d="M230.694 36.376H235.335V41H230.694V36.376Z" fill="#FB3602"/>
<circle cx="30" cy="30" r="30" fill="#FB3602"/>
<path d="M21.4351 16.4889C20.3144 21.3781 16.4261 25.2375 11.5002 26.3499C10.63 26.5464 10 27.294 10 28.1798V31.8194C10 32.9826 11.0602 33.8669 12.2137 33.6616C15.1774 33.1341 17.9236 31.973 20.3016 30.3262C22.3045 28.9411 24.0459 27.2127 25.4413 25.2248C27.3718 22.4786 28.6398 19.2375 29.0106 15.7374C29.0522 15.3443 28.7455 15 28.3473 15H23.2788C22.3864 14.9999 21.6331 15.6252 21.4351 16.4889Z" fill="white"/>
<path d="M30.9891 44.265C30.9476 44.6569 31.2534 45.0002 31.6504 45.0002H36.7202C37.613 45.0002 38.3665 44.3743 38.564 43.5102C39.6824 38.6189 43.5708 34.762 48.4994 33.6502C49.3697 33.4539 49.9998 32.706 49.9998 31.8202V28.1805C49.9998 27.0175 48.94 26.1333 47.7866 26.3382C44.8227 26.8649 42.0764 28.0242 39.6983 29.6742C37.6954 31.0554 35.954 32.7876 34.5586 34.7719C32.6277 37.522 31.3597 40.764 30.9891 44.265Z" fill="white"/>
<path d="M36.7214 15H31.6529C31.2547 15 30.948 15.3443 30.9896 15.7374C31.3604 19.2375 32.6284 22.4786 34.559 25.2248C35.9543 27.2127 37.6958 28.9412 39.6987 30.3262C42.0766 31.973 44.8228 33.1341 47.7865 33.6616C48.9401 33.867 50.0002 32.9827 50.0002 31.8194V28.1798C50.0002 27.2941 49.3702 26.5465 48.5 26.3499C43.5741 25.2375 39.6859 21.3781 38.5651 16.4889C38.367 15.6253 37.6138 15 36.7214 15Z" fill="white"/>
<path d="M25.4413 34.7719C24.0459 32.7876 22.3045 31.0554 20.3016 29.6742C17.9235 28.0242 15.1771 26.8649 12.2133 26.3382C11.0599 26.1333 10 27.0175 10 28.1805V31.8202C10 32.7061 10.6302 33.4539 11.5005 33.6502C16.4291 34.762 20.3175 38.6189 21.4358 43.5102C21.6334 44.3743 22.3868 45.0002 23.2797 45.0002H28.3494C28.7465 45.0002 29.0522 44.6568 29.0107 44.265C28.6403 40.764 27.3722 37.522 25.4413 34.7719Z" fill="white"/>
</svg>
