<svg width="20" height="20" viewBox="0 0 20 20" fill="none" xmlns="http://www.w3.org/2000/svg">
<g clip-path="url(#clip0_389_27560)">
<mask id="mask0_389_27560" style="mask-type:luminance" maskUnits="userSpaceOnUse" x="0" y="0" width="20" height="20">
<path d="M0 0H20V20H0V0Z" fill="white"/>
</mask>
<g mask="url(#mask0_389_27560)">
<path d="M16.1876 3.81313C15.3751 3.00052 14.4104 2.35592 13.3488 1.91614C12.2871 1.47636 11.1492 1.25 10.0001 1.25C8.85096 1.25 7.71308 1.47636 6.65142 1.91614C5.58976 2.35592 4.62513 3.00052 3.8126 3.81313C3.6962 3.93023 3.63086 4.08864 3.63086 4.25376C3.63086 4.41887 3.6962 4.57728 3.8126 4.69438C3.92971 4.81079 4.08811 4.87613 4.25323 4.87613C4.41835 4.87613 4.57675 4.81079 4.69385 4.69438C5.74378 3.64809 7.0802 2.93637 8.53434 2.64909C9.98849 2.36181 11.4952 2.51186 12.8641 3.08028C14.233 3.6487 15.4028 4.61001 16.2258 5.84281C17.0487 7.07562 17.4879 8.52463 17.4879 10.0069C17.4879 11.4891 17.0487 12.9381 16.2258 14.171C15.4028 15.4038 14.233 16.3651 12.8641 16.9335C11.4952 17.5019 9.98849 17.6519 8.53434 17.3647C7.0802 17.0774 5.74378 16.3657 4.69385 15.3194C4.57675 15.203 4.41835 15.1376 4.25323 15.1376C4.08811 15.1376 3.92971 15.203 3.8126 15.3194C3.6962 15.4365 3.63086 15.5949 3.63086 15.76C3.63086 15.9251 3.6962 16.0835 3.8126 16.2006C5.45529 17.8417 7.68259 18.7629 10.0045 18.7617C11.1542 18.7612 12.2926 18.5341 13.3545 18.0936C14.4165 17.6531 15.3813 17.0078 16.1939 16.1944C17.0064 15.381 17.6508 14.4156 18.0902 13.3531C18.5297 12.2907 18.7556 11.1522 18.755 10.0025C18.7544 8.85276 18.5274 7.71442 18.0869 6.65246C17.6463 5.59049 17.001 4.62569 16.1876 3.81313Z" fill="white"/>
<path d="M9.86875 12.6838C9.81017 12.7419 9.76367 12.811 9.73194 12.8872C9.70021 12.9634 9.68388 13.045 9.68388 13.1276C9.68388 13.2101 9.70021 13.2918 9.73194 13.3679C9.76367 13.4441 9.81017 13.5132 9.86875 13.5713C9.92685 13.6299 9.99598 13.6764 10.0721 13.7081C10.1483 13.7398 10.23 13.7562 10.3125 13.7562C10.395 13.7562 10.4767 13.7398 10.5529 13.7081C10.629 13.6764 10.6981 13.6299 10.7562 13.5713L13.8812 10.4463C13.9398 10.3882 13.9863 10.3191 14.0181 10.2429C14.0498 10.1668 14.0661 10.0851 14.0661 10.0026C14.0661 9.92005 14.0498 9.83836 14.0181 9.7622C13.9863 9.68603 13.9398 9.61691 13.8812 9.55881L10.7562 6.43381C10.6386 6.31612 10.4789 6.25 10.3125 6.25C10.1461 6.25 9.98644 6.31612 9.86875 6.43381C9.75106 6.5515 9.68494 6.71112 9.68494 6.87756C9.68494 7.044 9.75106 7.20362 9.86875 7.32131L11.9312 9.37756H3.125C2.95924 9.37756 2.80027 9.44341 2.68306 9.56062C2.56585 9.67783 2.5 9.8368 2.5 10.0026C2.5 10.1683 2.56585 10.3273 2.68306 10.4445C2.80027 10.5617 2.95924 10.6276 3.125 10.6276H11.9312L9.86875 12.6838Z" fill="white"/>
</g>
</g>
<defs>
<clipPath id="clip0_389_27560">
<rect width="20" height="20" fill="white"/>
</clipPath>
</defs>
</svg>
