<svg width="20" height="20" viewBox="0 0 20 20" fill="none" xmlns="http://www.w3.org/2000/svg">
<path d="M16.8414 2.92733C15.8417 1.99926 14.6548 1.26307 13.3486 0.760792C12.0423 0.258518 10.6422 0 9.22832 0C7.81442 0 6.41436 0.258518 5.1081 0.760792C3.80184 1.26307 2.61495 1.99926 1.61522 2.92733C1.47199 3.06107 1.3916 3.24198 1.3916 3.43056C1.3916 3.61914 1.47199 3.80005 1.61522 3.93379C1.7593 4.06674 1.95421 4.14136 2.15737 4.14136C2.36053 4.14136 2.55543 4.06674 2.69951 3.93379C3.99134 2.73884 5.63567 1.92599 7.42485 1.59789C9.21403 1.26979 11.0678 1.44116 12.7522 2.09034C14.4365 2.73953 15.8758 3.83743 16.8884 5.24541C17.901 6.65338 18.4414 8.30828 18.4414 10.0011C18.4414 11.694 17.901 13.3489 16.8884 14.7569C15.8758 16.1649 14.4365 17.2628 12.7522 17.912C11.0678 18.5611 9.21403 18.7325 7.42485 18.4044C5.63567 18.0763 3.99134 17.2635 2.69951 16.0685C2.55543 15.9356 2.36053 15.8609 2.15737 15.8609C1.95421 15.8609 1.7593 15.9356 1.61522 16.0685C1.47199 16.2022 1.3916 16.3832 1.3916 16.5717C1.3916 16.7603 1.47199 16.9412 1.61522 17.075C3.63638 18.9492 6.37685 20.0013 9.23376 20C10.6484 19.9993 12.049 19.7401 13.3556 19.2369C14.6623 18.7338 15.8494 17.9968 16.8491 17.0678C17.8489 16.1389 18.6417 15.0362 19.1824 13.8229C19.7231 12.6095 20.001 11.3092 20.0003 9.9961C19.9996 8.68304 19.7203 7.38296 19.1783 6.17009C18.6363 4.95723 17.8422 3.85534 16.8414 2.92733Z" fill="#FB3602"/>
<path d="M9.06651 13.0589C8.99444 13.1253 8.93723 13.2042 8.89819 13.2912C8.85915 13.3782 8.83905 13.4715 8.83905 13.5657C8.83905 13.66 8.85915 13.7533 8.89819 13.8402C8.93723 13.9272 8.99444 14.0062 9.06651 14.0725C9.138 14.1394 9.22306 14.1925 9.31677 14.2288C9.41048 14.265 9.51099 14.2837 9.61251 14.2837C9.71402 14.2837 9.81454 14.265 9.90824 14.2288C10.002 14.1925 10.087 14.1394 10.1585 14.0725L14.0035 10.5035C14.0756 10.4371 14.1328 10.3582 14.1718 10.2712C14.2109 10.1842 14.231 10.0909 14.231 9.9967C14.231 9.90247 14.2109 9.80917 14.1718 9.72218C14.1328 9.6352 14.0756 9.55625 14.0035 9.48989L10.1585 5.92086C10.0137 5.78645 9.81729 5.71094 9.61251 5.71094C9.40772 5.71094 9.21132 5.78645 9.06651 5.92086C8.92171 6.05527 8.84036 6.23758 8.84036 6.42766C8.84036 6.61775 8.92171 6.80005 9.06651 6.93447L11.6042 9.28289H0.769C0.565049 9.28289 0.369451 9.35809 0.225235 9.49196C0.0810196 9.62582 0 9.80738 0 9.9967C0 10.186 0.0810196 10.3676 0.225235 10.5014C0.369451 10.6353 0.565049 10.7105 0.769 10.7105H11.6042L9.06651 13.0589Z" fill="#FB3602"/>
</svg>
