<svg width="168" height="40" viewBox="0 0 168 40" fill="none" xmlns="http://www.w3.org/2000/svg">
<g clip-path="url(#clip0_389_27089)">
<path fill-rule="evenodd" clip-rule="evenodd" d="M9.95554 2.5V40H0V2.5H9.95554Z" fill="white"/>
<path fill-rule="evenodd" clip-rule="evenodd" d="M14.9331 2.5H36.0887C42.9616 2.5 48.5331 8.09644 48.5331 15C48.5331 21.9036 42.9616 27.5 36.0887 27.5H24.8886V40H14.9331V2.5ZM24.8886 17.5H36.0887C37.4633 17.5 38.5776 16.3807 38.5776 15C38.5776 13.6193 37.4633 12.5 36.0887 12.5H24.8886V17.5Z" fill="white"/>
<path fill-rule="evenodd" clip-rule="evenodd" d="M85.8667 2.5V21.875C85.8667 26.3623 89.4881 30 93.9555 30C98.4229 30 102.045 26.3623 102.045 21.875V2.5H112V21.875C112 31.8852 103.921 40 93.9555 40C83.9898 40 75.9111 31.8852 75.9111 21.875V2.5H85.8667Z" fill="white"/>
<path fill-rule="evenodd" clip-rule="evenodd" d="M52.2666 20C52.2666 10.335 60.0667 2.5 69.6888 2.5H72.1777V12.5H69.6888C65.565 12.5 62.2221 15.8579 62.2221 20V21.25C62.2221 31.6053 53.8648 40 43.5554 40H42.311V30H43.5554C48.3665 30 52.2666 26.0825 52.2666 21.25V20Z" fill="white"/>
<path d="M168 3.75C168 5.82107 166.329 7.5 164.266 7.5C162.204 7.5 160.533 5.82107 160.533 3.75C160.533 1.67893 162.204 0 164.266 0C166.329 0 168 1.67893 168 3.75Z" fill="white"/>
<path d="M122.69 39.9989L127.44 20.017L130.972 32.0382C133.078 39.208 143.189 39.208 145.295 32.0382L148.826 20.017L153.577 39.9989H163.812L156.342 8.5784C154.566 1.10635 144.083 0.829689 141.918 8.19782L138.134 21.0822L134.348 8.19783C132.184 0.829732 121.701 1.10631 119.924 8.57839L112.455 39.9989H122.69Z" fill="white"/>
</g>
<defs>
<clipPath id="clip0_389_27089">
<rect width="168" height="40" fill="white"/>
</clipPath>
</defs>
</svg>
