<svg width="78" height="40" viewBox="0 0 78 40" fill="none" xmlns="http://www.w3.org/2000/svg">
<path d="M2.0166 23.1484H4.22628V34.0431H2.0166V23.1484Z" fill="white"/>
<path d="M5.5075 30.314C5.50604 29.5314 5.73548 28.766 6.16678 28.1147C6.59808 27.4633 7.21186 26.9552 7.93044 26.6547C8.64897 26.3543 9.44005 26.2749 10.2035 26.4267C10.967 26.5784 11.6685 26.9545 12.2193 27.5074C12.7701 28.0601 13.1454 28.7649 13.2978 29.5322C13.4502 30.2996 13.3727 31.0952 13.0752 31.8183C12.7777 32.5414 12.2736 33.1595 11.6266 33.5944C10.9797 34.0294 10.219 34.2615 9.44075 34.2615C8.92314 34.2674 8.40967 34.1695 7.93028 33.9732C7.45091 33.7771 7.01529 33.4867 6.64897 33.119C6.28265 32.7514 5.993 32.3139 5.79699 31.8321C5.60098 31.3505 5.50256 30.8343 5.5075 30.314ZM11.1495 30.314C11.1408 29.9761 11.0333 29.6484 10.8403 29.3718C10.6473 29.0951 10.3775 28.8818 10.0646 28.7585C9.75166 28.6352 9.40955 28.6075 9.08109 28.6787C8.75256 28.75 8.45226 28.917 8.21763 29.159C7.98309 29.4009 7.82467 29.7071 7.76222 30.0392C7.69979 30.3712 7.73612 30.7144 7.86663 31.0258C7.99721 31.3372 8.21615 31.603 8.49609 31.7899C8.77611 31.9768 9.10465 32.0765 9.44075 32.0766C9.67062 32.0831 9.89939 32.0416 10.1126 31.9547C10.3257 31.8678 10.5187 31.7375 10.6793 31.5718C10.8398 31.4062 10.9646 31.2089 11.0454 30.9925C11.1264 30.7759 11.1618 30.5449 11.1495 30.314Z" fill="white"/>
<path d="M22.257 26.5812V33.6765C22.257 36.1872 20.3051 37.2463 18.3311 37.2463C17.637 37.2983 16.942 37.1571 16.3223 36.8383C15.7026 36.5196 15.1821 36.0355 14.8178 35.4392L16.7181 34.3357C16.8689 34.6412 17.1075 34.8943 17.4029 35.062C17.6984 35.2297 18.0372 35.3044 18.3754 35.2762C18.5978 35.3136 18.8259 35.299 19.042 35.2336C19.258 35.1682 19.4562 35.0539 19.6213 34.8993C19.7864 34.7447 19.914 34.554 19.9943 34.342C20.0745 34.13 20.1053 33.9023 20.0841 33.6765V32.9877C19.8244 33.3091 19.4929 33.5644 19.1167 33.7329C18.7405 33.9015 18.3301 33.9786 17.9187 33.9579C16.9185 33.9579 15.9593 33.5584 15.252 32.8473C14.5448 32.1361 14.1475 31.1716 14.1475 30.1659C14.1475 29.1601 14.5448 28.1957 15.252 27.4845C15.9593 26.7734 16.9185 26.3739 17.9187 26.3739C18.3298 26.355 18.7396 26.4328 19.1156 26.6012C19.4916 26.7697 19.8232 27.0241 20.0841 27.3441V26.6034L22.257 26.5812ZM20.0841 30.1659C20.0989 29.8057 20.006 29.4493 19.8177 29.1425C19.6294 28.8358 19.3541 28.5926 19.0273 28.4445C18.7005 28.2962 18.337 28.2497 17.9837 28.3109C17.6303 28.372 17.3033 28.538 17.0445 28.7875C16.7857 29.0371 16.6071 29.3587 16.5316 29.7111C16.456 30.0635 16.4871 30.4307 16.6207 30.7652C16.7543 31.0998 16.9843 31.3864 17.2813 31.5885C17.5782 31.7906 17.9284 31.8987 18.2869 31.899C18.521 31.9156 18.7559 31.8828 18.9764 31.8026C19.1971 31.7223 19.3986 31.5966 19.5679 31.4333C19.7372 31.27 19.8706 31.0729 19.9596 30.8546C20.0485 30.6363 20.0909 30.4017 20.0841 30.1659Z" fill="white"/>
<path d="M23.5314 30.314C23.5299 29.5314 23.7594 28.766 24.1907 28.1147C24.622 27.4633 25.2358 26.9552 25.9543 26.6547C26.6729 26.3543 27.464 26.2749 28.2274 26.4267C28.9909 26.5784 29.6924 26.9545 30.2433 27.5074C30.794 28.0601 31.1693 28.7649 31.3218 29.5322C31.4741 30.2996 31.3966 31.0952 31.0991 31.8183C30.8017 32.5414 30.2975 33.1595 29.6506 33.5944C29.0036 34.0294 28.2429 34.2615 27.4647 34.2615C26.9471 34.2674 26.4336 34.1695 25.9542 33.9732C25.4748 33.7771 25.0392 33.4867 24.6729 33.119C24.3066 32.7514 24.0169 32.3139 23.8209 31.8321C23.6249 31.3505 23.5264 30.8343 23.5314 30.314ZM29.1735 30.314C29.1647 29.9761 29.0572 29.6484 28.8642 29.3718C28.6712 29.0951 28.4014 28.8818 28.0885 28.7585C27.7756 28.6352 27.4335 28.6075 27.105 28.6787C26.7765 28.75 26.4762 28.917 26.2415 29.159C26.007 29.4009 25.8486 29.7071 25.7861 30.0392C25.7237 30.3712 25.76 30.7144 25.8905 31.0258C26.0211 31.3372 26.2401 31.603 26.52 31.7899C26.8 31.9768 27.1286 32.0765 27.4647 32.0766C27.6934 32.081 27.9205 32.038 28.1319 31.9502C28.3433 31.8623 28.5345 31.7317 28.6935 31.5663C28.8524 31.4009 28.9758 31.2043 29.0559 30.9889C29.1359 30.7734 29.1709 30.5436 29.1587 30.314H29.1735Z" fill="white"/>
<path d="M32.4214 24.5784C32.4214 24.3118 32.5 24.0512 32.6473 23.8295C32.7946 23.6079 33.004 23.4351 33.2489 23.3331C33.4939 23.231 33.7634 23.2044 34.0234 23.2564C34.2835 23.3084 34.5223 23.4368 34.7098 23.6252C34.8973 23.8138 35.0249 24.0539 35.0767 24.3154C35.1285 24.5769 35.1019 24.848 35.0005 25.0943C34.899 25.3405 34.7271 25.5511 34.5067 25.6992C34.2862 25.8473 34.0271 25.9263 33.7619 25.9263C33.407 25.9244 33.0671 25.7818 32.8161 25.5294C32.5651 25.2771 32.4233 24.9353 32.4214 24.5784ZM32.6497 26.5781H34.8594V34.0437H32.6497V26.5781Z" fill="white"/>
<path d="M44.4934 30.3106C44.5202 30.8041 44.4497 31.298 44.2859 31.764C44.122 32.23 43.8682 32.6588 43.5388 33.0257C43.2095 33.3926 42.8113 33.6904 42.3671 33.9019C41.9229 34.1134 41.4415 34.2345 40.9506 34.2582C40.5384 34.278 40.1269 34.2068 39.7452 34.0494C39.3634 33.892 39.0205 33.6523 38.7409 33.3472V37.0504H36.5312V26.5778H38.7409V27.2814C39.0205 26.9763 39.3634 26.7366 39.7452 26.5792C40.1269 26.4218 40.5384 26.3506 40.9506 26.3704C41.4409 26.3941 41.9217 26.515 42.3653 26.726C42.8091 26.9372 43.207 27.2343 43.5361 27.6004C43.8654 27.9665 44.1193 28.3944 44.2836 28.8595C44.4479 29.3246 44.5192 29.8177 44.4934 30.3106ZM42.2837 30.3106C42.275 29.963 42.165 29.6256 41.9675 29.3402C41.7699 29.0548 41.4935 28.8339 41.1723 28.7049C40.8512 28.5759 40.4994 28.5445 40.1607 28.6145C39.822 28.6845 39.5111 28.8529 39.2666 29.0988C39.022 29.3446 38.8546 29.6572 38.785 29.9978C38.7154 30.3384 38.7467 30.6921 38.8749 31.015C39.0032 31.3379 39.2229 31.6159 39.5067 31.8145C39.7906 32.0132 40.1261 32.1238 40.4718 32.1326C40.7131 32.148 40.9548 32.1113 41.1808 32.025C41.4068 31.9387 41.6118 31.8047 41.7821 31.6322C41.9523 31.4595 42.0838 31.2523 42.1678 31.0244C42.2518 30.7965 42.2863 30.5531 42.269 30.3106H42.2837Z" fill="white"/>
<path d="M51.3732 31.8093C51.3732 33.5276 49.9 34.2607 48.2796 34.2607C47.6323 34.3184 46.9826 34.1799 46.4142 33.8631C45.8459 33.5463 45.3848 33.0657 45.0903 32.4832L47.0201 31.3797C47.0984 31.6491 47.2661 31.8835 47.4952 32.0438C47.7244 32.2041 48.0011 32.2808 48.2796 32.261C48.8173 32.261 49.0824 32.0907 49.0824 31.7945C49.0824 30.9723 45.3997 31.4094 45.3997 28.8319C45.3997 27.2025 46.7697 26.3804 48.3459 26.3804C48.9275 26.3627 49.5033 26.5016 50.0136 26.7829C50.5239 27.0642 50.95 27.4776 51.248 27.9802L49.3108 29.0023C49.2253 28.8067 49.085 28.6403 48.9072 28.5232C48.7293 28.4062 48.5216 28.3436 48.3091 28.3431C47.9261 28.3431 47.6904 28.4912 47.6904 28.7653C47.7199 29.617 51.3732 29.0467 51.3732 31.8093Z" fill="white"/>
<path d="M59.5048 26.5781V34.0437H57.2951V33.3475C57.0381 33.6569 56.7119 33.9006 56.3432 34.059C55.9745 34.2173 55.5738 34.2857 55.1738 34.2585C53.7007 34.2585 52.397 33.1846 52.397 31.1627V26.5781H54.6066V30.8368C54.5872 31.0183 54.6083 31.2018 54.6682 31.3741C54.7281 31.5464 54.8253 31.7031 54.953 31.8329C55.0806 31.9628 55.2355 32.0623 55.4061 32.1244C55.5768 32.1866 55.7592 32.2097 55.9398 32.1922C56.7501 32.1922 57.3172 31.7181 57.3172 30.6591V26.5781H59.5048Z" fill="white"/>
<path d="M72.2766 29.4663V34.0434H70.0669V29.659C70.0669 28.9183 69.706 28.4295 68.9989 28.4295C68.2918 28.4295 67.8351 28.9554 67.8351 29.8367V34.0434H65.6255V29.659C65.6255 28.9183 65.2719 28.4295 64.5574 28.4295C63.843 28.4295 63.4011 28.9554 63.4011 29.8367V34.0434H61.1914V26.5779H63.4011V27.2667C63.632 26.9625 63.9349 26.7212 64.2822 26.5647C64.6296 26.4081 65.0103 26.3414 65.3898 26.3706C65.7709 26.3519 66.1503 26.4329 66.491 26.6055C66.8318 26.7781 67.1223 27.0365 67.3343 27.3556C67.5808 27.022 67.9074 26.7567 68.2835 26.5845C68.6596 26.4122 69.073 26.3386 69.485 26.3706C71.1644 26.3706 72.2766 27.6 72.2766 29.4663Z" fill="white"/>
<path d="M74.1621 26.5368C75.0733 26.5368 75.812 25.794 75.812 24.8777C75.812 23.9615 75.0733 23.2188 74.1621 23.2188C73.2509 23.2188 72.5122 23.9615 72.5122 24.8777C72.5122 25.794 73.2509 26.5368 74.1621 26.5368Z" fill="white"/>
<path d="M27.0224 17.4994C31.2896 17.4994 34.7489 14.021 34.7489 9.73014C34.7489 5.43934 31.2896 1.96094 27.0224 1.96094C22.7552 1.96094 19.2959 5.43934 19.2959 9.73014C19.2959 14.021 22.7552 17.4994 27.0224 17.4994Z" fill="white"/>
<path d="M44.2949 17.4994C48.5621 17.4994 52.0213 14.021 52.0213 9.73014C52.0213 5.43934 48.5621 1.96094 44.2949 1.96094C40.0277 1.96094 36.5684 5.43934 36.5684 9.73014C36.5684 14.021 40.0277 17.4994 44.2949 17.4994Z" fill="white"/>
<path d="M17.4768 1.96094H2.03125V17.4919H17.4768V1.96094Z" fill="white"/>
</svg>
