<svg width="164" height="40" viewBox="0 0 164 40" fill="none" xmlns="http://www.w3.org/2000/svg">
<g clip-path="url(#clip0_389_27061)">
<path d="M49.4678 28.6087H60.9979V25.0965H53.5658V11.8672H49.4678V28.6087Z" fill="white"/>
<path d="M67.8281 26.2676C66.1842 26.2676 65.3276 24.8159 65.3276 22.6383C65.3276 20.4608 66.1842 18.9857 67.8281 18.9857C69.4719 18.9857 70.3517 20.4608 70.3517 22.6383C70.3517 24.8159 69.4719 26.2676 67.8281 26.2676ZM67.8512 28.9837C71.6715 28.9837 74.172 26.2442 74.172 22.6383C74.172 19.0325 71.6715 16.293 67.8512 16.293C64.0542 16.293 61.5073 19.0325 61.5073 22.6383C61.5073 26.2442 64.0542 28.9837 67.8512 28.9837Z" fill="white"/>
<path d="M80.7851 32.7534C82.5447 32.7534 84.096 32.3554 85.1379 31.4188C86.0871 30.5525 86.7123 29.2412 86.7123 27.4383V16.6208H83.1004V17.9086H83.0541C82.3595 16.9017 81.2945 16.2695 79.7201 16.2695C76.7796 16.2695 74.7422 18.7515 74.7422 22.2637C74.7422 25.9398 77.2196 27.9534 79.8821 27.9534C81.3176 27.9534 82.2206 27.3681 82.9152 26.572H83.0078V27.7661C83.0078 29.2178 82.3364 30.0608 80.7388 30.0608C79.4885 30.0608 78.8634 29.5222 78.655 28.89H74.9969C75.3673 31.3954 77.5205 32.7534 80.7851 32.7534ZM80.762 25.1203C79.3496 25.1203 78.4235 23.9495 78.4235 22.1466C78.4235 20.3203 79.3496 19.1495 80.762 19.1495C82.3364 19.1495 83.1699 20.5076 83.1699 22.1232C83.1699 23.809 82.4058 25.1203 80.762 25.1203Z" fill="white"/>
<path d="M94.1391 26.2676C92.4952 26.2676 91.6386 24.8159 91.6386 22.6383C91.6386 20.4608 92.4952 18.9857 94.1391 18.9857C95.783 18.9857 96.6624 20.4608 96.6624 22.6383C96.6624 24.8159 95.783 26.2676 94.1391 26.2676ZM94.1623 28.9837C97.9821 28.9837 100.483 26.2442 100.483 22.6383C100.483 19.0325 97.9821 16.293 94.1623 16.293C90.3652 16.293 87.8184 19.0325 87.8184 22.6383C87.8184 26.2442 90.3652 28.9837 94.1623 28.9837Z" fill="white"/>
<path d="M101.584 28.6087H105.358V16.6204H101.584V28.6087ZM101.584 14.9579H105.358V11.8672H101.584V14.9579Z" fill="white"/>
<path d="M106.996 32.5661H110.77V27.3681H110.816C111.557 28.3749 112.645 28.9837 114.173 28.9837C117.276 28.9837 119.336 26.5017 119.336 22.6149C119.336 19.009 117.414 16.2695 114.266 16.2695C112.645 16.2695 111.487 16.9954 110.677 18.0725H110.607V16.6208H106.996V32.5661ZM113.201 26.0334C111.58 26.0334 110.654 24.6988 110.654 22.7554C110.654 20.812 111.487 19.3368 113.131 19.3368C114.752 19.3368 115.516 20.6949 115.516 22.7554C115.516 24.7925 114.636 26.0334 113.201 26.0334Z" fill="white"/>
<path d="M125.481 28.9837C128.583 28.9837 130.876 27.6256 130.876 25.0032C130.876 21.9359 128.421 21.3973 126.338 21.0461C124.833 20.7651 123.49 20.6481 123.49 19.8051C123.49 19.0559 124.207 18.7047 125.134 18.7047C126.175 18.7047 126.893 19.0325 127.032 20.1095H130.505C130.32 17.7447 128.514 16.2695 125.157 16.2695C122.355 16.2695 120.04 17.5808 120.04 20.1095C120.04 22.9193 122.239 23.4812 124.3 23.8325C125.875 24.1134 127.31 24.2305 127.31 25.3076C127.31 26.0803 126.592 26.5017 125.458 26.5017C124.207 26.5017 123.42 25.9164 123.281 24.7222H119.716C119.832 27.3681 122.008 28.9837 125.481 28.9837Z" fill="white"/>
<path d="M136.002 28.9606C137.646 28.9606 138.688 28.305 139.545 27.1343H139.614V28.6094H143.226V16.6211H139.452V23.3177C139.452 24.746 138.665 25.7294 137.369 25.7294C136.165 25.7294 135.586 25.0035 135.586 23.6923V16.6211H131.835V24.4884C131.835 27.1577 133.27 28.9606 136.002 28.9606Z" fill="white"/>
<path d="M144.868 28.609H148.642V21.889C148.642 20.4608 149.337 19.4539 150.517 19.4539C151.652 19.4539 152.184 20.2032 152.184 21.491V28.609H155.958V21.889C155.958 20.4608 156.63 19.4539 157.834 19.4539C158.968 19.4539 159.501 20.2032 159.501 21.491V28.609H163.275V20.812C163.275 18.1193 161.932 16.2695 159.246 16.2695C157.718 16.2695 156.445 16.9251 155.519 18.3768H155.472C154.87 17.089 153.689 16.2695 152.138 16.2695C150.425 16.2695 149.29 17.089 148.549 18.33H148.48V16.6208H144.868V28.609Z" fill="white"/>
<path fill-rule="evenodd" clip-rule="evenodd" d="M19.3922 39.3368C30.0482 39.3368 38.6863 30.6009 38.6863 19.8247C38.6863 9.0484 30.0482 0.3125 19.3922 0.3125C8.7364 0.3125 0.0981445 9.0484 0.0981445 19.8247C0.0981445 30.6009 8.7364 39.3368 19.3922 39.3368ZM22.3703 15.3882C24.0149 13.7248 24.0149 11.0282 22.3703 9.36485C20.7255 7.70155 18.059 7.70155 16.4143 9.36485C14.7696 11.0282 14.7696 13.7248 16.4143 15.3882L19.3922 18.3998L22.3703 15.3882ZM23.7792 22.8364C25.424 24.4997 28.0905 24.4997 29.7352 22.8364C31.3799 21.173 31.3799 18.4764 29.7352 16.813C28.0905 15.1498 25.424 15.1498 23.7792 16.813L20.8013 19.8248L23.7792 22.8364ZM22.3703 30.2846C24.0149 28.6212 24.0149 25.9246 22.3703 24.2612L19.3922 21.2496L16.4143 24.2612C14.7696 25.9246 14.7696 28.6212 16.4143 30.2846C18.059 31.9479 20.7255 31.9479 22.3703 30.2846ZM9.04929 22.8364C7.40462 21.173 7.40462 18.4764 9.04929 16.813C10.694 15.1498 13.3606 15.1498 15.0053 16.813L17.9833 19.8248L15.0053 22.8364C13.3606 24.4997 10.694 24.4997 9.04929 22.8364Z" fill="white"/>
</g>
<defs>
<clipPath id="clip0_389_27061">
<rect width="164" height="40" fill="white"/>
</clipPath>
</defs>
</svg>
