<svg width="146" height="36" viewBox="0 0 146 36" fill="none" xmlns="http://www.w3.org/2000/svg">
<g clip-path="url(#clip0_992_76)">
<path d="M42.5156 25.2822H52.9647V22.1212H46.2294V10.2148H42.5156V25.2822Z" fill="white"/>
<path d="M59.1558 23.1725C57.6661 23.1725 56.8898 21.8659 56.8898 19.9061C56.8898 17.9463 57.6661 16.6187 59.1558 16.6187C60.6456 16.6187 61.4429 17.9463 61.4429 19.9061C61.4429 21.8659 60.6456 23.1725 59.1558 23.1725ZM59.1768 25.617C62.6388 25.617 64.9049 23.1514 64.9049 19.9061C64.9049 16.6609 62.6388 14.1953 59.1768 14.1953C55.7358 14.1953 53.4277 16.6609 53.4277 19.9061C53.4277 23.1514 55.7358 25.617 59.1768 25.617Z" fill="white"/>
<path d="M70.8962 29.0113C72.4909 29.0113 73.8967 28.653 74.8409 27.8101C75.7011 27.0304 76.2676 25.8503 76.2676 24.2277V14.4919H72.9944V15.6509H72.9525C72.323 14.7448 71.3578 14.1758 69.9311 14.1758C67.2663 14.1758 65.4199 16.4095 65.4199 19.5705C65.4199 22.879 67.665 24.6913 70.0779 24.6913C71.3788 24.6913 72.1971 24.1645 72.8266 23.448H72.9105V24.5227C72.9105 25.8292 72.302 26.5879 70.8543 26.5879C69.7212 26.5879 69.1547 26.1032 68.9659 25.5342H65.6507C65.9864 27.7891 67.9378 29.0113 70.8962 29.0113ZM70.8752 22.1414C69.5953 22.1414 68.7561 21.0878 68.7561 19.4651C68.7561 17.8214 69.5953 16.7678 70.8752 16.7678C72.302 16.7678 73.0574 17.99 73.0574 19.4441C73.0574 20.9613 72.365 22.1414 70.8752 22.1414Z" fill="white"/>
<path d="M82.9976 23.1725C81.5079 23.1725 80.7316 21.8659 80.7316 19.9061C80.7316 17.9463 81.5079 16.6187 82.9976 16.6187C84.4874 16.6187 85.2847 17.9463 85.2847 19.9061C85.2847 21.8659 84.4874 23.1725 82.9976 23.1725ZM83.0186 25.617C86.4806 25.617 88.747 23.1514 88.747 19.9061C88.747 16.6609 86.4806 14.1953 83.0186 14.1953C79.5776 14.1953 77.2695 16.6609 77.2695 19.9061C77.2695 23.1514 79.5776 25.617 83.0186 25.617Z" fill="white"/>
<path d="M89.7461 25.2822H93.1662V14.4927H89.7461V25.2822ZM89.7461 12.9965H93.1662V10.2148H89.7461V12.9965Z" fill="white"/>
<path d="M94.6504 28.8427H98.0705V24.1645H98.1124C98.7839 25.0706 99.77 25.6185 101.155 25.6185C103.966 25.6185 105.834 23.3848 105.834 19.8866C105.834 16.6413 104.092 14.1758 101.239 14.1758C99.77 14.1758 98.7209 14.8291 97.9865 15.7984H97.9236V14.4919H94.6504V28.8427ZM100.274 22.9633C98.8048 22.9633 97.9656 21.7621 97.9656 20.0131C97.9656 18.264 98.7209 16.9364 100.211 16.9364C101.679 16.9364 102.372 18.1586 102.372 20.0131C102.372 21.8464 101.574 22.9633 100.274 22.9633Z" fill="white"/>
<path d="M111.402 25.6185C114.214 25.6185 116.291 24.3963 116.291 22.0361C116.291 19.2755 114.067 18.7908 112.179 18.4747C110.815 18.2218 109.598 18.1165 109.598 17.3578C109.598 16.6835 110.248 16.3674 111.088 16.3674C112.032 16.3674 112.682 16.6624 112.808 17.6318H115.955C115.788 15.5034 114.151 14.1758 111.109 14.1758C108.57 14.1758 106.471 15.3559 106.471 17.6318C106.471 20.1606 108.465 20.6663 110.332 20.9824C111.759 21.2353 113.06 21.3407 113.06 22.31C113.06 23.0054 112.409 23.3848 111.381 23.3848C110.248 23.3848 109.535 22.8579 109.409 21.7832H106.178C106.283 24.1645 108.255 25.6185 111.402 25.6185Z" fill="white"/>
<path d="M120.937 25.5977C122.427 25.5977 123.371 25.0077 124.147 23.954H124.21V25.2817H127.483V14.4922H124.063V20.5191C124.063 21.8046 123.35 22.6897 122.175 22.6897C121.084 22.6897 120.559 22.0364 120.559 20.8563V14.4922H117.16V21.5728C117.16 23.9751 118.461 25.5977 120.937 25.5977Z" fill="white"/>
<path d="M128.971 25.2813H132.391V19.2333C132.391 17.9479 133.02 17.0417 134.09 17.0417C135.118 17.0417 135.601 17.7161 135.601 18.8751V25.2813H139.021V19.2333C139.021 17.9479 139.63 17.0417 140.721 17.0417C141.749 17.0417 142.231 17.7161 142.231 18.8751V25.2813H145.651V18.264C145.651 15.8406 144.434 14.1758 142.001 14.1758C140.616 14.1758 139.462 14.7658 138.622 16.0724H138.58C138.035 14.9133 136.965 14.1758 135.559 14.1758C134.006 14.1758 132.978 14.9133 132.307 16.0302H132.244V14.4919H128.971V25.2813Z" fill="white"/>
<path fill-rule="evenodd" clip-rule="evenodd" d="M7.5661 3.41691C6.31535 4.29528 5.18433 5.33379 4.2025 6.50284C8.2147 6.12873 13.3121 6.73961 19.23 9.71148C25.5497 12.8849 30.6385 12.9922 34.1801 12.3061C33.8587 11.3289 33.4541 10.3898 32.9749 9.49697C28.9208 9.92643 23.7233 9.35798 17.6662 6.31633C13.8198 4.3848 10.4293 3.58913 7.5661 3.41691ZM30.6067 6.11145C27.4051 2.51878 22.7524 0.257812 17.5739 0.257812C16.0531 0.257812 14.5775 0.452833 13.1709 0.819307C15.076 1.3414 17.0999 2.10521 19.23 3.17492C23.6648 5.40188 27.4935 6.11892 30.6067 6.11145ZM34.9373 15.7361C30.6587 16.5847 24.7504 16.4104 17.6662 12.8529C11.0432 9.527 5.77188 9.56888 2.21671 10.3624C2.0332 10.4033 1.85402 10.4463 1.67916 10.4911C1.2137 11.5078 0.842152 12.5769 0.575565 13.6871C0.860294 13.6107 1.15452 13.5381 1.45809 13.4703C5.77113 12.5077 11.8651 12.5495 19.23 16.248C25.8531 19.5739 31.1244 19.532 34.6796 18.7385C34.8014 18.7114 34.9215 18.6833 35.0395 18.6543C35.0524 18.3775 35.0589 18.0989 35.0589 17.8188C35.0589 17.1141 35.0176 16.4192 34.9373 15.7361ZM34.4686 22.3603C30.2315 23.1043 24.4953 22.8187 17.6662 19.3894C11.0432 16.0635 5.77188 16.1054 2.21671 16.8989C1.42756 17.075 0.717663 17.2895 0.0914287 17.5159C0.0897213 17.6166 0.0888672 17.7176 0.0888672 17.8188C0.0888672 27.5174 7.91717 35.3797 17.5739 35.3797C25.6669 35.3797 32.4757 29.8576 34.4686 22.3603Z" fill="white"/>
</g>
<defs>
<clipPath id="clip0_992_76">
<rect width="146" height="36" fill="white"/>
</clipPath>
</defs>
</svg>
