<svg width="150" height="36" viewBox="0 0 150 36" fill="none" xmlns="http://www.w3.org/2000/svg">
<path d="M45.0234 25.747H55.5179V22.586H48.7534V10.6797H45.0234V25.747Z" fill="white"/>
<path d="M61.7354 23.6412C60.2392 23.6412 59.4595 22.3347 59.4595 20.3749C59.4595 18.4151 60.2392 17.0875 61.7354 17.0875C63.2316 17.0875 64.0324 18.4151 64.0324 20.3749C64.0324 22.3347 63.2316 23.6412 61.7354 23.6412ZM61.7565 26.0857C65.2335 26.0857 67.5094 23.6202 67.5094 20.3749C67.5094 17.1296 65.2335 14.6641 61.7565 14.6641C58.3005 14.6641 55.9824 17.1296 55.9824 20.3749C55.9824 23.6202 58.3005 26.0857 61.7565 26.0857Z" fill="white"/>
<path d="M73.5274 29.4761C75.129 29.4761 76.5409 29.1179 77.4892 28.275C78.3532 27.4953 78.9222 26.3152 78.9222 24.6925V14.9567H75.6348V16.1157H75.5926C74.9604 15.2096 73.9911 14.6406 72.5581 14.6406C69.8818 14.6406 68.0273 16.8744 68.0273 20.0354C68.0273 23.3438 70.2822 25.1561 72.7056 25.1561C74.0121 25.1561 74.834 24.6293 75.4662 23.9128H75.5505V24.9876C75.5505 26.2941 74.9393 27.0527 73.4853 27.0527C72.3473 27.0527 71.7784 26.568 71.5887 25.9991H68.2591C68.5963 28.2539 70.5561 29.4761 73.5274 29.4761ZM73.5064 22.6063C72.2209 22.6063 71.378 21.5526 71.378 19.93C71.378 18.2863 72.2209 17.2326 73.5064 17.2326C74.9393 17.2326 75.698 18.4549 75.698 19.9089C75.698 21.4262 75.0026 22.6063 73.5064 22.6063Z" fill="white"/>
<path d="M85.6827 23.6412C84.1865 23.6412 83.4068 22.3347 83.4068 20.3749C83.4068 18.4151 84.1865 17.0875 85.6827 17.0875C87.1789 17.0875 87.9793 18.4151 87.9793 20.3749C87.9793 22.3347 87.1789 23.6412 85.6827 23.6412ZM85.7037 26.0857C89.1805 26.0857 91.4564 23.6202 91.4564 20.3749C91.4564 17.1296 89.1805 14.6641 85.7037 14.6641C82.2477 14.6641 79.9297 17.1296 79.9297 20.3749C79.9297 23.6202 82.2477 26.0857 85.7037 26.0857Z" fill="white"/>
<path d="M92.459 25.747H95.8939V14.9575H92.459V25.747ZM92.459 13.4613H95.8939V10.6797H92.459V13.4613Z" fill="white"/>
<path d="M97.3848 29.3076H100.82V24.6293H100.862C101.536 25.5355 102.527 26.0834 103.917 26.0834C106.741 26.0834 108.617 23.8496 108.617 20.3515C108.617 17.1062 106.868 14.6406 104.002 14.6406C102.527 14.6406 101.473 15.2939 100.735 16.2633H100.672V14.9567H97.3848V29.3076ZM103.032 23.4281C101.557 23.4281 100.714 22.227 100.714 20.4779C100.714 18.7288 101.473 17.4012 102.969 17.4012C104.444 17.4012 105.14 18.6235 105.14 20.4779C105.14 22.3113 104.339 23.4281 103.032 23.4281Z" fill="white"/>
<path d="M114.208 26.0834C117.032 26.0834 119.118 24.8611 119.118 22.5009C119.118 19.7403 116.884 19.2556 114.988 18.9396C113.618 18.6867 112.396 18.5813 112.396 17.8227C112.396 17.1483 113.049 16.8322 113.892 16.8322C114.84 16.8322 115.494 17.1273 115.62 18.0966H118.781C118.612 15.9682 116.969 14.6406 113.913 14.6406C111.363 14.6406 109.256 15.8207 109.256 18.0966C109.256 20.6254 111.258 21.1312 113.133 21.4473C114.566 21.7001 115.873 21.8055 115.873 22.7749C115.873 23.4703 115.22 23.8496 114.187 23.8496C113.049 23.8496 112.333 23.3228 112.206 22.248H108.961C109.066 24.6293 111.047 26.0834 114.208 26.0834Z" fill="white"/>
<path d="M123.785 26.0626C125.282 26.0626 126.23 25.4725 127.01 24.4189H127.073V25.7465H130.36V14.957H126.925V20.984C126.925 22.2694 126.209 23.1545 125.029 23.1545C123.933 23.1545 123.406 22.5012 123.406 21.3211V14.957H119.992V22.0376C119.992 24.44 121.299 26.0626 123.785 26.0626Z" fill="white"/>
<path d="M131.855 25.7462H135.29V19.6982C135.29 18.4127 135.923 17.5066 136.997 17.5066C138.03 17.5066 138.515 18.1809 138.515 19.3399V25.7462H141.95V19.6982C141.95 18.4127 142.561 17.5066 143.656 17.5066C144.689 17.5066 145.174 18.1809 145.174 19.3399V25.7462H148.609V18.7288C148.609 16.3054 147.386 14.6406 144.942 14.6406C143.551 14.6406 142.392 15.2307 141.549 16.5372H141.507C140.959 15.3782 139.884 14.6406 138.472 14.6406C136.913 14.6406 135.88 15.3782 135.206 16.4951H135.143V14.9567H131.855V25.7462Z" fill="white"/>
<path fill-rule="evenodd" clip-rule="evenodd" d="M17.6508 35.4032C27.3495 35.4032 35.2118 27.5409 35.2118 17.8422C35.2118 8.14356 27.3495 0.28125 17.6508 0.28125C7.95215 0.28125 0.0898438 8.14356 0.0898438 17.8422C0.0898438 27.5409 7.95215 35.4032 17.6508 35.4032ZM20.3613 13.8493C21.8582 12.3524 21.8582 9.92535 20.3613 8.42836C18.8643 6.9314 16.4373 6.9314 14.9403 8.42836C13.4434 9.92535 13.4434 12.3524 14.9403 13.8493L17.6508 16.5598L20.3613 13.8493ZM21.6437 20.5527C23.1407 22.0497 25.5677 22.0497 27.0647 20.5527C28.5616 19.0557 28.5616 16.6287 27.0647 15.1317C25.5677 13.6348 23.1407 13.6348 21.6437 15.1317L18.9333 17.8423L21.6437 20.5527ZM20.3613 27.2561C21.8582 25.7591 21.8582 23.3321 20.3613 21.8351L17.6508 19.1247L14.9403 21.8351C13.4434 23.3321 13.4434 25.7591 14.9403 27.2561C16.4373 28.7531 18.8643 28.7531 20.3613 27.2561ZM8.23693 20.5527C6.74 19.0557 6.74 16.6287 8.23693 15.1317C9.73394 13.6348 12.161 13.6348 13.6579 15.1317L16.3684 17.8423L13.6579 20.5527C12.161 22.0497 9.73394 22.0497 8.23693 20.5527Z" fill="white"/>
</svg>
