<svg width="150" height="36" viewBox="0 0 150 36" fill="none" xmlns="http://www.w3.org/2000/svg">
<g clip-path="url(#clip0_993_88)">
<path d="M45.5361 24.704H56.0306V21.5431H49.2661V9.63672H45.5361V24.704Z" fill="white"/>
<path d="M62.2481 22.6022C60.7519 22.6022 59.9722 21.2956 59.9722 19.3358C59.9722 17.376 60.7519 16.0484 62.2481 16.0484C63.7443 16.0484 64.5451 17.376 64.5451 19.3358C64.5451 21.2956 63.7443 22.6022 62.2481 22.6022ZM62.2692 25.0467C65.7462 25.0467 68.0221 22.5811 68.0221 19.3358C68.0221 16.0906 65.7462 13.625 62.2692 13.625C58.8132 13.625 56.4951 16.0906 56.4951 19.3358C56.4951 22.5811 58.8132 25.0467 62.2692 25.0467Z" fill="white"/>
<path d="M74.0401 28.4332C75.6417 28.4332 77.0536 28.0749 78.0019 27.232C78.8659 26.4523 79.4349 25.2722 79.4349 23.6496V13.9138H76.1475V15.0728H76.1053C75.4731 14.1666 74.5037 13.5977 73.0708 13.5977C70.3945 13.5977 68.54 15.8314 68.54 18.9924C68.54 22.3009 70.7949 24.1132 73.2183 24.1132C74.5248 24.1132 75.3467 23.5863 75.9789 22.8699H76.0632V23.9446C76.0632 25.2511 75.452 26.0098 73.998 26.0098C72.86 26.0098 72.2911 25.5251 72.1014 24.9561H68.7718C69.109 27.2109 71.0688 28.4332 74.0401 28.4332ZM74.0191 21.5633C72.7336 21.5633 71.8907 20.5097 71.8907 18.887C71.8907 17.2433 72.7336 16.1897 74.0191 16.1897C75.452 16.1897 76.2107 17.4119 76.2107 18.8659C76.2107 20.3832 75.5153 21.5633 74.0191 21.5633Z" fill="white"/>
<path d="M86.1944 22.6022C84.6982 22.6022 83.9185 21.2956 83.9185 19.3358C83.9185 17.376 84.6982 16.0484 86.1944 16.0484C87.6906 16.0484 88.4914 17.376 88.4914 19.3358C88.4914 21.2956 87.6906 22.6022 86.1944 22.6022ZM86.2155 25.0467C89.6925 25.0467 91.9684 22.5811 91.9684 19.3358C91.9684 16.0906 89.6925 13.625 86.2155 13.625C82.7595 13.625 80.4414 16.0906 80.4414 19.3358C80.4414 22.5811 82.7595 25.0467 86.2155 25.0467Z" fill="white"/>
<path d="M92.9707 24.704H96.4056V13.9146H92.9707V24.704ZM92.9707 12.4184H96.4056V9.63672H92.9707V12.4184Z" fill="white"/>
<path d="M97.8975 28.2646H101.332V23.5863H101.375C102.049 24.4925 103.039 25.0404 104.43 25.0404C107.254 25.0404 109.129 22.8066 109.129 19.3085C109.129 16.0632 107.38 13.5977 104.514 13.5977C103.039 13.5977 101.986 14.2509 101.248 15.2203H101.185V13.9138H97.8975V28.2646ZM103.545 22.3852C102.07 22.3852 101.227 21.184 101.227 19.4349C101.227 17.6859 101.986 16.3582 103.482 16.3582C104.957 16.3582 105.652 17.5805 105.652 19.4349C105.652 21.2683 104.852 22.3852 103.545 22.3852Z" fill="white"/>
<path d="M114.722 25.0404C117.546 25.0404 119.632 23.8181 119.632 21.4579C119.632 18.6974 117.398 18.2127 115.502 17.8966C114.132 17.6437 112.91 17.5383 112.91 16.7797C112.91 16.1054 113.563 15.7893 114.406 15.7893C115.354 15.7893 116.007 16.0843 116.134 17.0537H119.295C119.126 14.9253 117.482 13.5977 114.427 13.5977C111.877 13.5977 109.77 14.7778 109.77 17.0537C109.77 19.5824 111.772 20.0882 113.647 20.4043C115.08 20.6572 116.387 20.7625 116.387 21.7319C116.387 22.4273 115.733 22.8066 114.701 22.8066C113.563 22.8066 112.846 22.2798 112.72 21.2051H109.475C109.58 23.5863 111.561 25.0404 114.722 25.0404Z" fill="white"/>
<path d="M124.297 25.0235C125.793 25.0235 126.742 24.4335 127.521 23.3798H127.584V24.7074H130.872V13.918H127.437V19.9449C127.437 21.2304 126.72 22.1154 125.54 22.1154C124.445 22.1154 123.918 21.4622 123.918 20.2821V13.918H120.504V20.9986C120.504 23.4009 121.81 25.0235 124.297 25.0235Z" fill="white"/>
<path d="M132.365 24.7032H135.8V18.6552C135.8 17.3698 136.432 16.4636 137.507 16.4636C138.54 16.4636 139.024 17.1379 139.024 18.297V24.7032H142.459V18.6552C142.459 17.3698 143.07 16.4636 144.166 16.4636C145.199 16.4636 145.683 17.1379 145.683 18.297V24.7032H149.118V17.6859C149.118 15.2624 147.896 13.5977 145.452 13.5977C144.061 13.5977 142.902 14.1877 142.059 15.4942H142.017C141.469 14.3352 140.394 13.5977 138.982 13.5977C137.423 13.5977 136.39 14.3352 135.716 15.4521H135.653V13.9138H132.365V24.7032Z" fill="white"/>
<path fill-rule="evenodd" clip-rule="evenodd" d="M18.1606 35.2469C27.8593 35.2469 35.7216 27.3846 35.7216 17.6859C35.7216 7.98732 27.8593 0.125 18.1606 0.125C8.46191 0.125 0.599609 7.98732 0.599609 17.6859C0.599609 27.3846 8.46191 35.2469 18.1606 35.2469ZM23.639 8.30564C23.9057 7.35841 22.9864 6.79828 22.1469 7.39638L10.4277 15.7451C9.51726 16.3937 9.66047 17.6859 10.6428 17.6859H13.7288V17.6621H19.7433L14.8426 19.3912L12.6822 27.0663C12.4155 28.0136 13.3347 28.5737 14.1743 27.9755L25.8935 19.6269C26.8039 18.9783 26.6606 17.6859 25.6784 17.6859H20.9985L23.639 8.30564Z" fill="white"/>
</g>
<defs>
<clipPath id="clip0_993_88">
<rect width="149.268" height="36" fill="white"/>
</clipPath>
</defs>
</svg>
