<svg width="146" height="36" viewBox="0 0 146 36" fill="none" xmlns="http://www.w3.org/2000/svg">
<path d="M41.625 25.6524H51.2616V22.9046H44.5635V10.0742H41.625V25.6524Z" fill="white"/>
<path d="M57.051 25.9734C58.2178 25.9734 59.2441 25.7137 60.13 25.1944C61.023 24.6679 61.7181 23.9431 62.2151 23.02C62.7192 22.0896 62.9713 21.0186 62.9713 19.807C62.9713 18.6026 62.7228 17.5388 62.2259 16.6156C61.7289 15.6853 61.0338 14.9568 60.1408 14.4304C59.2549 13.9039 58.225 13.6406 57.051 13.6406C55.8986 13.6406 54.8795 13.9003 53.9937 14.4196C53.1078 14.9388 52.4128 15.6636 51.9086 16.594C51.4044 17.5171 51.1523 18.5881 51.1523 19.807C51.1523 21.0114 51.3972 22.0788 51.887 23.0092C52.3839 23.9323 53.0754 24.6571 53.9612 25.1836C54.8472 25.7101 55.8771 25.9734 57.051 25.9734ZM57.051 23.2256C56.1363 23.2256 55.4413 22.9191 54.966 22.306C54.4978 21.6858 54.2638 20.8528 54.2638 19.807C54.2638 18.7901 54.487 17.9679 54.9336 17.3404C55.3873 16.7058 56.0931 16.3884 57.051 16.3884C57.9801 16.3884 58.6787 16.6986 59.1469 17.3188C59.6222 17.9391 59.8599 18.7684 59.8599 19.807C59.8599 20.8095 59.6259 21.6316 59.1576 22.2736C58.6967 22.9082 57.9945 23.2256 57.051 23.2256Z" fill="white"/>
<path d="M68.7824 25.9734C69.3298 25.9734 69.8339 25.9084 70.2949 25.7786C70.763 25.6488 71.188 25.4649 71.5697 25.2269V26.4061C71.5841 26.8388 71.4724 27.1994 71.2347 27.4879C71.0043 27.7836 70.6946 28.0036 70.3057 28.1478C69.9167 28.2993 69.5026 28.375 69.0633 28.375C68.6527 28.375 68.271 28.2848 67.9182 28.1046C67.5724 27.9243 67.3059 27.661 67.1186 27.3148L64.3962 28.6346C64.8427 29.3919 65.4801 30.0013 66.3084 30.4629C67.1367 30.9317 68.0478 31.1661 69.0417 31.1661C69.8987 31.1661 70.6946 31.0507 71.4292 30.8199C72.1639 30.5963 72.7833 30.2538 73.2874 29.7922C73.7987 29.3306 74.1481 28.7428 74.3354 28.0288C74.4001 27.7764 74.4433 27.5204 74.465 27.2607C74.4938 27.0083 74.5082 26.7378 74.5082 26.4494V13.9652H71.937V14.6143C71.5408 14.3041 71.0907 14.0661 70.5866 13.9003C70.0896 13.7272 69.5387 13.6406 68.9336 13.6406C67.8173 13.6406 66.845 13.9075 66.0168 14.4412C65.1885 14.9749 64.5439 15.7069 64.0829 16.6373C63.6291 17.5604 63.4023 18.617 63.4023 19.807C63.4023 20.9754 63.6256 22.0247 64.0722 22.9551C64.5259 23.8854 65.156 24.6211 65.9627 25.162C66.7693 25.7029 67.7093 25.9734 68.7824 25.9734ZM69.2577 23.3554C68.624 23.3554 68.1054 23.1967 67.702 22.8794C67.2988 22.5621 66.9998 22.1365 66.8054 21.6028C66.6109 21.0619 66.5137 20.4633 66.5137 19.807C66.5137 19.1579 66.6145 18.5665 66.8162 18.0328C67.0179 17.4919 67.3275 17.0628 67.7452 16.7454C68.1702 16.4209 68.7104 16.2586 69.3658 16.2586C70.2877 16.2586 70.9466 16.5868 71.3428 17.2431C71.7389 17.8922 71.937 18.7468 71.937 19.807C71.937 20.8672 71.7353 21.7254 71.332 22.3817C70.9359 23.0308 70.2445 23.3554 69.2577 23.3554Z" fill="white"/>
<path d="M81.4885 25.9734C82.6553 25.9734 83.6816 25.7137 84.5675 25.1944C85.4604 24.6679 86.1556 23.9431 86.6521 23.02C87.1564 22.0896 87.4085 21.0186 87.4085 19.807C87.4085 18.6026 87.1606 17.5388 86.6632 16.6156C86.1666 15.6853 85.4714 14.9568 84.5783 14.4304C83.6924 13.9039 82.6624 13.6406 81.4885 13.6406C80.3361 13.6406 79.317 13.9003 78.4312 14.4196C77.5453 14.9388 76.8503 15.6636 76.3461 16.594C75.8419 17.5171 75.5898 18.5881 75.5898 19.807C75.5898 21.0114 75.8347 22.0788 76.3245 23.0092C76.8214 23.9323 77.5129 24.6571 78.3987 25.1836C79.2847 25.7101 80.3146 25.9734 81.4885 25.9734ZM81.4885 23.2256C80.5738 23.2256 79.8788 22.9191 79.4034 22.306C78.9353 21.6858 78.7013 20.8528 78.7013 19.807C78.7013 18.7901 78.9245 17.9679 79.3711 17.3404C79.8248 16.7058 80.5306 16.3884 81.4885 16.3884C82.4176 16.3884 83.1162 16.6986 83.5844 17.3188C84.0597 17.9391 84.2974 18.7684 84.2974 19.807C84.2974 20.8095 84.0633 21.6316 83.5951 22.2736C83.1342 22.9082 82.432 23.2256 81.4885 23.2256Z" fill="white"/>
<path d="M88.7031 12.3424H91.6418V9.74609H88.7031V12.3424ZM88.7031 25.6488H91.6418V13.9652H88.7031V25.6488Z" fill="white"/>
<path d="M93.5625 30.8416H96.5224V25.2269C96.9044 25.4649 97.3254 25.6488 97.7863 25.7786C98.2549 25.9084 98.7625 25.9734 99.31 25.9734C100.383 25.9734 101.323 25.7029 102.13 25.162C102.936 24.6211 103.563 23.8854 104.009 22.9551C104.463 22.0247 104.69 20.9754 104.69 19.807C104.69 18.617 104.46 17.5604 103.999 16.6373C103.545 15.7069 102.904 14.9749 102.075 14.4412C101.247 13.9075 100.275 13.6406 99.1589 13.6406C98.5537 13.6406 97.9994 13.7272 97.4952 13.9003C96.9977 14.0661 96.5513 14.3041 96.1557 14.6143V13.9652H93.5625V30.8416ZM98.8346 23.3554C97.8551 23.3554 97.1641 23.0308 96.7601 22.3817C96.3569 21.7254 96.1557 20.8672 96.1557 19.807C96.1557 18.7468 96.3535 17.8922 96.7499 17.2431C97.1531 16.5868 97.8118 16.2586 98.7268 16.2586C99.3821 16.2586 99.9186 16.4209 100.336 16.7454C100.761 17.0628 101.075 17.4919 101.276 18.0328C101.478 18.5665 101.579 19.1579 101.579 19.807C101.579 20.4633 101.481 21.0619 101.287 21.6028C101.093 22.1365 100.794 22.5621 100.391 22.8794C99.9873 23.1967 99.4687 23.3554 98.8346 23.3554Z" fill="white"/>
<path d="M110.014 25.9734C111.54 25.9734 112.736 25.6308 113.601 24.9456C114.465 24.2604 114.897 23.3193 114.897 22.1221C114.897 21.2134 114.616 20.4958 114.055 19.9693C113.5 19.4428 112.557 19.0064 111.224 18.6603C110.316 18.4294 109.639 18.2419 109.193 18.0977C108.754 17.9535 108.462 17.8129 108.317 17.6758C108.181 17.5388 108.113 17.3693 108.113 17.1674C108.113 16.8284 108.274 16.5688 108.598 16.3884C108.93 16.2081 109.366 16.1361 109.906 16.1721C111.051 16.2586 111.678 16.7491 111.786 17.6434L114.789 17.1024C114.638 16.0423 114.119 15.2021 113.233 14.5818C112.348 13.9544 111.217 13.6406 109.841 13.6406C108.429 13.6406 107.302 13.9724 106.459 14.6359C105.617 15.2994 105.195 16.1937 105.195 17.3188C105.195 18.2131 105.487 18.9199 106.071 19.4392C106.654 19.9513 107.659 20.3912 109.085 20.759C109.928 20.9826 110.546 21.1629 110.943 21.2999C111.346 21.4369 111.606 21.5776 111.72 21.7218C111.836 21.8588 111.894 22.0428 111.894 22.2736C111.894 22.6414 111.749 22.9299 111.462 23.139C111.174 23.3409 110.763 23.4419 110.23 23.4419C109.581 23.4419 109.045 23.2869 108.62 22.9767C108.203 22.6666 107.932 22.2375 107.81 21.6894L104.807 22.1437C105.001 23.3626 105.549 24.3074 106.449 24.9781C107.357 25.6416 108.545 25.9734 110.014 25.9734Z" fill="white"/>
<path d="M120.317 25.9986C121.16 25.9986 121.894 25.858 122.521 25.5767C123.148 25.2954 123.673 24.9204 124.098 24.4516V25.6524H126.691V13.9688H123.731V19.8972C123.731 20.6184 123.648 21.2025 123.482 21.6497C123.324 22.0896 123.119 22.425 122.867 22.6558C122.615 22.8794 122.345 23.0308 122.056 23.1102C121.768 23.1895 121.499 23.2292 121.246 23.2292C120.62 23.2292 120.134 23.0885 119.788 22.8072C119.449 22.526 119.204 22.1762 119.053 21.7579C118.902 21.3395 118.812 20.9249 118.783 20.5138C118.754 20.0955 118.74 19.7529 118.74 19.486V13.9688H115.758V20.5246C115.758 20.7193 115.772 21.0294 115.801 21.455C115.83 21.8805 115.913 22.3529 116.05 22.8722C116.186 23.3842 116.413 23.8782 116.731 24.3542C117.055 24.8302 117.505 25.2233 118.081 25.5334C118.657 25.8435 119.403 25.9986 120.317 25.9986Z" fill="white"/>
<path d="M128.395 25.6524H131.354V18.5773C131.354 17.9066 131.538 17.3621 131.905 16.9438C132.28 16.5183 132.773 16.3055 133.386 16.3055C134.027 16.3055 134.527 16.5219 134.887 16.9546C135.254 17.3802 135.438 17.9787 135.438 18.7504V25.6524H138.377V18.5773C138.377 17.9066 138.56 17.3621 138.928 16.9438C139.302 16.5183 139.795 16.3055 140.407 16.3055C141.049 16.3055 141.549 16.5219 141.909 16.9546C142.276 17.3802 142.461 17.9787 142.461 18.7504V25.6524H145.398V17.9715C145.398 16.695 145.056 15.6637 144.372 14.8775C143.696 14.0842 142.691 13.6875 141.358 13.6875C140.609 13.6875 139.922 13.8498 139.294 14.1743C138.668 14.4989 138.168 14.9424 137.793 15.505C137.491 14.9569 137.059 14.5169 136.497 14.1852C135.935 13.8534 135.236 13.6875 134.401 13.6875C133.695 13.6875 133.047 13.8282 132.456 14.1094C131.865 14.3835 131.376 14.7622 130.987 15.2453V13.9688H128.395V25.6524Z" fill="white"/>
<path d="M16.9767 1C7.60074 1 0 8.61116 0 18C9.376 18 16.9767 10.3888 16.9767 1Z" fill="white"/>
<path d="M16.9766 35C26.3526 35 33.9533 27.3888 33.9533 18C24.5773 18 16.9766 25.6112 16.9766 35Z" fill="white"/>
<path d="M16.9766 1C26.3526 1 33.9533 8.61116 33.9533 18C24.5773 18 16.9766 10.3888 16.9766 1Z" fill="white"/>
<path d="M16.9767 35C7.60074 35 -8.19675e-07 27.3888 0 18C9.376 18 16.9767 25.6112 16.9767 35Z" fill="white"/>
</svg>
