<svg width="40" height="40" viewBox="0 0 40 40" fill="none" xmlns="http://www.w3.org/2000/svg">
<g clip-path="url(#clip0_1132_4)">
<path d="M8.83701 24.1223L7.44118 29.1934L2.33944 29.2984C0.81477 26.5463 -0.0500488 23.3976 -0.0500488 20.0516C-0.0500488 16.816 0.758535 13.7648 2.19181 11.0781H2.1929L6.73488 11.8885L8.72454 16.2821C8.30811 17.4636 8.08114 18.7319 8.08114 20.0516C8.0813 21.4839 8.3479 22.8562 8.83701 24.1223Z" fill="#FBBB00"/>
<path d="M39.6994 16.4062C39.9297 17.5866 40.0498 18.8056 40.0498 20.0514C40.0498 21.4483 39.8988 22.811 39.6113 24.1254C38.6353 28.5982 36.0849 32.5038 32.552 35.2677L32.5509 35.2666L26.83 34.9825L26.0203 30.0637C28.3646 28.7258 30.1967 26.6319 31.1618 24.1254H20.4404V16.4062H31.3182H39.6994Z" fill="#518EF8"/>
<path d="M32.5514 35.2694L32.5525 35.2705C29.1165 37.9582 24.7516 39.5664 20.0002 39.5664C12.3647 39.5664 5.72611 35.4131 2.3396 29.3011L8.83717 24.125C10.5304 28.5227 14.8896 31.6533 20.0002 31.6533C22.1969 31.6533 24.2549 31.0754 26.0208 30.0665L32.5514 35.2694Z" fill="#28B446"/>
<path d="M32.7981 5.03504L26.3027 10.21C24.4751 9.0983 22.3147 8.45608 20.0002 8.45608C14.7739 8.45608 10.3331 11.7302 8.72471 16.2857L2.19299 11.0817H2.19189C5.52883 4.82064 12.2511 0.542969 20.0002 0.542969C24.8651 0.542969 29.3257 2.2294 32.7981 5.03504Z" fill="#DE103C"/>
</g>
<defs>
<clipPath id="clip0_1132_4">
<rect width="40" height="40" fill="white"/>
</clipPath>
</defs>
</svg>
