<svg width="40" height="40" viewBox="0 0 40 40" fill="none" xmlns="http://www.w3.org/2000/svg">
<path d="M22.4628 0C22.7835 0 23.0542 0.233913 23.0946 0.546059L23.6331 4.69757C25.3461 5.10828 26.9931 5.77099 28.4633 6.69051L31.8399 4.13045L31.8642 4.11288C32.1185 3.93809 32.4665 3.9685 32.6853 4.1887L35.9975 7.52203C36.2196 7.74556 36.2395 8.09562 36.0441 8.34204L33.3521 11.7382C34.289 13.1817 34.9627 14.8086 35.3197 16.5637L39.445 17.0885C39.7624 17.1289 40 17.3942 40 17.7083V22.4583C40 22.7724 39.7624 23.0378 39.445 23.0781L35.3018 23.6051C34.8807 25.3579 34.2048 26.9248 33.336 28.4103L35.9605 31.7428C36.1545 31.9893 36.1341 32.3383 35.9125 32.5613L32.6005 35.8947C32.3722 36.1244 32.0037 36.1472 31.7479 35.9474L28.3727 33.313C26.904 34.2306 25.259 34.8922 23.5482 35.3024L23.0098 39.4539C22.9693 39.7661 22.6985 40 22.3779 40H17.622C17.3014 40 17.0307 39.7661 16.9902 39.4539L16.4517 35.3024C14.7387 34.8916 13.0917 34.2289 11.6215 33.3094L8.2451 35.8696C7.98909 36.0637 7.6254 36.0386 7.39955 35.8113L4.08748 32.478C3.86591 32.255 3.84547 31.906 4.03953 31.6596L6.64851 28.3463C5.7113 26.9024 5.0373 25.2752 4.68017 23.5195L0.555035 22.9948C0.237573 22.9544 0 22.6891 0 22.375V17.625C0 17.3109 0.237571 17.0455 0.555035 17.0051L4.69824 16.4781C5.11969 14.7253 5.80134 13.1541 6.73914 11.6608L4.12441 8.34045C3.93037 8.09402 3.95082 7.74502 4.17236 7.52203L7.48451 4.1887L7.50605 4.16796C7.73296 3.96001 8.08197 3.9424 8.32998 4.13045L11.706 6.69019C13.1665 5.7708 14.7603 5.10533 16.5371 4.69375L17.0751 0.546059L17.0796 0.517051C17.1325 0.219526 17.3963 0 17.707 0H22.4628ZM17.7443 5.28725C17.71 5.55177 17.5085 5.76581 17.2424 5.8202C15.2847 6.22041 13.5797 6.9384 12.037 7.97416C11.809 8.12722 11.5064 8.1186 11.2878 7.95286L8.00026 5.46011L5.47073 8.00579L8.01994 11.2428C8.18546 11.453 8.19743 11.7429 8.04991 11.9656C6.98628 13.5713 6.25401 15.2495 5.84645 17.1691C5.79114 17.4296 5.57375 17.6273 5.30478 17.6615L1.27383 18.1742V21.8257L5.30478 22.3385C5.5831 22.3739 5.80499 22.5839 5.85115 22.8555C6.17563 24.7659 6.90505 26.5139 7.95669 28.0221C8.11266 28.2458 8.10387 28.5426 7.93498 28.7571L5.38577 31.9941L7.9153 34.5398L11.2029 32.0471L11.2236 32.032C11.4403 31.881 11.7311 31.8776 11.952 32.0258C13.4423 33.0264 15.169 33.7341 16.9867 34.1424L17.1629 34.1809L17.1874 34.1866C17.4387 34.2505 17.6265 34.4584 17.6595 34.7127L18.1832 38.75H21.8168L22.3405 34.7127C22.3746 34.4502 22.5735 34.2371 22.8371 34.1809C24.7193 33.7794 26.5096 33.0587 28.048 32.0258L28.0698 32.0119C28.2977 31.8718 28.5922 31.8871 28.8041 32.0525L32.0902 34.6175L34.6141 32.0774L32.065 28.8405C31.9046 28.6368 31.8879 28.3575 32.0228 28.1368C33.0115 26.5198 33.7458 24.8349 34.1535 22.9142L34.1591 22.89C34.2224 22.6415 34.4347 22.455 34.6952 22.4219L38.7261 21.9091V18.2575L34.6952 17.7448C34.4169 17.7094 34.1949 17.4994 34.1488 17.2277C33.8243 15.3174 33.0949 13.5694 32.0433 12.0612C31.8869 11.8369 31.8962 11.5391 32.0662 11.3246L34.6977 8.00451L32.1695 5.46011L28.8821 7.95286C28.6635 8.1186 28.3609 8.12722 28.1329 7.97416C26.5945 6.94132 24.8042 6.22059 22.922 5.81909C22.6584 5.76286 22.4596 5.54979 22.4255 5.28725L21.9018 1.24995H18.268L17.7443 5.28725Z" fill="white"/>
<path d="M23.0125 13.5416C23.0125 11.8775 21.6746 10.5 19.9127 10.5C18.2168 10.5 16.8129 11.8127 16.8129 13.5416C16.8129 14.1726 17.0316 14.8525 17.4239 15.3015C17.6528 15.5636 17.6219 15.9582 17.3548 16.1828C17.0877 16.4075 16.6856 16.3771 16.4567 16.115C15.8299 15.3974 15.5391 14.4106 15.5391 13.5416C15.5391 11.1039 17.5322 9.25001 19.9127 9.25C22.397 9.25 24.2864 11.2058 24.2864 13.5416C24.2864 14.5021 23.9909 15.4028 23.3688 16.115C23.1398 16.3771 22.7376 16.4075 22.4706 16.1828C22.2035 15.9582 22.1726 15.5636 22.4015 15.3015C22.7984 14.8472 23.0125 14.2478 23.0125 13.5416Z" fill="white"/>
<path d="M21.3984 18.542C21.3984 18.1968 21.6836 17.917 22.0354 17.917C22.3871 17.917 22.6723 18.1968 22.6723 18.542C22.6723 19.9939 22.8365 21.3625 23.1649 22.7322C23.4878 24.0784 24.0564 25.3608 24.7282 26.6791C24.8855 26.9879 24.7579 27.3633 24.4433 27.5176C24.1287 27.672 23.7461 27.5469 23.5888 27.2381C22.9017 25.8898 22.2815 24.5055 21.9249 23.0184C21.5739 21.5548 21.3984 20.0901 21.3984 18.542Z" fill="white"/>
<path d="M17.3235 18.542C17.3235 18.1968 17.6086 17.917 17.9604 17.917C18.3121 17.917 18.5973 18.1968 18.5973 18.542C18.5973 21.5646 17.8056 24.5846 16.3108 27.2592C16.1417 27.5618 15.7545 27.6726 15.4461 27.5067C15.1376 27.3407 15.0247 26.9608 15.1938 26.6581C16.5865 24.1661 17.3235 21.3527 17.3235 18.542Z" fill="white"/>
<path d="M24.968 28.0432C24.968 27.8051 24.7436 27.5849 24.5009 27.5849H15.4988C15.2561 27.5849 15.0317 27.8051 15.0316 28.0432V29.6683H24.968V28.0432ZM26.2418 30.2933C26.2418 30.6384 25.9567 30.9182 25.6049 30.9182H14.3947C14.043 30.9182 13.7578 30.6384 13.7578 30.2933V28.0432C13.7578 27.1147 14.5526 26.335 15.4988 26.335H24.5009C25.4472 26.335 26.2418 27.1147 26.2418 28.0432V30.2933Z" fill="white"/>
<path d="M24.1178 17.1237C24.1178 16.6946 23.7843 16.332 23.3111 16.332H16.7717C16.23 16.332 15.9257 16.7418 15.9611 17.0546C15.9637 17.0775 15.965 17.1006 15.965 17.1237C15.965 17.5528 16.2985 17.9153 16.7717 17.9153H23.3111C23.7484 17.9153 24.1178 17.588 24.1178 17.1237ZM25.3917 17.1237C25.3917 18.326 24.4024 19.1653 23.3111 19.1654H16.7717C15.5593 19.1653 14.7093 18.2148 14.6915 17.1574C14.5817 15.9872 15.6265 15.0821 16.7717 15.082H23.3111C24.5363 15.082 25.3917 16.0528 25.3917 17.1237Z" fill="white"/>
<path d="M10.1914 20.0397C10.1914 17.3672 11.2826 14.9601 13.0956 13.1811C13.3443 12.937 13.7476 12.937 13.9963 13.1811C14.245 13.4252 14.245 13.8209 13.9963 14.065C12.4123 15.6193 11.4652 17.7122 11.4652 20.0397C11.4652 22.0585 12.1763 23.9161 13.4387 25.3871C13.6653 25.6511 13.6308 26.0455 13.3617 26.2678C13.0927 26.4901 12.6909 26.4563 12.4643 26.1923C11.0091 24.4967 10.1914 22.3542 10.1914 20.0397Z" fill="white"/>
<path d="M28.536 20.0397C28.536 17.7122 27.5889 15.6193 26.0049 14.065C25.7562 13.8209 25.7562 13.4252 26.0049 13.1811C26.2537 12.937 26.657 12.937 26.9057 13.1811C28.7187 14.9601 29.8099 17.3672 29.8099 20.0397C29.8099 22.3542 28.9922 24.4967 27.537 26.1923C27.3104 26.4564 26.9086 26.4902 26.6395 26.2678C26.3704 26.0455 26.336 25.6511 26.5626 25.3871C27.825 23.9161 28.536 22.0585 28.536 20.0397Z" fill="white"/>
</svg>
