<svg width="40" height="40" viewBox="0 0 40 40" fill="none" xmlns="http://www.w3.org/2000/svg">
<path d="M25.9987 20.6865C30.7301 20.6865 34.5794 17.0196 34.5794 12.5126C34.5794 8.00549 30.7301 4.33866 25.9987 4.33866C21.2672 4.33866 17.418 8.00549 17.418 12.5126C17.418 17.0196 21.2673 20.6865 25.9987 20.6865ZM20.9518 17.6814C21.4664 15.4259 23.5425 13.8172 25.9987 13.8172C28.4549 13.8172 30.5309 15.4259 31.0456 17.6814C29.7211 18.8558 27.9466 19.5754 25.9987 19.5754C24.0508 19.5754 22.2763 18.8558 20.9518 17.6814ZM25.9987 12.6884C24.8099 12.6884 23.8428 11.7672 23.8428 10.6348C23.8428 9.5024 24.8099 8.58121 25.9987 8.58121C27.1874 8.58121 28.1545 9.5024 28.1545 10.6348C28.1545 11.7672 27.1874 12.6884 25.9987 12.6884ZM25.9987 5.44969C30.0869 5.44969 33.413 8.61803 33.413 12.5125C33.413 14.0811 32.8731 15.5318 31.9614 16.7052C31.5943 15.7306 30.9666 14.8529 30.1312 14.1672C29.5376 13.6799 28.8581 13.3069 28.1309 13.0593C28.8578 12.4783 29.3209 11.6072 29.3209 10.6347C29.3209 8.8897 27.8306 7.47002 25.9987 7.47002C24.1667 7.47002 22.6764 8.8897 22.6764 10.6347C22.6764 11.6072 23.1396 12.4783 23.8666 13.0593C23.1393 13.3069 22.4598 13.6799 21.8662 14.1672C21.0309 14.853 20.4031 15.7306 20.036 16.7052C19.1243 15.5318 18.5844 14.0811 18.5844 12.5125C18.5844 8.61803 21.9104 5.44969 25.9987 5.44969ZM39.5616 25.2896C38.9931 24.6747 37.8411 24.3721 36.5494 25.0825C34.938 25.9687 30.9361 27.8277 27.9341 28.914C28.0516 28.382 27.9571 27.8243 27.65 27.3319C27.2083 26.6239 26.4316 26.2183 25.5713 26.2454C21.8577 26.2437 19.4545 25.2941 17.334 24.4562C15.4062 23.6944 13.7414 23.0364 11.7717 23.4906C9.78296 23.9491 7.66593 25.5197 4.93388 28.5686C4.22828 28.2456 3.35531 28.3605 2.77119 28.9169L0.170774 31.394C-0.0569248 31.611 -0.0569248 31.9628 0.170774 32.1797L8.20948 39.8373C8.31887 39.9414 8.46717 40 8.62188 40C8.7766 40 8.9249 39.9414 9.03429 39.8373L11.6347 37.3601C11.9917 37.0199 12.1884 36.5664 12.1884 36.0831C12.1884 35.8581 12.1441 35.6402 12.0625 35.4365C13.7225 34.7741 15.5731 34.7168 17.9381 34.8517C18.4697 34.8821 19.0276 34.9248 19.6183 34.9701C21.0199 35.0777 22.4695 35.189 23.8696 35.1594C26.8118 35.0975 28.5826 34.3103 30.9482 33.1165C33.3593 31.8999 38.5014 28.9945 39.4621 27.7916C40.1413 26.9409 40.1804 25.9589 39.5616 25.2897V25.2896ZM10.8099 36.5744L8.6218 38.6587L1.40791 31.7868L3.59601 29.7024C3.88036 29.4315 4.34317 29.4315 4.62761 29.7024L10.81 35.5917C10.9467 35.722 11.022 35.8964 11.022 36.083C11.022 36.2696 10.9466 36.4441 10.8099 36.5744ZM38.5338 27.1189C37.8575 27.9656 33.5324 30.5551 30.4022 32.1346C28.1839 33.254 26.529 33.9919 23.8436 34.0485C22.503 34.0766 21.0841 33.9678 19.7119 33.8625C19.115 33.8167 18.5512 33.7735 18.0077 33.7425C15.9093 33.6229 13.5096 33.5807 11.3404 34.5259L5.83142 29.2781C11.234 23.2493 13.2567 24.048 16.887 25.4825C19 26.3175 21.6296 27.3566 25.5813 27.3566C25.5887 27.3566 25.596 27.3564 25.6033 27.3562C26.0365 27.3405 26.4252 27.5438 26.6471 27.8995C26.8691 28.2552 26.8698 28.6788 26.6491 29.0324C26.2471 29.6768 24.792 30.0112 22.7573 29.9263C20.8494 29.847 18.9292 29.4128 18.175 29.0389C17.8893 28.8974 17.5371 29.0031 17.3884 29.2753C17.2397 29.5474 17.3508 29.8829 17.6365 30.0246C18.6585 30.5313 20.7907 30.9567 22.7065 31.0364C22.9204 31.0453 23.1416 31.0505 23.3668 31.0505C24.3874 31.0505 25.4888 30.9436 26.3574 30.5949C29.3903 29.7805 35.0478 27.1912 37.1324 26.0447C37.8489 25.6506 38.4401 25.7577 38.6862 26.0239C38.9286 26.2861 38.8716 26.6954 38.5335 27.1188L38.5338 27.1189ZM11.8933 23.1162C13.7194 23.1162 15.3335 22.2372 16.2955 20.9004C16.4176 21.0583 16.5546 21.2116 16.7108 21.3603C17.6456 22.2507 18.7886 22.5723 20.206 22.3435C21.2283 22.1785 22.1971 22.5608 22.7975 23.3661C23.6299 24.4825 24.677 25.0252 25.9988 25.0252C27.3206 25.0252 28.3678 24.4825 29.2001 23.3661C29.8006 22.5608 30.7693 22.1787 31.7918 22.3435C33.2089 22.572 34.3525 22.2504 35.2868 21.3603C36.2216 20.4698 36.5592 19.3807 36.3189 18.0308C36.1457 17.0569 36.5471 16.1342 37.3924 15.5622C38.5644 14.7692 39.1341 13.7717 39.1341 12.5126C39.1341 11.2536 38.5644 10.256 37.3924 9.46303C36.5471 8.89105 36.1458 7.96827 36.3191 6.9943C36.559 5.64406 36.2214 4.55501 35.2868 3.66485C34.352 2.77437 33.2086 2.45262 31.7917 2.68167C30.7694 2.84643 29.8006 2.46437 29.2002 1.65913C28.3679 0.5427 27.3207 0 25.9989 0C24.6771 0 23.6299 0.5427 22.7975 1.65913C22.1971 2.46437 21.2281 2.84667 20.206 2.68159C18.7888 2.4531 17.6453 2.77477 16.7108 3.66485C15.776 4.55533 15.4384 5.64446 15.6788 6.99438C15.852 7.96819 15.4507 8.89105 14.6053 9.46303C13.4333 10.256 12.8636 11.2535 12.8636 12.5126C12.8636 12.6956 12.8773 12.8731 12.9016 13.0461C12.5749 12.9863 12.2382 12.9538 11.8935 12.9538C8.95223 12.9538 6.55935 15.2333 6.55935 18.0351C6.55935 20.8369 8.95223 23.1164 11.8935 23.1164L11.8933 23.1162ZM14.0298 12.5126C14.0298 11.6152 14.4156 10.9541 15.2806 10.3688C16.4997 9.54399 17.0784 8.21311 16.8286 6.80859C16.6513 5.81231 16.8692 5.08509 17.5355 4.45049C18.2104 3.80755 18.9507 3.6062 20.0111 3.77707C21.4856 4.01509 22.8825 3.46382 23.7484 2.30247C24.3628 1.4785 25.0568 1.11103 25.9988 1.11103C26.9409 1.11103 27.6349 1.4785 28.2492 2.30247C29.1151 3.46382 30.5122 4.01509 31.9866 3.77715C33.0323 3.60826 33.7958 3.81588 34.4621 4.45049C35.1371 5.09342 35.3485 5.79874 35.169 6.80874C34.9192 8.21319 35.4979 9.54407 36.717 10.3689C37.582 10.9541 37.9677 11.6153 37.9677 12.5126C37.9677 13.41 37.582 14.0711 36.717 14.6563C35.4979 15.4812 34.9191 16.8121 35.1689 18.2165C35.3462 19.2127 35.1283 19.94 34.4621 20.5746C33.7872 21.2176 33.0469 21.4189 31.9865 21.2481C30.5124 21.0102 29.1151 21.5615 28.2492 22.7227C27.6349 23.5467 26.9409 23.9141 25.9988 23.9141C25.0568 23.9141 24.3628 23.5467 23.7484 22.7227C22.8825 21.5614 21.4853 21.01 20.011 21.2481C18.9652 21.417 18.2017 21.2093 17.5356 20.5747C17.2514 20.304 17.0518 20.0203 16.9276 19.712C17.1211 19.1866 17.2275 18.6226 17.2275 18.035C17.2275 16.0226 15.9929 14.2797 14.2074 13.4573C14.0887 13.1753 14.0298 12.8647 14.0298 12.5126ZM11.8933 14.0649C14.1914 14.0649 16.0611 15.8458 16.0611 18.035C16.0611 20.2242 14.1915 22.0052 11.8933 22.0052C9.59517 22.0052 7.72558 20.2242 7.72558 18.035C7.72558 15.8458 9.59525 14.0649 11.8933 14.0649ZM9.34589 17.9188C9.18484 17.6531 9.2804 17.3133 9.55934 17.1599C9.83819 17.0065 10.1949 17.0975 10.356 17.3632L11.0763 18.5517L13.5233 16.2207C13.7511 16.0038 14.1203 16.0039 14.348 16.2207C14.5757 16.4377 14.5757 16.7895 14.348 17.0064L11.3636 19.8492C11.2535 19.9541 11.1049 20.0119 10.9513 20.0119C10.926 20.0119 10.9005 20.0104 10.8751 20.0072C10.6953 19.9846 10.5368 19.8838 10.4462 19.7342L9.34589 17.9188Z" fill="white"/>
</svg>
