<svg width="60" height="60" viewBox="0 0 60 60" fill="none" xmlns="http://www.w3.org/2000/svg">
<path d="M33.4802 1.14062C33.9333 1.14062 34.3157 1.47746 34.3729 1.92695L35.1338 7.90511C37.5542 8.49654 39.8815 9.45085 41.9589 10.7749L46.7299 7.08846L46.7643 7.06317C47.1236 6.81147 47.6154 6.85526 47.9246 7.17235L52.6046 11.9723C52.9184 12.2942 52.9465 12.7983 52.6706 13.1531L48.8668 18.0435C50.1905 20.1223 51.1425 22.4649 51.647 24.9924L57.4759 25.7481C57.9245 25.8062 58.2602 26.1883 58.2602 26.6406V33.4806C58.2602 33.9329 57.9245 34.315 57.4759 34.3731L51.6216 35.132C51.0266 37.656 50.0716 39.9122 48.844 42.0514L52.5523 46.8503C52.8266 47.2051 52.7977 47.7078 52.4846 48.0289L47.8046 52.8289C47.4821 53.1597 46.9615 53.1925 46.5999 52.9049L41.8308 49.1113C39.7555 50.4327 37.4312 51.3853 35.0138 51.976L34.253 57.9542C34.1958 58.4037 33.8133 58.7406 33.3601 58.7406H26.6402C26.1871 58.7406 25.8046 58.4037 25.7474 57.9542L24.9865 51.976C22.566 51.3845 20.2387 50.4303 18.1614 49.1061L13.3905 52.7927C13.0288 53.0723 12.5149 53.0362 12.1958 52.7088L7.51584 47.9089C7.20276 47.5877 7.17388 47.0852 7.44809 46.7303L11.1346 41.9593C9.81029 39.8801 8.85794 37.5368 8.35332 35.0086L2.5245 34.2531C2.07593 34.1949 1.74023 33.8129 1.74023 33.3605V26.5206C1.74023 26.0683 2.07592 25.6862 2.5245 25.628L8.37884 24.869C8.97435 22.3451 9.93752 20.0826 11.2626 17.9322L7.56802 13.1509C7.29384 12.796 7.32273 12.2934 7.63577 11.9723L12.3158 7.17235L12.3463 7.14248C12.6669 6.84304 13.16 6.81767 13.5105 7.08846L18.2808 10.7745C20.3444 9.45058 22.5965 8.49229 25.1071 7.89962L25.8674 1.92695L25.8736 1.88518C25.9485 1.45674 26.3212 1.14062 26.7602 1.14062H33.4802ZM26.813 8.75426C26.7645 9.13516 26.4797 9.44338 26.1038 9.52171C23.3375 10.098 20.9283 11.1319 18.7484 12.6234C18.4263 12.8438 17.9987 12.8314 17.6899 12.5927L13.0446 9.00317L9.47038 12.6689L13.0724 17.3302C13.3063 17.6329 13.3232 18.0504 13.1147 18.3711C11.6118 20.6832 10.5771 23.0999 10.0013 25.8641C9.9231 26.2393 9.61594 26.5239 9.23589 26.5732L3.54016 27.3114V32.5696L9.23589 33.308C9.62916 33.359 9.94268 33.6614 10.0079 34.0526C10.4664 36.8035 11.4971 39.3206 12.983 41.4924C13.2034 41.8145 13.191 42.242 12.9524 42.5508L9.35033 47.2121L12.9245 50.8779L17.5699 47.2885L17.5992 47.2667C17.9054 47.0492 18.3163 47.0443 18.6284 47.2578C20.7342 48.6986 23.1741 49.7177 25.7424 50.3056L25.9914 50.3611L26.026 50.3693C26.3811 50.4613 26.6464 50.7606 26.693 51.1269L27.433 56.9406H32.5674L33.3074 51.1269C33.3555 50.7489 33.6366 50.4421 34.009 50.3611C36.6685 49.7829 39.1983 48.7451 41.372 47.2578L41.4028 47.2377C41.7249 47.036 42.141 47.058 42.4405 47.2962L47.0837 50.9897L50.6499 47.3321L47.0481 42.6709C46.8215 42.3776 46.7978 41.9753 46.9885 41.6575C48.3855 39.3291 49.423 36.9028 49.9992 34.137L50.0071 34.1021C50.0965 33.7443 50.3964 33.4758 50.7645 33.4281L56.4602 32.6897V27.4314L50.7645 26.6931C50.3713 26.6421 50.0576 26.3397 49.9924 25.9486C49.5339 23.1976 48.5034 20.6805 47.0174 18.5088C46.7964 18.1857 46.8095 17.7569 47.0498 17.448L50.7681 12.6671L47.1957 9.00317L42.5506 12.5927C42.2417 12.8314 41.8141 12.8438 41.492 12.6234C39.3183 11.1361 36.7885 10.0983 34.129 9.5201C33.7566 9.43913 33.4756 9.13231 33.4274 8.75426L32.6875 2.94055H27.553L26.813 8.75426Z" fill="white"/>
<path d="M34.2601 20.6409C34.2601 18.2445 32.3697 16.2609 29.8801 16.2609C27.4838 16.2609 25.5001 18.1513 25.5001 20.6409C25.5001 21.5495 25.8092 22.5285 26.3635 23.1752C26.6869 23.5525 26.6432 24.1207 26.2658 24.4442C25.8885 24.7677 25.3203 24.724 24.9968 24.3466C24.1111 23.3132 23.7002 21.8922 23.7002 20.6409C23.7002 17.1305 26.5165 14.461 29.8801 14.4609C33.3905 14.4609 36.0601 17.2772 36.0602 20.6409C36.0602 22.024 35.6427 23.3209 34.7635 24.3466C34.4401 24.724 33.8718 24.7677 33.4944 24.4442C33.117 24.1207 33.0733 23.5525 33.3968 23.1752C33.9576 22.5208 34.2601 21.6577 34.2601 20.6409Z" fill="white"/>
<path d="M31.9805 27.8414C31.9805 27.3443 32.3834 26.9414 32.8804 26.9414C33.3775 26.9414 33.7804 27.3443 33.7804 27.8414C33.7804 29.9321 34.0125 31.903 34.4765 33.8753C34.9327 35.8138 35.7362 37.6605 36.6854 39.5589C36.9077 40.0034 36.7275 40.544 36.2829 40.7663C35.8383 40.9886 35.2977 40.8084 35.0754 40.3638C34.1046 38.4223 33.2282 36.4289 32.7243 34.2875C32.2284 32.1798 31.9805 30.0706 31.9805 27.8414Z" fill="white"/>
<path d="M26.2208 27.8414C26.2208 27.3443 26.6237 26.9414 27.1208 26.9414C27.6178 26.9414 28.0207 27.3443 28.0207 27.8414C28.0207 32.194 26.902 36.5427 24.7899 40.3942C24.551 40.83 24.0039 40.9895 23.5681 40.7505C23.1323 40.5115 22.9726 39.9645 23.2116 39.5286C25.1795 35.9401 26.2208 31.8888 26.2208 27.8414Z" fill="white"/>
<path d="M37.0207 41.5224C37.0206 41.1795 36.7036 40.8625 36.3607 40.8624H23.6407C23.2978 40.8624 22.9806 41.1795 22.9806 41.5224V43.8625H37.0207V41.5224ZM38.8206 44.7625C38.8206 45.2595 38.4177 45.6624 37.9206 45.6624H22.0806C21.5836 45.6624 21.1807 45.2595 21.1807 44.7625V41.5224C21.1807 40.1854 22.3036 39.0625 23.6407 39.0625H36.3607C37.6977 39.0625 38.8206 40.1854 38.8206 41.5224V44.7625Z" fill="white"/>
<path d="M35.8208 25.7994C35.8208 25.1814 35.3495 24.6593 34.6808 24.6593H25.4408C24.6753 24.6593 24.2453 25.2495 24.2953 25.6999C24.299 25.7329 24.3008 25.7662 24.3008 25.7994C24.3008 26.4173 24.7721 26.9393 25.4408 26.9393H34.6808C35.2988 26.9393 35.8208 26.468 35.8208 25.7994ZM37.6208 25.7994C37.6208 27.5307 36.2229 28.7393 34.6808 28.7393H25.4408C23.7277 28.7393 22.5265 27.3706 22.5015 25.8479C22.3463 24.1629 23.8226 22.8594 25.4408 22.8594H34.6808C36.4122 22.8594 37.6208 24.2573 37.6208 25.7994Z" fill="white"/>
<path d="M16.1406 29.9993C16.1406 26.1509 17.6825 22.6847 20.2442 20.123C20.5957 19.7715 21.1655 19.7715 21.5169 20.123C21.8684 20.4744 21.8684 21.0443 21.5169 21.3958C19.2788 23.634 17.9406 26.6477 17.9406 29.9993C17.9406 32.9065 18.9452 35.5813 20.729 37.6996C21.0492 38.0798 21.0005 38.6477 20.6203 38.9678C20.2401 39.288 19.6723 39.2393 19.3522 38.8591C17.296 36.4174 16.1406 33.3322 16.1406 29.9993Z" fill="white"/>
<path d="M42.0607 29.9993C42.0607 26.6478 40.7225 23.634 38.4843 21.3958C38.1328 21.0443 38.1328 20.4745 38.4843 20.123C38.8358 19.7715 39.4056 19.7715 39.7571 20.123C42.3189 22.6848 43.8607 26.151 43.8607 29.9993C43.8607 33.3322 42.7054 36.4174 40.6492 38.8591C40.329 39.2393 39.7612 39.288 39.381 38.9678C39.0007 38.6477 38.9522 38.0798 39.2723 37.6996C41.0561 35.5814 42.0607 32.9065 42.0607 29.9993Z" fill="white"/>
</svg>
