<svg width="60" height="60" viewBox="0 0 60 60" fill="none" xmlns="http://www.w3.org/2000/svg">
<path fill-rule="evenodd" clip-rule="evenodd" d="M12.3126 48.7012L11.5055 49.1672C8.16605 51.0952 3.8584 49.937 1.93311 46.6022C0.00781525 43.2677 1.15864 38.9579 4.49805 37.0299C5.40405 36.5068 9.02793 34.4146 9.93405 33.8914C13.2611 30.9058 15.6832 26.7398 17.8305 23.0113C17.8385 22.9954 17.847 22.9797 17.8559 22.9642C18.0528 22.6219 18.2485 22.2835 18.4423 21.9502C18.6765 21.5455 18.9081 21.1483 19.1378 20.7605C19.1384 20.7594 19.1391 20.7584 19.1397 20.7573L19.1402 20.7565C19.6628 19.8767 20.5344 19.3839 21.5522 19.3911C22.5698 19.3983 23.4382 19.9026 23.9459 20.7821L27.3335 26.6495C29.3629 25.8992 31.6975 26.6964 32.8159 28.6334C33.9343 30.5706 33.4573 32.991 31.7928 34.3733L35.1803 40.2407C35.7031 41.1461 35.6904 42.1845 35.1486 43.0758C34.6077 43.9657 33.7016 44.4551 32.6569 44.414H32.6563L32.6548 44.4139C32.223 44.3972 31.7895 44.38 31.3545 44.3645C26.9392 44.2132 22.365 44.2632 17.9393 45.6812L22.903 54.2784C23.1629 54.7285 23.0086 55.3041 22.5584 55.564L21.5477 56.1477C19.5101 57.324 16.885 56.6206 15.7085 54.5831L12.3126 48.7012ZM10.1439 35.9438L5.43923 38.66C2.99676 40.0701 2.15523 43.2222 3.56323 45.6611C4.97134 48.1 8.12193 48.9472 10.5643 47.5371L15.269 44.8207L10.1439 35.9438ZM18.6677 25.3087C16.7225 28.6275 14.5159 32.1347 11.6801 34.8398L16.9781 44.0161C20.7857 42.731 24.7024 42.4195 28.5515 42.4279L18.6677 25.3087ZM33.5502 41.1819L22.3157 21.7233C22.1511 21.4381 21.8689 21.2757 21.539 21.2733C21.2096 21.2711 20.9288 21.4322 20.7593 21.7165L20.7586 21.7177C20.4331 22.272 20.0981 22.8458 19.7584 23.4332L30.7439 42.4607C31.0615 42.4705 31.3784 42.4815 31.6946 42.4933C32.0406 42.5055 32.3857 42.519 32.7297 42.5331H32.7305C33.07 42.5465 33.3644 42.3872 33.5402 42.098C33.7152 41.81 33.7191 41.4745 33.5502 41.1819ZM30.8273 32.7012C31.6019 31.874 31.7817 30.6068 31.1857 29.5746C30.5898 28.5424 29.4025 28.0645 28.2989 28.3217L30.8273 32.7012ZM13.9429 47.76L17.3388 53.6419C17.9971 54.7821 19.4662 55.1758 20.6065 54.5174L20.8022 54.4045L16.2102 46.451L13.9429 47.76ZM59.3523 15.7451C59.3523 17.3197 58.0683 18.6007 56.4937 18.6007H48.2328L44.7597 22.2161C44.4936 22.4932 44.0858 22.5806 43.7296 22.4372C43.3732 22.2938 43.1398 21.9482 43.1398 21.5641V18.6007H42.4593C40.8848 18.6007 39.6008 17.3197 39.6008 15.7451V6.14037C39.6008 4.56613 40.8852 3.28166 42.4593 3.28166H56.4937C58.0678 3.28166 59.3523 4.56613 59.3523 6.14037V15.7451ZM57.4699 15.7451V6.14037C57.4699 5.60272 57.0312 5.16401 56.4937 5.16401H42.4593C41.9218 5.16401 41.4831 5.60272 41.4831 6.14037V15.7451C41.4831 16.2822 41.9222 16.7184 42.4593 16.7184H44.081C44.6008 16.7184 45.0222 17.1398 45.0222 17.6595V19.2258L47.153 17.0075C47.3305 16.8228 47.5756 16.7184 47.8317 16.7184H56.4937C57.0309 16.7184 57.4699 16.2822 57.4699 15.7451ZM44.2782 8.87425C43.7588 8.87425 43.337 8.45248 43.337 7.93307C43.337 7.41366 43.7588 6.9919 44.2782 6.9919H54.5065C55.026 6.9919 55.4477 7.41366 55.4477 7.93307C55.4477 8.45248 55.026 8.87425 54.5065 8.87425H44.2782ZM44.2782 11.9172C43.7588 11.9172 43.337 11.4955 43.337 10.976C43.337 10.4566 43.7588 10.0348 44.2782 10.0348H54.5065C55.026 10.0348 55.4477 10.4566 55.4477 10.976C55.4477 11.4955 55.026 11.9172 54.5065 11.9172H44.2782ZM44.2782 14.9573C43.7588 14.9573 43.337 14.5355 43.337 14.0161C43.337 13.4967 43.7588 13.075 44.2782 13.075H54.5065C55.026 13.075 55.4477 13.4967 55.4477 14.0161C55.4477 14.5355 55.026 14.9573 54.5065 14.9573H44.2782ZM50.476 23.7661C55.375 23.7661 59.3523 27.7434 59.3523 32.6424C59.3523 37.5413 55.375 41.5186 50.476 41.5186C45.5771 41.5186 41.5998 37.5413 41.5998 32.6424C41.5998 27.7434 45.5771 23.7661 50.476 23.7661ZM50.476 25.6485C46.6159 25.6485 43.4822 28.7824 43.4822 32.6424C43.4822 36.5025 46.6159 39.6362 50.476 39.6362C54.336 39.6362 57.4699 36.5025 57.4699 32.6424C57.4699 28.7824 54.336 25.6485 50.476 25.6485ZM54.5629 33.4574L48.8373 36.7631C48.5462 36.9312 48.1873 36.9312 47.8962 36.7631C47.605 36.595 47.4256 36.2843 47.4256 35.948V29.3367C47.4256 29.0005 47.605 28.6898 47.8962 28.5217C48.1873 28.3535 48.5462 28.3535 48.8373 28.5217L54.5629 31.8273C54.8541 31.9954 55.0335 32.3061 55.0335 32.6424C55.0335 32.9786 54.8541 33.2893 54.5629 33.4574ZM52.2099 32.6424L49.3079 30.967V34.3179L52.2099 32.6424ZM26.2661 19.591C24.3983 18.4926 21.5933 16.5373 19.6281 14.2482C18.2099 12.5964 17.2399 10.7622 17.2068 8.94943C17.1578 6.23578 18.6879 4.28237 20.7743 3.57166C22.5846 2.95496 24.8685 3.27296 26.9196 4.98496C28.9706 3.27496 31.2548 2.95684 33.0658 3.57296C35.1535 4.28307 36.6845 6.23554 36.6355 8.94931C36.6024 10.7621 35.6323 12.5964 34.2142 14.2482C32.249 16.5373 29.4439 18.4926 27.5769 19.5906C27.1626 19.8374 26.6804 19.8375 26.2661 19.591ZM26.9211 17.7899C28.6443 16.7465 31.0653 15.0262 32.7861 13.022C33.8945 11.7308 34.7276 10.3321 34.7535 8.91519C34.7856 7.13425 33.8296 5.82107 32.4596 5.35496C31.013 4.86296 29.1803 5.30801 27.5903 6.92437C27.4132 7.10425 27.1715 7.20554 26.9191 7.20543C26.6668 7.20543 26.425 7.10401 26.2481 6.92401C24.6583 5.30637 22.8268 4.86107 21.3812 5.35343C20.0118 5.8199 19.0568 7.13413 19.0889 8.91519C19.1148 10.3321 19.9478 11.7308 21.0563 13.022C22.7769 15.0262 25.1981 16.7465 26.9211 17.7899ZM31.8351 23.1631C31.7006 23.6648 31.1841 23.9631 30.6824 23.8286C30.1806 23.6941 29.8824 23.1777 30.0169 22.6759L30.9152 19.3232C31.0497 18.8214 31.5662 18.5232 32.0679 18.6577C32.5697 18.7921 32.8678 19.3086 32.7335 19.8104L31.8351 23.1631ZM36.566 34.0688C36.0644 33.9339 35.7668 33.4171 35.9017 32.9154C36.0366 32.4139 36.5535 32.1161 37.055 32.2511L40.4102 33.1537C40.9118 33.2886 41.2095 33.8053 41.0745 34.307C40.9396 34.8086 40.4229 35.1063 39.9212 34.9713L36.566 34.0688ZM36.4576 27.6399C36.0077 27.8995 35.4317 27.7452 35.1719 27.2954C34.9122 26.8455 35.0665 26.2694 35.5164 26.0097L38.5279 24.271C38.9778 24.0113 39.5539 24.1657 39.8136 24.6154C40.0733 25.0653 39.919 25.6414 39.4691 25.9012L36.4576 27.6399Z" fill="white"/>
</svg>
