<svg width="60" height="60" viewBox="0 0 60 60" fill="none" xmlns="http://www.w3.org/2000/svg">
<path d="M26.1015 9.02608C26.1015 8.45623 26.5627 7.9942 27.1315 7.9942H43.2404C43.8092 7.9942 44.2704 8.45623 44.2704 9.02608C44.2704 9.59593 43.8092 10.058 43.2404 10.058H27.1315C26.5627 10.058 26.1015 9.59606 26.1015 9.02608ZM17.61 11.2267C17.8111 11.4282 18.0747 11.5289 18.3383 11.5289C18.602 11.5289 18.8656 11.4282 19.0667 11.2267L22.2241 8.0636C22.6264 7.66065 22.6263 7.00734 22.2241 6.6044C21.8218 6.20145 21.1697 6.20145 20.7675 6.6044L18.3385 9.03795L17.4881 8.186C17.0858 7.78306 16.4337 7.78306 16.0315 8.186C15.6292 8.58895 15.6293 9.24226 16.0315 9.64521L17.61 11.2267ZM27.1315 21.0638H43.2404C43.8092 21.0638 44.2704 20.6018 44.2704 20.0319C44.2704 19.4621 43.8092 19.0001 43.2404 19.0001H27.1315C26.5627 19.0001 26.1015 19.4621 26.1015 20.0319C26.1015 20.6018 26.5627 21.0638 27.1315 21.0638ZM17.61 22.3431C17.8111 22.5446 18.0747 22.6453 18.3383 22.6453C18.602 22.6453 18.8656 22.5446 19.0667 22.3431L22.2241 19.18C22.6264 18.7771 22.6263 18.1237 22.2241 17.7208C21.8218 17.3179 21.1697 17.3179 20.7675 17.7208L18.3385 20.1544L17.4881 19.3024C17.0858 18.8995 16.4337 18.8995 16.0315 19.3024C15.6292 19.7054 15.6293 20.3587 16.0315 20.7616L17.61 22.3431ZM58.4631 40.6482L53.9082 43.2826C53.4365 43.5555 52.9121 43.6948 52.3798 43.6948C52.1116 43.6948 51.8416 43.6596 51.5753 43.588C50.7803 43.3747 50.1169 42.8656 49.7073 42.155L49.5827 41.9388L47.2786 43.1175C47.9675 44.2118 47.8679 45.5612 47.2625 46.6039C46.9581 47.128 46.5232 47.5796 46.0021 47.8914C46.3043 48.387 46.4649 48.9552 46.4627 49.5603C46.458 50.8144 45.7531 52.0272 44.6667 52.6502C44.0631 52.9963 43.3955 53.1305 42.7272 53.0532C42.693 53.6158 42.52 54.1686 42.2374 54.6548C41.6398 55.6828 40.5395 56.4264 39.274 56.3939C39.2604 57.0015 39.0834 57.603 38.7787 58.127C38.1949 59.1309 37.1328 59.8673 35.9035 59.8673C35.3436 59.8673 34.7489 59.7144 34.149 59.3645L31.4287 57.7776L30.8996 58.5314C30.2366 59.4756 29.2652 60 28.2004 60C28.1028 60 28.0045 59.9956 27.9055 59.9867C26.6843 59.877 25.5597 59.1001 25.0193 57.9991C23.8719 58.593 22.5376 58.3769 21.552 57.6824C20.9156 57.2339 20.4172 56.581 20.1898 55.8293C19.2436 56.0366 18.2525 55.7862 17.477 55.2397C16.5111 54.559 15.8635 53.4072 15.9983 52.1543C15.391 52.0904 14.8037 51.8615 14.3055 51.5104C12.9247 50.5372 12.1946 48.6009 13.4709 46.7832L13.5584 46.6585L10.1438 42.3866C9.73105 42.9758 9.1303 43.3988 8.42487 43.5881C8.15861 43.6597 7.88836 43.6949 7.6203 43.6949C7.08804 43.6949 6.56364 43.5556 6.09177 43.2827L1.53706 40.6482C0.0685194 39.799 -0.436444 37.911 0.411384 36.4397L8.4053 22.5687C8.65096 22.1425 8.98391 21.7979 9.36823 21.5431V1.03188C9.36823 0.462023 9.82942 0 10.3982 0H49.6017C50.1706 0 50.6318 0.462023 50.6318 1.03188V21.5431C51.0161 21.7977 51.3492 22.1424 51.5947 22.5686L59.5886 36.4396C60.4364 37.911 59.9315 39.7988 58.4631 40.6482ZM11.4283 2.06375V21.0498C11.8319 21.0968 12.2326 21.2248 12.6062 21.441L17.161 24.0755C17.8705 24.4858 18.3785 25.1503 18.5915 25.9468C18.7242 26.4433 18.7321 26.9527 18.62 27.4382L24.3307 29.4819C26.7394 27.325 28.5161 26.5587 32.1813 27.3669C35.6173 28.1247 38.4994 28.1317 41.3669 27.3757C41.2695 26.909 41.2812 26.422 41.4084 25.9467C41.6214 25.1502 42.1294 24.4855 42.839 24.0754L47.3937 21.4408C47.7673 21.2247 48.168 21.0968 48.5716 21.0498V2.06375H11.4283ZM8.50869 41.1231L16.5026 27.2521C16.637 27.0188 16.6723 26.7449 16.6017 26.481C16.5312 26.2171 16.3639 25.9975 16.131 25.8628L11.5763 23.2283C11.4169 23.1361 11.2425 23.0922 11.0703 23.0922C10.7191 23.0922 10.3773 23.2747 10.1894 23.6006L2.19549 37.4716C1.91559 37.9573 2.08232 38.5806 2.56707 38.8609L7.12191 41.4955C7.35495 41.6303 7.62841 41.6656 7.89171 41.5947C8.15514 41.524 8.37427 41.3566 8.50869 41.1231ZM17.3437 49.513L19.711 46.1415L19.7113 46.1409C20.4307 45.1129 19.5565 44.4196 19.3739 44.291C19.1912 44.1622 18.2435 43.5728 17.5213 44.6013L15.1557 47.9703C14.4333 48.9992 15.308 49.6935 15.4907 49.8222C15.6733 49.9511 16.6205 50.5408 17.3431 49.5138L17.3437 49.513ZM20.7164 52.9555L24.0232 48.2458L24.526 47.5296C25.2484 46.5007 24.3736 45.8064 24.1909 45.6777C24.008 45.5488 23.06 44.9587 22.3375 45.9875L21.3967 47.3275C21.3966 47.3278 21.3964 47.3279 21.3963 47.3282L21.3959 47.3288L19.0287 50.7003L18.3271 51.6996C17.6047 52.7286 18.4796 53.423 18.6623 53.5517C18.845 53.6803 19.7931 54.2703 20.5155 53.2417L20.7164 52.9555ZM25.3389 54.6179C25.3397 54.6168 25.3405 54.6158 25.3413 54.6148L26.5274 52.9252L27.8957 50.9765C28.6179 49.9478 27.7434 49.2535 27.5608 49.1247C27.3784 48.9962 26.4315 48.4062 25.7092 49.4318L25.7082 49.4333L22.4015 54.1429L22.4008 54.144C21.6802 55.1721 22.5544 55.8659 22.7371 55.9946C22.9198 56.1234 23.868 56.7136 24.5903 55.6847L25.3389 54.6179ZM30.0653 53.8028C29.8826 53.674 28.9351 53.0841 28.2129 54.1119L28.2124 54.1126L27.0262 55.8022C26.7247 56.2317 26.667 56.6554 26.855 57.0616C27.0708 57.5278 27.5784 57.8856 28.0893 57.9313C28.5343 57.9713 28.9129 57.7737 29.2146 57.3442L30.4007 55.6549C31.1228 54.626 30.248 53.9315 30.0653 53.8028ZM45.0143 43.7436L32.2774 36.3575C31.1324 35.6951 30.0005 36.1724 28.2485 37.0055C28.1634 37.0459 28.0784 37.0864 27.9931 37.1267C27.8653 37.3839 27.7363 37.66 27.602 37.9474C26.9405 39.3634 26.1906 40.9681 24.8936 41.6695C23.367 42.4949 22.0047 42.6209 21.0576 42.0239C20.6216 41.7491 19.9009 41.066 19.9713 39.5778L20.244 33.8263C20.2564 33.5642 20.3681 33.3167 20.5563 33.1341C21.0921 32.6144 21.5727 32.1399 22.0376 31.6811C22.2502 31.4713 22.4548 31.2695 22.6545 31.0734L17.7006 29.3005L11.2584 40.4791L14.7925 44.9004L15.8363 43.4137C17.1121 41.5964 19.1775 41.6302 20.5584 42.6022C21.0079 42.9186 21.3885 43.337 21.6534 43.8202C22.8535 43.049 24.3164 43.2427 25.376 43.9894C26.2652 44.6159 26.8846 45.642 26.8724 46.7783C27.5435 46.8121 28.1988 47.0505 28.7465 47.4366C29.9683 48.2981 30.6804 49.9137 29.9432 51.5338C30.4117 51.6379 30.8586 51.8382 31.2506 52.1145C32.4267 52.9435 33.1298 54.4708 32.5246 56.0286L35.1856 57.5809C36.2708 58.2137 36.8863 57.2814 36.9987 57.088C37.1111 56.8948 37.6165 55.8993 36.5341 55.2659L36.5327 55.265C36.5326 55.2649 36.5326 55.2649 36.5323 55.2647C36.5323 55.2647 36.5323 55.2647 36.5322 55.2647L33.1033 53.2647C32.6117 52.978 32.4452 52.3463 32.7315 51.8539C33.0177 51.3614 33.6482 51.1947 34.1399 51.4813L37.5688 53.4815C37.5689 53.4816 37.5692 53.4816 37.5693 53.4818L37.5697 53.482C37.5704 53.4824 37.5712 53.4829 37.572 53.4833L38.6442 54.109C39.7292 54.7417 40.3448 53.8094 40.4573 53.6162C40.5697 53.4228 41.0751 52.4273 39.9926 51.7939L39.9911 51.793C39.991 51.793 39.991 51.7928 39.9908 51.7928C39.9906 51.7927 39.9903 51.7925 39.9901 51.7923L35.7866 49.3403C35.295 49.0536 35.1285 48.422 35.4148 47.9295C35.7011 47.437 36.3316 47.2704 36.8232 47.557L41.0278 50.0096L41.0281 50.0098C41.029 50.0103 41.0296 50.0107 41.0304 50.0112L42.3761 50.7962C42.8293 51.0606 43.2556 51.0816 43.6434 50.8593C44.0886 50.604 44.4008 50.0666 44.4026 49.5528C44.4043 49.1051 44.1754 48.744 43.7223 48.4797L42.6354 47.8457C42.6351 47.8455 42.6348 47.8454 42.6345 47.8451L42.6336 47.8446C42.6335 47.8445 42.6332 47.8444 42.6331 47.8442L38.47 45.416C37.9785 45.1292 37.812 44.4976 38.0982 44.0051C38.3845 43.5127 39.0149 43.346 39.5066 43.6326L43.6697 46.0609C44.7549 46.6924 45.3696 45.7599 45.4818 45.5665C45.5938 45.373 46.0989 44.3764 45.0143 43.7436ZM48.5513 40.1492L42.279 29.2654C37.9531 30.4889 34.221 29.93 31.7385 29.3824C28.112 28.5831 27.2235 29.4601 23.4835 33.1515C23.1188 33.5115 22.7141 33.9108 22.2824 34.3318L22.029 39.676C22.0124 40.0264 22.0801 40.2305 22.1547 40.2775C22.3289 40.3871 22.9612 40.3696 23.9151 39.8536C24.6134 39.476 25.2099 38.1993 25.7363 37.0727C25.9272 36.6639 26.1248 36.2413 26.3283 35.8573C26.434 35.658 26.602 35.499 26.8066 35.4043C26.993 35.3182 27.1792 35.2297 27.365 35.1412C29.1473 34.2935 31.1674 33.3327 33.3084 34.5708L45.5635 41.6774L48.5513 40.1492ZM57.8045 37.4714L49.8107 23.6006C49.5308 23.1148 48.9086 22.9479 48.4238 23.2283L43.869 25.8628C43.6361 25.9975 43.4689 26.2171 43.3982 26.481C43.3277 26.7449 43.3628 27.0188 43.4974 27.2521L51.4913 41.1232C51.6257 41.3566 51.845 41.524 52.1084 41.5947C52.3721 41.6659 52.6452 41.6303 52.8781 41.4955L57.4331 38.861C57.9178 38.5806 58.0845 37.9572 57.8045 37.4714Z" fill="white"/>
</svg>
