<svg width="50" height="50" viewBox="0 0 50 50" fill="none" xmlns="http://www.w3.org/2000/svg">
<path d="M28.0785 0C28.4794 0 28.8177 0.292391 28.8683 0.682573L29.5413 5.87195C31.6826 6.38534 33.7414 7.21374 35.5792 8.36313L39.7998 5.16305L39.8302 5.1411C40.1481 4.92261 40.5832 4.96062 40.8567 5.23587L44.9969 9.40253C45.2744 9.68195 45.2993 10.1195 45.0552 10.4275L41.6902 14.6727C42.8612 16.4771 43.7034 18.5107 44.1497 20.7047L49.3062 21.3606C49.703 21.4111 50 21.7427 50 22.1354V28.0729C50 28.4655 49.703 28.7972 49.3062 28.8477L44.1272 29.5064C43.6008 31.6974 42.756 33.6559 41.67 35.5128L44.9506 39.6785C45.1932 39.9866 45.1676 40.4229 44.8907 40.7016L40.7506 44.8683C40.4653 45.1554 40.0047 45.1839 39.6848 44.9343L35.4659 41.6412C33.63 42.7883 31.5737 43.6152 29.4352 44.1279L28.7622 49.3174C28.7116 49.7076 28.3732 50 27.9723 50H22.0276C21.6267 49.9999 21.2884 49.7076 21.2378 49.3174L20.5647 44.1279C18.4234 43.6145 16.3646 42.7861 14.5268 41.6367L10.3064 44.8369C9.98636 45.0795 9.53175 45.0482 9.24943 44.7641L5.10935 40.5974C4.83239 40.3187 4.80684 39.8825 5.04941 39.5744L8.31064 35.4329C7.13912 33.628 6.29663 31.5939 5.85022 29.3993L0.693793 28.7434C0.296967 28.693 0 28.3613 0 27.9687V22.0313C0 21.6386 0.296964 21.3069 0.693793 21.2564L5.87279 20.5976C6.39961 18.4066 7.25167 16.4427 8.42393 14.576L5.15551 10.4255C4.91296 10.1175 4.93852 9.68127 5.21545 9.40253L9.35563 5.23587L9.38256 5.20994C9.6662 4.95001 10.1025 4.92799 10.4125 5.16305L14.6325 8.36273C16.4581 7.2135 18.4504 6.38165 20.6714 5.86718L21.3439 0.682573L21.3495 0.646313C21.4157 0.274407 21.7454 0 22.1338 0H28.0785ZM22.1804 6.60906C22.1375 6.9397 21.8856 7.20725 21.5531 7.27524C19.1059 7.7755 16.9746 8.673 15.0462 9.96769C14.7612 10.159 14.383 10.1482 14.1097 9.94106L10.0003 6.82513L6.83842 10.0072L10.0249 14.0535C10.2318 14.3162 10.2468 14.6786 10.0624 14.957C8.73285 16.9641 7.81751 19.0619 7.30807 21.4613C7.23892 21.787 6.96719 22.0341 6.63098 22.0769L1.59229 22.7177V27.2821L6.63098 27.9231C6.97888 27.9673 7.25624 28.2299 7.31394 28.5694C7.71954 30.9574 8.63132 33.1423 9.94586 35.0276C10.1408 35.3072 10.1298 35.6783 9.91872 35.9464L6.73222 39.9926L9.89412 43.1747L14.0036 40.0589L14.0295 40.04C14.3004 39.8512 14.6639 39.8469 14.94 40.0323C16.8029 41.283 18.9613 42.1676 21.2333 42.6779L21.4536 42.7261L21.4842 42.7333C21.7984 42.8131 22.0331 43.0729 22.0743 43.3909L22.7289 48.4375H27.2711L27.9257 43.3909C27.9682 43.0627 28.2169 42.7964 28.5464 42.7261C30.8991 42.2242 33.137 41.3233 35.06 40.0323L35.0872 40.0148C35.3722 39.8397 35.7402 39.8589 36.0052 40.0656L40.1128 43.2718L43.2676 40.0967L40.0813 36.0506C39.8808 35.796 39.8598 35.4468 40.0285 35.1709C41.2644 33.1498 42.1822 31.0436 42.6919 28.6427L42.6989 28.6124C42.778 28.3018 43.0433 28.0687 43.369 28.0273L48.4076 27.3863V22.8218L43.369 22.181C43.0211 22.1367 42.7436 21.8742 42.686 21.5347C42.2804 19.1467 41.3687 16.9617 40.0541 15.0765C39.8587 14.7961 39.8702 14.4239 40.0828 14.1557L43.3722 10.0056L40.2119 6.82513L36.1026 9.94106C35.8293 10.1482 35.4511 10.159 35.1661 9.96769C33.2431 8.67664 31.0052 7.77573 28.6525 7.27385C28.323 7.20356 28.0745 6.93723 28.0319 6.60906L27.3773 1.56244H22.835L22.1804 6.60906Z" fill="white"/>
<path d="M28.7675 16.929C28.7675 14.8488 27.0952 13.1269 24.8928 13.1269C22.7729 13.1269 21.0181 14.7679 21.0181 16.929C21.0181 17.7177 21.2915 18.5676 21.7818 19.1289C22.068 19.4565 22.0293 19.9497 21.6955 20.2305C21.3616 20.5113 20.859 20.4733 20.5728 20.1457C19.7893 19.2487 19.4258 18.0152 19.4258 16.929C19.4258 13.8818 21.9172 11.5645 24.8928 11.5645C27.9982 11.5645 30.3599 14.0092 30.3599 16.929C30.3599 18.1296 29.9906 19.2554 29.2129 20.1457C28.9267 20.4733 28.424 20.5113 28.0902 20.2305C27.7563 19.9497 27.7176 19.4565 28.0038 19.1289C28.4999 18.5609 28.7675 17.8117 28.7675 16.929Z" fill="white"/>
<path d="M26.75 23.1816C26.75 22.7501 27.1064 22.4004 27.5461 22.4004C27.9859 22.4004 28.3423 22.7501 28.3423 23.1816C28.3423 24.9965 28.5476 26.7073 28.9581 28.4194C29.3616 30.1021 30.0725 31.7051 30.9122 33.353C31.1088 33.739 30.9494 34.2082 30.5561 34.4012C30.1628 34.5941 29.6846 34.4377 29.4879 34.0518C28.6291 32.3664 27.8538 30.6361 27.4081 28.7772C26.9693 26.9476 26.75 25.1167 26.75 23.1816Z" fill="white"/>
<path d="M21.6548 23.1816C21.6548 22.7501 22.0112 22.4004 22.451 22.4004C22.8907 22.4004 23.2471 22.7501 23.2471 23.1816C23.2471 26.9599 22.2575 30.7349 20.389 34.0781C20.1776 34.4564 19.6936 34.5949 19.3081 34.3875C18.9225 34.18 18.7813 33.7051 18.9927 33.3268C20.7336 30.2118 21.6548 26.695 21.6548 23.1816Z" fill="white"/>
<path d="M31.21 35.0533C31.21 34.7556 30.9295 34.4804 30.6262 34.4804H19.3735C19.0701 34.4804 18.7896 34.7556 18.7896 35.0533V37.0846H31.21V35.0533ZM32.8023 37.8658C32.8023 38.2973 32.4459 38.6471 32.0062 38.6471H17.9934C17.5537 38.6471 17.1973 38.2973 17.1973 37.8658V35.0533C17.1973 33.8927 18.1907 32.918 19.3735 32.918H30.6262C31.8089 32.918 32.8023 33.8927 32.8023 35.0533V37.8658Z" fill="white"/>
<path d="M30.1463 21.4075C30.1463 20.8712 29.7294 20.4179 29.1379 20.4179H20.9637C20.2865 20.4179 19.9061 20.9302 19.9504 21.3212C19.9536 21.3499 19.9552 21.3787 19.9552 21.4075C19.9553 21.9439 20.3722 22.3971 20.9637 22.3971H29.1379C29.6845 22.3971 30.1463 21.988 30.1463 21.4075ZM31.7387 21.4075C31.7387 22.9104 30.502 23.9596 29.1379 23.9596H20.9637C19.4482 23.9596 18.3856 22.7715 18.3635 21.4497C18.2262 19.987 19.5322 18.8555 20.9637 18.8555H29.1379C30.6695 18.8555 31.7387 20.0689 31.7387 21.4075Z" fill="white"/>
<path d="M12.7383 25.054C12.7383 21.7134 14.1023 18.7045 16.3685 16.4808C16.6794 16.1757 17.1835 16.1757 17.4944 16.4808C17.8053 16.7858 17.8053 17.2805 17.4944 17.5856C15.5144 19.5285 14.3306 22.1446 14.3306 25.054C14.3306 27.5776 15.2193 29.8995 16.7974 31.7382C17.0806 32.0683 17.0375 32.5612 16.7012 32.8391C16.3649 33.117 15.8626 33.0748 15.5794 32.7448C13.7604 30.6252 12.7383 27.9471 12.7383 25.054Z" fill="white"/>
<path d="M35.6685 25.054C35.6685 22.1447 34.4847 19.5285 32.5047 17.5856C32.1938 17.2806 32.1938 16.7859 32.5047 16.4808C32.8156 16.1757 33.3197 16.1757 33.6307 16.4808C35.8969 18.7045 37.2609 21.7134 37.2609 25.054C37.2609 27.9471 36.2388 30.6252 34.4198 32.7448C34.1366 33.0748 33.6342 33.1171 33.2979 32.8392C32.9615 32.5612 32.9186 32.0683 33.2018 31.7383C34.7798 29.8995 35.6685 27.5776 35.6685 25.054Z" fill="white"/>
</svg>
