<svg width="40" height="40" viewBox="0 0 40 40" fill="none" xmlns="http://www.w3.org/2000/svg">
<g clip-path="url(#clip0_389_28197)">
<path fill-rule="evenodd" clip-rule="evenodd" d="M13.7146 0.503906C11.4582 0.503906 9.2943 1.37838 7.69881 2.93496L0 10.4459V13.884C0 16.313 1.06944 18.4982 2.77401 20.0161C1.06944 21.5339 0 23.7192 0 26.1482V29.5862L7.69881 37.0973C9.2943 38.6538 11.4582 39.5283 13.7146 39.5283C16.2043 39.5283 18.4442 38.485 20 36.8219C21.5558 38.485 23.7957 39.5283 26.2854 39.5283C28.5418 39.5283 30.7057 38.6538 32.3012 37.0973L40 29.5862V26.1482C40 23.7192 38.9306 21.5339 37.226 20.0161C38.9306 18.4982 40 16.313 40 13.884V10.4459L32.3012 2.93496C30.7057 1.37838 28.5418 0.503906 26.2854 0.503906C23.7957 0.503906 21.5558 1.54726 20 3.21025C18.4442 1.54726 16.2043 0.503906 13.7146 0.503906ZM25.7588 20.0161C25.6629 19.9307 25.5688 19.843 25.4766 19.7531L20 14.41L14.5234 19.7531C14.4312 19.843 14.3371 19.9307 14.2412 20.0161C14.3371 20.1015 14.4312 20.1892 14.5234 20.2791L20 25.6221L25.4766 20.2791C25.5688 20.1892 25.6629 20.1015 25.7588 20.0161ZM22.2222 29.5862V31.2282C22.2222 33.4175 24.0414 35.1923 26.2854 35.1923C27.363 35.1923 28.3965 34.7746 29.1585 34.0312L35.5556 27.7901V26.1482C35.5556 23.9589 33.7364 22.1841 31.4924 22.1841C30.4148 22.1841 29.3813 22.6017 28.6193 23.3452L22.2222 29.5862ZM17.7778 29.5862L11.3807 23.3452C10.6187 22.6017 9.58524 22.1841 8.50762 22.1841C6.26359 22.1841 4.44444 23.9589 4.44444 26.1482V27.7901L10.8415 34.0312C11.6035 34.7746 12.637 35.1923 13.7146 35.1923C15.9586 35.1923 17.7778 33.4175 17.7778 31.2282V29.5862ZM17.7778 8.80402V10.4459L11.3807 16.687C10.6187 17.4304 9.58524 17.8481 8.50762 17.8481C6.26359 17.8481 4.44444 16.0733 4.44444 13.884V12.242L10.8415 6.001C11.6035 5.25759 12.637 4.83995 13.7146 4.83995C15.9586 4.83995 17.7778 6.61472 17.7778 8.80402ZM28.6193 16.687L22.2222 10.4459V8.80402C22.2222 6.61472 24.0414 4.83995 26.2854 4.83995C27.363 4.83995 28.3965 5.25759 29.1585 6.001L35.5556 12.242V13.884C35.5556 16.0733 33.7364 17.8481 31.4924 17.8481C30.4148 17.8481 29.3813 17.4304 28.6193 16.687Z" fill="#FF630B"/>
</g>
<defs>
<clipPath id="clip0_389_28197">
<rect width="40" height="40" fill="white"/>
</clipPath>
</defs>
</svg>
