<svg width="60" height="60" viewBox="0 0 60 60" fill="none" xmlns="http://www.w3.org/2000/svg">
<path d="M55.7143 0H4.28571C1.9226 0 0 2.15297 0 4.8005V45.6048C0 48.2523 1.9226 50.4053 4.28571 50.4053H12.075C12.6667 50.4053 13.1464 49.8685 13.1464 49.2052C13.1464 48.5418 12.6667 48.005 12.075 48.005H4.28571C3.1039 48.005 2.14286 46.928 2.14286 45.6048V12.0001H16.6997C17.9626 12.0001 19.1497 11.4493 20.0433 10.4495C20.5314 9.90338 21.1811 9.60219 21.8717 9.60219H53.5714C54.9582 9.59101 54.9951 7.2245 53.5714 7.20195C53.5714 7.20193 21.8717 7.20193 21.8717 7.20193C20.6088 7.20193 19.4218 7.75277 18.5282 8.75248C18.0401 9.29864 17.3903 9.59983 16.6998 9.59983H2.14286V4.8005C2.14286 3.47732 3.1039 2.40025 4.28571 2.40025H55.7143C56.8961 2.40025 57.8571 3.47732 57.8571 4.8005V45.6048C57.8571 46.928 56.8961 48.005 55.7143 48.005H48.118C47.5263 48.005 47.0466 48.5418 47.0466 49.2052C47.0466 49.8685 47.5263 50.4053 48.118 50.4053H55.7143C58.0774 50.4053 60 48.2523 60 45.6048V4.8005C60 2.15297 58.0774 0 55.7143 0Z" fill="white"/>
<path d="M13.3926 5.99944C13.4165 7.57691 15.5117 7.57668 15.5354 5.99939C15.5116 4.42196 13.4163 4.42218 13.3926 5.99944Z" fill="white"/>
<path d="M9.10742 5.99944C9.13134 7.57691 11.2266 7.57668 11.2503 5.99939C11.2264 4.42196 9.1311 4.42218 9.10742 5.99944Z" fill="white"/>
<path d="M4.82227 5.99944C4.84618 7.57691 6.9414 7.57668 6.96512 5.99939C6.94124 4.42196 4.84594 4.42218 4.82227 5.99944Z" fill="white"/>
<path d="M28.3002 24.1071C29.5307 24.2782 30.7319 24.6743 31.8708 25.2838C32.4044 25.5685 33.0448 25.3166 33.2996 24.7177C33.5549 24.12 33.3283 23.4039 32.7947 23.1179C31.4471 22.3971 30.0241 21.9283 28.5639 21.7256C24.2343 21.1278 20.0003 22.7429 16.943 26.1639C5.55126 39.5056 19.8606 59.8019 34.0928 50.4676C34.0927 50.4676 41.6643 58.9588 41.6643 58.9588C42.9245 60.3518 44.9634 60.3467 46.2174 58.9424C47.4423 57.5904 47.4471 55.1923 46.2074 53.8594C46.2074 53.8594 38.6384 45.3835 38.6384 45.3835C41.5917 40.1106 41.3909 33.0305 38.0314 28.0068C38.0315 28.0068 42.2351 23.2991 42.2351 23.2991V25.4935C42.2568 27.0754 44.3572 27.0661 44.378 25.4935V20.4024C44.3803 19.9289 44.1101 19.4712 43.7157 19.2947C43.8557 19.0619 38.8315 19.2726 38.7598 19.2021C38.1681 19.2022 37.6883 19.739 37.6883 20.4024C37.6883 21.0657 38.1681 21.6025 38.7598 21.6025H40.7196L27.5493 36.3519L24.5168 32.9556C24.0982 32.4868 23.4202 32.4868 23.0017 32.9556L18.6522 37.8276C17.6725 38.94 19.1661 40.6317 20.1673 39.5246C20.1672 39.5247 23.7592 35.5012 23.7592 35.5012L26.7909 38.8965C27.1993 39.4526 28.1032 39.2293 28.3132 38.8902C28.4217 38.7687 32.1292 34.6167 34.5146 31.9452C35.7283 30.7103 36.5118 29.404 36.5909 29.8954C39.3343 34.3902 39.2147 40.5242 36.3523 44.906C36.0262 45.3616 36.2775 46.2252 36.5075 46.3907C36.7043 46.6101 44.7048 55.5684 44.7338 55.6062C45.0975 56.1045 45.1247 56.7777 44.6426 57.3084C44.2319 57.8068 43.3717 57.5752 43.1727 57.253C42.9653 57.0215 34.9872 48.0692 34.9405 48.0246C34.5194 47.5961 33.8904 47.6456 33.4664 48.0578C26.397 53.7589 15.9077 48.4276 15.0731 38.704C14.0729 30.4233 20.9113 22.8663 28.3002 24.1071Z" fill="white"/>
</svg>
