<svg width="40" height="40" viewBox="0 0 40 40" fill="none" xmlns="http://www.w3.org/2000/svg">
<path fill-rule="evenodd" clip-rule="evenodd" d="M7.75465 33.9992L7.20134 34.348C4.91219 35.7912 1.95933 34.9242 0.639556 32.428C-0.680219 29.9319 0.108662 26.7058 2.39781 25.2626C3.01886 24.8711 5.50301 23.3049 6.12415 22.9133C8.40482 20.6784 10.0652 17.5599 11.5371 14.769C11.5426 14.7571 11.5484 14.7453 11.5545 14.7337C11.6895 14.4775 11.8237 14.2242 11.9565 13.9747C12.117 13.6718 12.2758 13.3744 12.4333 13.0841C12.4337 13.0833 12.4341 13.0825 12.4346 13.0817L12.4349 13.0811C12.7931 12.4226 13.3906 12.0537 14.0883 12.059C14.7859 12.0644 15.3811 12.4419 15.7292 13.1003L18.0513 17.4924C19.4425 16.9307 21.0428 17.5274 21.8095 18.9774C22.5761 20.4275 22.2492 22.2393 21.1081 23.274L23.4303 27.6661C23.7887 28.3438 23.7799 29.1211 23.4086 29.7883C23.0378 30.4544 22.4166 30.8207 21.7005 30.79H21.7001L21.699 30.7899C21.4031 30.7774 21.1059 30.7646 20.8077 30.7529C17.7811 30.6397 14.6455 30.6771 11.6117 31.7386L15.0143 38.174C15.1924 38.5109 15.0867 38.9418 14.7781 39.1364L14.0852 39.5733C12.6884 40.4538 10.889 39.9273 10.0825 38.4021L7.75465 33.9992ZM6.26802 24.4496L3.04298 26.4828C1.36868 27.5384 0.791816 29.8979 1.75699 31.7235C2.72225 33.5492 4.88195 34.1833 6.55617 33.1278L9.78121 31.0945L6.26802 24.4496ZM12.111 16.4887C10.7776 18.973 9.26499 21.5983 7.32102 23.6232L10.9528 30.4922C13.5629 29.5302 16.2477 29.297 18.8863 29.3033L12.111 16.4887ZM22.3128 28.3706L14.6117 13.8048C14.4989 13.5914 14.3054 13.4698 14.0793 13.468C13.8534 13.4663 13.6609 13.587 13.5448 13.7997L13.5443 13.8006C13.3212 14.2156 13.0915 14.6451 12.8587 15.0848L20.3892 29.3279C20.6068 29.3352 20.8241 29.3435 21.0409 29.3523C21.2781 29.3614 21.5146 29.3715 21.7504 29.382H21.751C21.9837 29.3921 22.1855 29.2728 22.306 29.0564C22.426 28.8408 22.4286 28.5896 22.3128 28.3706ZM20.4464 22.0224C20.9773 21.4032 21.1006 20.4546 20.692 19.6819C20.2835 18.9093 19.4696 18.5515 18.7131 18.744L20.4464 22.0224ZM8.87217 33.2947L11.2 37.6976C11.6513 38.5511 12.6583 38.8458 13.44 38.3529L13.5742 38.2684L10.4264 32.3148L8.87217 33.2947ZM40 9.32982C40 10.5085 39.1198 11.4674 38.0405 11.4674H32.3776L29.9969 14.1737C29.8145 14.3811 29.5349 14.4466 29.2907 14.3392C29.0465 14.2319 28.8865 13.9732 28.8865 13.6857V11.4674H28.42C27.3406 11.4674 26.4605 10.5085 26.4605 9.32982V2.1402C26.4605 0.961801 27.341 0.000308035 28.42 0.000308035H38.0405C39.1195 0.000308035 40 0.961801 40 2.1402V9.32982ZM38.7097 9.32982V2.1402C38.7097 1.73774 38.4089 1.40935 38.0405 1.40935H28.42C28.0515 1.40935 27.7508 1.73774 27.7508 2.1402V9.32982C27.7508 9.73192 28.0518 10.0584 28.42 10.0584H29.5316C29.8879 10.0584 30.1768 10.3738 30.1768 10.7629V11.9353L31.6375 10.2748C31.7592 10.1366 31.9272 10.0584 32.1027 10.0584H38.0405C38.4087 10.0584 38.7097 9.73192 38.7097 9.32982ZM29.6668 4.18665C29.3107 4.18665 29.0216 3.87094 29.0216 3.48213C29.0216 3.09332 29.3107 2.77761 29.6668 2.77761H36.6783C37.0344 2.77761 37.3234 3.09332 37.3234 3.48213C37.3234 3.87094 37.0344 4.18665 36.6783 4.18665H29.6668ZM29.6668 6.46445C29.3107 6.46445 29.0216 6.14883 29.0216 5.75993C29.0216 5.37112 29.3107 5.05541 29.6668 5.05541H36.6783C37.0344 5.05541 37.3234 5.37112 37.3234 5.75993C37.3234 6.14883 37.0344 6.46445 36.6783 6.46445H29.6668ZM29.6668 8.74014C29.3107 8.74014 29.0216 8.42442 29.0216 8.03562C29.0216 7.64681 29.3107 7.3311 29.6668 7.3311H36.6783C37.0344 7.3311 37.3234 7.64681 37.3234 8.03562C37.3234 8.42442 37.0344 8.74014 36.6783 8.74014H29.6668ZM33.9154 15.334C37.2736 15.334 40 18.3112 40 21.9783C40 25.6454 37.2736 28.6226 33.9154 28.6226C30.5572 28.6226 27.8308 25.6454 27.8308 21.9783C27.8308 18.3112 30.5572 15.334 33.9154 15.334ZM33.9154 16.743C31.2693 16.743 29.1211 19.0889 29.1211 21.9783C29.1211 24.8678 31.2693 27.2136 33.9154 27.2136C36.5614 27.2136 38.7097 24.8678 38.7097 21.9783C38.7097 19.0889 36.5614 16.743 33.9154 16.743ZM36.7169 22.5884L32.7921 25.0629C32.5925 25.1887 32.3465 25.1887 32.1469 25.0629C31.9473 24.937 31.8243 24.7045 31.8243 24.4528V19.5039C31.8243 19.2522 31.9473 19.0196 32.1469 18.8938C32.3465 18.7679 32.5925 18.7679 32.7921 18.8938L36.7169 21.3682C36.9165 21.4941 37.0395 21.7266 37.0395 21.9783C37.0395 22.23 36.9165 22.4626 36.7169 22.5884ZM35.104 21.9783L33.1147 20.7242V23.2325L35.104 21.9783ZM17.3196 12.2087C16.0393 11.3865 14.1165 9.92285 12.7693 8.20937C11.7972 6.97285 11.1323 5.59992 11.1095 4.24292C11.076 2.21162 12.1249 0.749388 13.5551 0.217388C14.796 -0.244248 16.3616 -0.00620853 17.7676 1.27531C19.1736 -0.00471141 20.7393 -0.242839 21.9808 0.218357C23.4119 0.749917 24.4614 2.21144 24.4278 4.24284C24.4051 5.59983 23.7401 6.97285 22.768 8.20937C21.4209 9.92285 19.498 11.3865 18.2182 12.2084C17.9342 12.3932 17.6037 12.3932 17.3196 12.2087ZM17.7687 10.8605C18.9499 10.0794 20.6095 8.79174 21.789 7.29147C22.5489 6.32496 23.1199 5.27795 23.1377 4.2173C23.1597 2.88417 22.5044 1.90119 21.5652 1.55228C20.5736 1.18399 19.3173 1.51714 18.2274 2.72706C18.106 2.86171 17.9403 2.93754 17.7673 2.93745C17.5943 2.93745 17.4286 2.86154 17.3073 2.7268C16.2175 1.51591 14.962 1.18258 13.9711 1.55113C13.0324 1.90031 12.3777 2.88408 12.3997 4.2173C12.4175 5.27795 12.9885 6.32496 13.7484 7.29147C14.9278 8.79174 16.5875 10.0794 17.7687 10.8605ZM21.1372 14.8826C21.045 15.2582 20.6909 15.4814 20.347 15.3808C20.003 15.2801 19.7986 14.8935 19.8908 14.5179L20.5066 12.0082C20.5988 11.6326 20.9528 11.4094 21.2968 11.51C21.6407 11.6107 21.8451 11.9973 21.753 12.3729L21.1372 14.8826ZM24.3802 23.0461C24.0363 22.9451 23.8323 22.5582 23.9248 22.1827C24.0173 21.8073 24.3716 21.5844 24.7154 21.6854L27.0153 22.3611C27.3592 22.4621 27.5632 22.8488 27.4707 23.2244C27.3782 23.5999 27.024 23.8227 26.6801 23.7217L24.3802 23.0461ZM24.3058 18.2337C23.9974 18.4281 23.6026 18.3125 23.4245 17.9759C23.2465 17.6391 23.3523 17.2078 23.6607 17.0134L25.7251 15.7119C26.0334 15.5175 26.4284 15.6331 26.6064 15.9697C26.7844 16.3065 26.6786 16.7378 26.3702 16.9322L24.3058 18.2337Z" fill="white"/>
</svg>
