<svg width="60" height="60" viewBox="0 0 60 60" fill="none" xmlns="http://www.w3.org/2000/svg">
<path fill-rule="evenodd" clip-rule="evenodd" d="M11.632 50.9988L10.802 51.522C7.36829 53.6868 2.939 52.3863 0.959334 48.642C-1.02033 44.8979 0.162993 40.0587 3.59671 37.8939C4.52829 37.3066 8.25451 34.9574 9.18622 34.37C12.6072 31.0176 15.0977 26.3399 17.3057 22.1535C17.3139 22.1356 17.3226 22.1179 17.3318 22.1006C17.5342 21.7162 17.7355 21.3363 17.9347 20.9621C18.1756 20.5077 18.4136 20.0616 18.6499 19.6262C18.6505 19.625 18.6512 19.6238 18.6518 19.6226L18.6523 19.6217C19.1897 18.6339 20.0859 18.0805 21.1324 18.0886C22.1788 18.0966 23.0717 18.6629 23.5938 19.6505L27.077 26.2386C29.1637 25.3961 31.5642 26.2911 32.7143 28.4661C33.8642 30.6412 33.3738 33.3589 31.6622 34.911L35.1454 41.4991C35.683 42.5157 35.6699 43.6816 35.1129 44.6824C34.5566 45.6816 33.6249 46.2311 32.5507 46.185H32.5501L32.5485 46.1849C32.1046 46.1661 31.6588 46.1468 31.2116 46.1294C26.6716 45.9595 21.9682 46.0157 17.4176 47.6078L22.5214 57.261C22.7886 57.7664 22.63 58.4127 22.1671 58.7046L21.1278 59.3599C19.0326 60.6807 16.3335 59.8909 15.1238 57.6031L11.632 50.9988ZM9.40203 36.6744L4.56446 39.7243C2.05302 41.3076 1.18772 44.8469 2.63549 47.5852C4.08337 50.3238 7.32293 51.275 9.83425 49.6917L14.6718 46.6417L9.40203 36.6744ZM18.1665 24.7331C16.1664 28.4595 13.8975 32.3975 10.9815 35.4348L16.4291 45.7383C20.3443 44.2952 24.3716 43.9456 28.3294 43.9549L18.1665 24.7331ZM33.4692 42.5559L21.9175 20.7073C21.7483 20.3871 21.4581 20.2046 21.1189 20.202C20.7802 20.1995 20.4914 20.3804 20.3172 20.6996L20.3165 20.7009C19.9818 21.3234 19.6372 21.9676 19.288 22.6272L30.5838 43.9918C30.9103 44.0028 31.2361 44.0152 31.5613 44.0284C31.9171 44.0421 32.2719 44.0572 32.6256 44.073H32.6264C32.9756 44.0881 33.2782 43.9092 33.459 43.5845C33.639 43.2612 33.643 42.8844 33.4692 42.5559ZM30.6695 33.0335C31.466 32.1048 31.6508 30.6819 31.038 29.5229C30.4253 28.3639 29.2045 27.8273 28.0697 28.1161L30.6695 33.0335ZM13.3082 49.942L16.8 56.5463C17.477 57.8266 18.9875 58.2686 20.1601 57.5294L20.3612 57.4026L15.6396 48.4722L13.3082 49.942ZM60 13.9947C60 15.7627 58.6797 17.2011 57.0607 17.2011H48.5665L44.9953 21.2606C44.7217 21.5717 44.3024 21.6699 43.9361 21.5088C43.5697 21.3478 43.3297 20.9598 43.3297 20.5285V17.2011H42.63C41.011 17.2011 39.6907 15.7627 39.6907 13.9947V3.2103C39.6907 1.4427 41.0114 0.000462052 42.63 0.000462052H57.0607C58.6793 0.000462052 60 1.4427 60 3.2103V13.9947ZM58.0645 13.9947V3.2103C58.0645 2.60661 57.6134 2.11402 57.0607 2.11402H42.63C42.0773 2.11402 41.6262 2.60661 41.6262 3.2103V13.9947C41.6262 14.5979 42.0777 15.0876 42.63 15.0876H44.2975C44.8319 15.0876 45.2652 15.5607 45.2652 16.1444V17.903L47.4562 15.4123C47.6387 15.2049 47.8907 15.0876 48.1541 15.0876H57.0607C57.613 15.0876 58.0645 14.5979 58.0645 13.9947ZM44.5002 6.27998C43.9661 6.27998 43.5324 5.80641 43.5324 5.2232C43.5324 4.63999 43.9661 4.16642 44.5002 4.16642H55.0174C55.5516 4.16642 55.9851 4.63999 55.9851 5.2232C55.9851 5.80641 55.5516 6.27998 55.0174 6.27998H44.5002ZM44.5002 9.69668C43.9661 9.69668 43.5324 9.22324 43.5324 8.6399C43.5324 8.05669 43.9661 7.58312 44.5002 7.58312H55.0174C55.5516 7.58312 55.9851 8.05669 55.9851 8.6399C55.9851 9.22324 55.5516 9.69668 55.0174 9.69668H44.5002ZM44.5002 13.1102C43.9661 13.1102 43.5324 12.6366 43.5324 12.0534C43.5324 11.4702 43.9661 10.9966 44.5002 10.9966H55.0174C55.5516 10.9966 55.9851 11.4702 55.9851 12.0534C55.9851 12.6366 55.5516 13.1102 55.0174 13.1102H44.5002ZM50.8731 23.001C55.9104 23.001 60 27.4668 60 32.9675C60 38.4682 55.9104 42.934 50.8731 42.934C45.8358 42.934 41.7462 38.4682 41.7462 32.9675C41.7462 27.4668 45.8358 23.001 50.8731 23.001ZM50.8731 25.1146C46.904 25.1146 43.6817 28.6334 43.6817 32.9675C43.6817 37.3017 46.904 40.8204 50.8731 40.8204C54.8421 40.8204 58.0645 37.3017 58.0645 32.9675C58.0645 28.6334 54.8421 25.1146 50.8731 25.1146ZM55.0753 33.8827L49.1881 37.5943C48.8887 37.7831 48.5198 37.7831 48.2204 37.5943C47.921 37.4056 47.7365 37.0567 47.7365 36.6792V29.2558C47.7365 28.8783 47.921 28.5294 48.2204 28.3406C48.5198 28.1519 48.8887 28.1519 49.1881 28.3406L55.0753 32.0523C55.3747 32.2411 55.5592 32.5899 55.5592 32.9675C55.5592 33.345 55.3747 33.6939 55.0753 33.8827ZM52.656 32.9675L49.672 31.0863V34.8488L52.656 32.9675ZM25.9794 18.313C24.0589 17.0797 21.1748 14.8843 19.154 12.3141C17.6958 10.4593 16.6984 8.39988 16.6643 6.36439C16.614 3.31743 18.1873 1.12408 20.3326 0.326082C22.1941 -0.366372 24.5424 -0.00931279 26.6514 1.91297C28.7604 -0.00706711 31.109 -0.364259 32.9712 0.327535C35.1178 1.12488 36.6921 3.31716 36.6417 6.36425C36.6077 8.39974 35.6102 10.4593 34.152 12.3141C32.1313 14.8843 29.2471 17.0797 27.3273 18.3126C26.9013 18.5897 26.4055 18.5899 25.9794 18.313ZM26.653 16.2907C28.4248 15.1191 30.9142 13.1876 32.6835 10.9372C33.8233 9.48743 34.6799 7.91693 34.7065 6.32595C34.7395 4.32626 33.7565 2.85178 32.3479 2.32841C30.8604 1.77598 28.976 2.27571 27.3411 4.09059C27.159 4.29257 26.9104 4.40631 26.6509 4.40617C26.3914 4.40617 26.1429 4.29231 25.9609 4.0902C24.3263 2.27386 22.443 1.77387 20.9567 2.3267C19.5486 2.85046 18.5665 4.32612 18.5996 6.32595C18.6262 7.91693 19.4828 9.48743 20.6225 10.9372C22.3917 13.1876 24.8813 15.1191 26.653 16.2907ZM31.7058 22.3239C31.5675 22.8873 31.0363 23.2221 30.5205 23.0711C30.0046 22.9202 29.6979 22.3402 29.8362 21.7769L30.7599 18.0123C30.8982 17.4489 31.4292 17.1141 31.9452 17.2651C32.4611 17.4161 32.7676 17.996 32.6295 18.5594L31.7058 22.3239ZM36.5703 34.5692C36.0545 34.4176 35.7484 33.8373 35.8872 33.2741C36.0259 32.711 36.5573 32.3766 37.073 32.5281L40.523 33.5416C41.0388 33.6931 41.3448 34.2733 41.2061 34.8365C41.0673 35.3998 40.536 35.734 40.0202 35.5825L36.5703 34.5692ZM36.4588 27.3506C35.9962 27.6421 35.4039 27.4688 35.1368 26.9638C34.8697 26.4586 35.0284 25.8118 35.491 25.5201L38.5876 23.5678C39.0502 23.2763 39.6425 23.4496 39.9095 23.9546C40.1766 24.4598 40.0179 25.1066 39.5553 25.3983L36.4588 27.3506Z" fill="white"/>
</svg>
