<svg width="60" height="60" viewBox="0 0 60 60" fill="none" xmlns="http://www.w3.org/2000/svg">
<path d="M33.6942 0C34.1753 0 34.5812 0.350869 34.642 0.819088L35.4496 7.04635C38.0191 7.66242 40.4897 8.65649 42.695 10.0358L47.7598 6.19567L47.7962 6.16933C48.1777 5.90714 48.6998 5.95275 49.028 6.28305L53.9962 11.2831C54.3293 11.6183 54.3592 12.1434 54.0662 12.5131L50.0282 17.6072C51.4334 19.7726 52.4441 22.2128 52.9796 24.8456L59.1674 25.6328C59.6436 25.6934 60 26.0913 60 26.5625V33.6875C60 34.1587 59.6436 34.5566 59.1674 34.6172L52.9526 35.4077C52.321 38.0369 51.3072 40.3871 50.004 42.6155L53.9407 47.6143C54.2318 47.9839 54.2011 48.5075 53.8688 48.842L48.9007 53.842C48.5583 54.1866 48.0056 54.2207 47.6218 53.9212L42.559 49.9695C40.3559 51.346 37.8885 52.3383 35.3223 52.9535L34.5146 59.1809C34.4539 59.6491 34.0478 60 33.5668 60H26.4331C25.9521 60 25.5461 59.6491 25.4854 59.1809L24.6776 52.9535C22.1081 52.3374 19.6375 51.3434 17.4322 49.9641L12.3676 53.8043C11.9836 54.0955 11.4381 54.0579 11.0993 53.717L6.13122 48.717C5.79886 48.3825 5.7682 47.859 6.0593 47.4893L9.97277 42.5195C8.56694 40.3537 7.55595 37.9127 7.02026 35.2792L0.832552 34.4922C0.35636 34.4316 0 34.0336 0 33.5625V26.4375C0 25.9664 0.356356 25.5683 0.832552 25.5077L7.04735 24.7171C7.67954 22.088 8.702 19.7312 10.1087 17.4912L6.18662 12.5107C5.89555 12.141 5.92622 11.6175 6.25854 11.2831L11.2268 6.28305L11.2591 6.25194C11.5994 5.94002 12.1229 5.9136 12.495 6.19567L17.559 10.0353C19.7497 8.65621 22.1404 7.65799 24.8056 7.04063L25.6127 0.819088L25.6194 0.775576C25.6988 0.329289 26.0945 0 26.5605 0H33.6942ZM26.6165 7.93088C26.565 8.32765 26.2627 8.64871 25.8637 8.7303C22.9271 9.33061 20.3695 10.4076 18.0554 11.9612C17.7135 12.1908 17.2596 12.1779 16.9317 11.9293L12.0004 8.19016L8.2061 12.0087L12.0299 16.8642C12.2782 17.1795 12.2962 17.6143 12.0749 17.9484C10.4794 20.3569 9.38101 22.8743 8.76968 25.7536C8.6867 26.1445 8.36062 26.4409 7.95717 26.4923L1.91075 27.2613V32.7386L7.95717 33.5077C8.37466 33.5608 8.70749 33.8759 8.77672 34.2833C9.26344 37.1489 10.3576 39.7708 11.935 42.0331C12.169 42.3687 12.1558 42.814 11.9025 43.1357L8.07866 47.9912L11.8729 51.8097L16.8044 48.0707L16.8355 48.0481C17.1605 47.8215 17.5967 47.8164 17.928 48.0388C20.1634 49.5396 22.7536 50.6011 25.48 51.2136L25.7444 51.2714L25.7811 51.28C26.1581 51.3757 26.4397 51.6876 26.4892 52.0691L27.2747 58.1251H32.7253L33.5108 52.0691C33.5619 51.6753 33.8603 51.3557 34.2556 51.2714C37.0789 50.6691 39.7645 49.588 42.072 48.0388L42.1047 48.0178C42.4466 47.8077 42.8883 47.8307 43.2062 48.0788L48.1353 51.9262L51.9211 48.1161L48.0975 43.2607C47.8569 42.9552 47.8318 42.5362 48.0342 42.2051C49.5173 39.7797 50.6186 37.2524 51.2303 34.3713L51.2387 34.3349C51.3336 33.9622 51.652 33.6825 52.0428 33.6328L58.0891 32.8636V27.3862L52.0428 26.6172C51.6253 26.5641 51.2924 26.2491 51.2232 25.8416C50.7364 22.9761 49.6424 20.3541 48.065 18.0918C47.8304 17.7553 47.8443 17.3087 48.0994 16.9869L52.0466 12.0068L48.2542 8.19016L43.3231 11.9293C42.9952 12.1779 42.5413 12.1908 42.1993 11.9612C39.8918 10.412 37.2062 9.33088 34.383 8.72863C33.9876 8.64428 33.6893 8.32468 33.6382 7.93088L32.8527 1.87493H27.4021L26.6165 7.93088Z" fill="white"/>
<path d="M34.5207 20.3124C34.5206 17.8162 32.5139 15.7499 29.871 15.7499C27.3271 15.7499 25.2213 17.7191 25.2213 20.3124C25.2213 21.2589 25.5494 22.2787 26.1378 22.9523C26.4812 23.3454 26.4348 23.9373 26.0342 24.2742C25.6335 24.6112 25.0304 24.5657 24.687 24.1725C23.7467 23.0961 23.3105 21.6159 23.3105 20.3124C23.3106 16.6558 26.3003 13.875 29.871 13.875C33.5975 13.875 36.4315 16.8086 36.4315 20.3124C36.4315 21.7532 35.9883 23.1041 35.0551 24.1725C34.7117 24.5657 34.1084 24.6112 33.7078 24.2742C33.3072 23.9373 33.2608 23.3454 33.6042 22.9523C34.1995 22.2707 34.5207 21.3717 34.5207 20.3124Z" fill="white"/>
<path d="M32.1016 27.8134C32.1016 27.2957 32.5293 26.876 33.0569 26.876C33.5846 26.876 34.0123 27.2957 34.0123 27.8134C34.0123 29.9913 34.2587 32.0443 34.7513 34.0988C35.2355 36.1181 36.0885 38.0417 37.0961 40.0192C37.3321 40.4823 37.1408 41.0454 36.6689 41.2769C36.1969 41.5085 35.623 41.3208 35.3871 40.8577C34.3565 38.8352 33.4261 36.7588 32.8912 34.5281C32.3648 32.3326 32.1016 30.1356 32.1016 27.8134Z" fill="white"/>
<path d="M25.9862 27.8134C25.9862 27.2957 26.4139 26.876 26.9415 26.876C27.4692 26.876 27.8969 27.2957 27.8969 27.8134C27.8969 32.3474 26.7093 36.8773 24.4672 40.8893C24.2135 41.3432 23.6327 41.5094 23.1701 41.2605C22.7074 41.0115 22.538 40.4417 22.7917 39.9877C24.8807 36.2496 25.9862 32.0295 25.9862 27.8134Z" fill="white"/>
<path d="M37.452 42.0644C37.452 41.7072 37.1154 41.3769 36.7514 41.3769H23.2482C22.8842 41.3769 22.5475 41.7071 22.5475 42.0644V44.502H37.452V42.0644ZM39.3628 45.4394C39.3628 45.9572 38.935 46.3769 38.4074 46.3769H21.5921C21.0644 46.3769 20.6367 45.9572 20.6367 45.4394V42.0644C20.6368 40.6716 21.8288 39.502 23.2482 39.502H36.7514C38.1707 39.502 39.3627 40.6716 39.3628 42.0644V45.4394Z" fill="white"/>
<path d="M36.1767 25.6865C36.1767 25.0428 35.6764 24.499 34.9666 24.4989H25.1576C24.345 24.499 23.8885 25.1137 23.9416 25.5829C23.9455 25.6173 23.9475 25.6519 23.9475 25.6865C23.9475 26.3302 24.4478 26.8739 25.1576 26.874H34.9666C35.6226 26.8739 36.1767 26.383 36.1767 25.6865ZM38.0876 25.6865C38.0876 27.49 36.6036 28.749 34.9666 28.749H25.1576C23.339 28.749 22.0639 27.3232 22.0373 25.7371C21.8726 23.9818 23.4398 22.6241 25.1576 22.624H34.9666C36.8045 22.624 38.0876 24.0802 38.0876 25.6865Z" fill="white"/>
<path d="M15.2871 30.0615C15.2871 26.0527 16.9239 22.4421 19.6434 19.7736C20.0165 19.4075 20.6214 19.4075 20.9945 19.7736C21.3676 20.1397 21.3676 20.7333 20.9945 21.0994C18.6185 23.4309 17.1979 26.5702 17.1979 30.0615C17.1979 33.0898 18.2644 35.8761 20.158 38.0826C20.4979 38.4786 20.4462 39.0702 20.0426 39.4037C19.639 39.7372 19.0363 39.6864 18.6964 39.2904C16.5136 36.747 15.2871 33.5332 15.2871 30.0615Z" fill="white"/>
<path d="M42.803 30.0615C42.803 26.5703 41.3824 23.4309 39.0064 21.0995C38.6333 20.7333 38.6333 20.1397 39.0064 19.7736C39.3795 19.4075 39.9845 19.4075 40.3576 19.7736C43.0771 22.4421 44.7139 26.0528 44.7139 30.0615C44.7139 33.5332 43.4874 36.747 41.3046 39.2905C40.9647 39.6865 40.3619 39.7372 39.9582 39.4037C39.5546 39.0702 39.5031 38.4787 39.843 38.0826C41.7366 35.8761 42.803 33.0898 42.803 30.0615Z" fill="white"/>
</svg>
