<svg width="30" height="30" viewBox="0 0 30 30" fill="none" xmlns="http://www.w3.org/2000/svg">
<g clip-path="url(#clip0_592_594)">
<path d="M28.9285 14.8285C28.9078 17.2095 28.3666 19.5573 27.3428 21.7071" stroke="white" stroke-width="1.5" stroke-linecap="round" stroke-linejoin="round"/>
<path d="M14.9999 28.7571C13.1707 28.7571 11.3595 28.3968 9.66963 27.6968C7.97973 26.9968 6.44426 25.9709 5.15087 24.6775C2.53876 22.0654 1.07129 18.5226 1.07129 14.8285" stroke="white" stroke-width="1.5" stroke-linecap="round" stroke-linejoin="round"/>
<path d="M19.2856 19.1142L14.9999 13.7571H8.57129" stroke="white" stroke-width="1.5" stroke-linecap="round" stroke-linejoin="round"/>
<path d="M25.7143 27.6857C27.4895 27.6857 28.9286 26.2466 28.9286 24.4714C28.9286 22.6962 27.4895 21.2571 25.7143 21.2571C23.9391 21.2571 22.5 22.6962 22.5 24.4714C22.5 26.2466 23.9391 27.6857 25.7143 27.6857Z" stroke="white" stroke-width="1.5" stroke-linecap="round" stroke-linejoin="round"/>
<path d="M1.97168 9.68561C2.43868 8.51851 3.06615 7.42224 3.83597 6.42847" stroke="white" stroke-width="1.5" stroke-linecap="round" stroke-linejoin="round"/>
<path d="M7.97168 2.7428C9.17931 2.04548 10.4877 1.53948 11.8503 1.2428" stroke="white" stroke-width="1.5" stroke-linecap="round" stroke-linejoin="round"/>
<path d="M28.0283 9.68561C27.5613 8.51851 26.9339 7.42224 26.1641 6.42847" stroke="white" stroke-width="1.5" stroke-linecap="round" stroke-linejoin="round"/>
<path d="M22.028 2.7428C20.8204 2.04548 19.512 1.53948 18.1494 1.2428" stroke="white" stroke-width="1.5" stroke-linecap="round" stroke-linejoin="round"/>
</g>
<defs>
<clipPath id="clip0_592_594">
<rect width="30" height="30" fill="white"/>
</clipPath>
</defs>
</svg>
