<svg width="30" height="30" viewBox="0 0 30 30" fill="none" xmlns="http://www.w3.org/2000/svg">
<path d="M15 30C14.1818 30 13.6364 29.4545 13.6364 28.6364L13.6364 18.2727L6.27273 25.6364C5.72727 26.1818 4.90909 26.1818 4.36364 25.6364C3.81818 25.0909 3.81818 24.2727 4.36364 23.7273L11.7273 16.3636H1.36364C0.545455 16.3636 6.64256e-08 15.8182 6.29898e-08 15C5.9554e-08 14.1818 0.545455 13.6364 1.36364 13.6364H11.7273L4.36364 6.27273C3.81818 5.72727 3.81818 4.90909 4.36364 4.36364C4.90909 3.81818 5.72727 3.81818 6.27273 4.36364L13.6364 11.7273L13.6364 1.36364C13.6364 0.545455 14.1818 0 15 0C15.8182 0 16.3636 0.545455 16.3636 1.36364L16.3636 11.7273L23.7273 4.36364C24.2727 3.81818 25.0909 3.81818 25.6364 4.36364C26.1818 4.90909 26.1818 5.72727 25.6364 6.27273L18.2727 13.6364H28.6364C29.4545 13.6364 30 14.1818 30 15C30 15.8182 29.4545 16.3636 28.6364 16.3636H18.2727L25.6364 23.7273C26.1818 24.2727 26.1818 25.0909 25.6364 25.6364C25.0909 26.1818 24.2727 26.1818 23.7273 25.6364L16.3636 18.2727L16.3636 28.6364C16.3636 29.4545 15.8182 30 15 30Z" fill="#FB3602"/>
</svg>
