<svg width="40" height="40" viewBox="0 0 40 40" fill="none" xmlns="http://www.w3.org/2000/svg">
<g clip-path="url(#clip0_389_26673)">
<path d="M7.08336 0.5H32.9167C36.8334 0.5 40 3.66664 40 7.58336V32.4167C40 36.3334 36.8334 39.5001 32.9166 39.5001H7.08336C3.16664 39.5 0 36.3334 0 32.4166V7.58336C0 3.66664 3.16664 0.5 7.08336 0.5Z" fill="#001834"/>
<path d="M9 27.8513V10.7013C9 10.5847 9.05 10.518 9.16664 10.518C9.45 10.518 9.71664 10.518 10.1 10.5013C10.5 10.4847 10.9166 10.4847 11.3666 10.468C11.8166 10.4513 12.3 10.4513 12.8166 10.4346C13.3333 10.418 13.8333 10.418 14.3333 10.418C15.6999 10.418 16.8333 10.5846 17.7666 10.9346C18.6 11.218 19.3666 11.6846 20 12.3013C20.5334 12.8346 20.95 13.4846 21.2166 14.2013C21.4666 14.9013 21.6 15.6179 21.6 16.3679C21.6 17.8013 21.2666 18.9845 20.6 19.9179C19.9334 20.8513 19 21.5513 17.9166 21.9513C16.7833 22.3679 15.5333 22.5179 14.1666 22.5179C13.7666 22.5179 13.5 22.5179 13.3333 22.5013C13.1666 22.4846 12.9333 22.4846 12.6166 22.4846V27.8346C12.6333 27.9513 12.55 28.0513 12.4333 28.068C12.4166 28.068 12.3999 28.068 12.3666 28.068H9.2C9.06664 28.068 9 28.0013 9 27.8513ZM12.6334 13.7347V19.3347C12.8667 19.3513 13.0834 19.368 13.2834 19.368H14.1667C15.3176 19.368 16.6467 19.0976 17.45 18.1848C18.1413 17.3991 18.1433 15.8412 17.5834 14.9848C16.9187 13.9681 15.5895 13.6736 14.45 13.7014C14.0166 13.7014 13.6334 13.7014 13.3166 13.718C12.9834 13.7013 12.75 13.718 12.6334 13.7347Z" fill="#00A9FF"/>
<path d="M32.0001 18.3174C31.5001 18.0508 30.9667 17.8674 30.4001 17.7508C29.7835 17.6174 29.1667 17.5341 28.5335 17.5341C28.2001 17.5175 27.8501 17.5675 27.5335 17.6508C27.3168 17.7008 27.1335 17.8174 27.0168 17.9841C26.9335 18.1175 26.8835 18.2841 26.8835 18.4341C26.8835 18.5841 26.9501 18.7341 27.0501 18.8675C27.2001 19.0509 27.4001 19.2009 27.6167 19.3175C28.0001 19.5175 28.4001 19.7009 28.8001 19.8675C29.7001 20.1675 30.5667 20.5841 31.3667 21.0841C31.9167 21.4341 32.3667 21.9008 32.6834 22.4675C32.95 23.0009 33.0834 23.5841 33.0667 24.1841C33.0834 24.9675 32.8501 25.7508 32.4167 26.4008C31.9501 27.0674 31.3001 27.5841 30.5501 27.8841C29.7335 28.2341 28.7335 28.4175 27.5335 28.4175C26.7668 28.4175 26.0168 28.3509 25.2668 28.2009C24.6835 28.1009 24.1002 27.9175 23.5668 27.6675C23.4502 27.6009 23.3668 27.4841 23.3835 27.3509V24.4509C23.3835 24.4009 23.4001 24.3342 23.4501 24.3009C23.5001 24.2675 23.5501 24.2842 23.6001 24.3175C24.2501 24.7009 24.9335 24.9675 25.6667 25.1341C26.3001 25.3008 26.9667 25.3841 27.6334 25.3841C28.2667 25.3841 28.7167 25.3008 29.0167 25.1508C29.2834 25.0341 29.4667 24.7508 29.4667 24.4508C29.4667 24.2174 29.3334 24.0008 29.0667 23.7841C28.8001 23.5675 28.2501 23.3175 27.4334 23.0008C26.5834 22.7008 25.8 22.3008 25.0667 21.8008C24.5501 21.4341 24.1167 20.9508 23.8001 20.3841C23.5335 19.8508 23.4001 19.2675 23.4167 18.6841C23.4167 17.9675 23.6167 17.2841 23.9834 16.6675C24.4 16.0009 25.0167 15.4675 25.7334 15.1341C26.5167 14.7341 27.5 14.5508 28.6834 14.5508C29.3667 14.5508 30.0667 14.6008 30.75 14.7008C31.25 14.7674 31.7334 14.9008 32.1834 15.0841C32.25 15.1008 32.3167 15.1675 32.35 15.2341C32.3667 15.3008 32.3834 15.3675 32.3834 15.4341V18.1508C32.3834 18.2174 32.35 18.2841 32.3 18.3174C32.1501 18.3508 32.0667 18.3508 32.0001 18.3174Z" fill="#00A9FF"/>
</g>
<defs>
<clipPath id="clip0_389_26673">
<rect width="40" height="40" fill="white"/>
</clipPath>
</defs>
</svg>
