<svg width="40" height="40" viewBox="0 0 40 40" fill="none" xmlns="http://www.w3.org/2000/svg">
<path d="M20.0464 19.9987C20.0464 16.3168 23.0312 13.332 26.713 13.332C30.3949 13.332 33.3797 16.3169 33.3797 19.9987C33.3797 23.6806 30.3948 26.6653 26.713 26.6653C23.0311 26.6653 20.0464 23.6805 20.0464 19.9987Z" fill="#00BCFF"/>
<path d="M6.71338 33.3314C6.71338 29.6495 9.69814 26.6648 13.38 26.6648L16.9328 24.7891L20.0467 26.6648V33.3314C20.0467 37.0134 17.0619 39.998 13.38 39.998C9.69814 39.998 6.71338 37.0133 6.71338 33.3314Z" fill="#00CF7F"/>
<path d="M20.0466 0L16.4189 6.30234L20.0466 13.3333H26.6197C30.3017 13.3333 33.2864 10.3485 33.2864 6.66664C33.2864 2.98477 30.3016 0 26.6197 0H20.0466Z" fill="#FF7361"/>
<path d="M6.61963 6.66664C6.61963 10.3485 9.60439 13.3333 13.2863 13.3333L16.8228 14.6992L20.0464 13.3333V0H13.2862C9.60439 0 6.61963 2.98477 6.61963 6.66664Z" fill="#FF4D12"/>
<path d="M6.71338 19.9987C6.71338 23.6807 9.69814 26.6654 13.38 26.6654H20.0467V13.332H13.38C9.69814 13.332 6.71338 16.3169 6.71338 19.9987Z" fill="#B659FF"/>
</svg>
