<svg width="60" height="60" viewBox="0 0 60 60" fill="none" xmlns="http://www.w3.org/2000/svg">
<path d="M33.6942 0C34.1753 0 34.5812 0.350869 34.642 0.819088L35.4496 7.04635C38.0191 7.66242 40.4897 8.65649 42.695 10.0358L47.7598 6.19567L47.7962 6.16933C48.1777 5.90714 48.6998 5.95275 49.028 6.28305L53.9962 11.2831C54.3293 11.6183 54.3592 12.1434 54.0662 12.5131L50.0282 17.6072C51.4334 19.7726 52.4441 22.2128 52.9796 24.8456L59.1674 25.6328C59.6436 25.6934 60 26.0913 60 26.5625V33.6875C60 34.1587 59.6436 34.5566 59.1674 34.6172L52.9526 35.4077C52.321 38.0369 51.3072 40.3871 50.004 42.6155L53.9407 47.6143C54.2318 47.9839 54.2011 48.5075 53.8688 48.842L48.9007 53.842C48.5583 54.1866 48.0056 54.2207 47.6218 53.9212L42.559 49.9695C40.3559 51.346 37.8885 52.3383 35.3223 52.9535L34.5146 59.1809C34.4539 59.6491 34.0478 60 33.5668 60H26.4331C25.9521 60 25.5461 59.6491 25.4854 59.1809L24.6776 52.9535C22.1081 52.3374 19.6375 51.3434 17.4322 49.9641L12.3676 53.8043C11.9836 54.0955 11.4381 54.0579 11.0993 53.717L6.13122 48.717C5.79886 48.3825 5.7682 47.859 6.0593 47.4893L9.97277 42.5195C8.56694 40.3537 7.55595 37.9127 7.02026 35.2792L0.832552 34.4922C0.35636 34.4316 0 34.0336 0 33.5625V26.4375C0 25.9664 0.356356 25.5683 0.832552 25.5077L7.04735 24.7171C7.67954 22.088 8.702 19.7312 10.1087 17.4912L6.18662 12.5107C5.89555 12.141 5.92622 11.6175 6.25854 11.2831L11.2268 6.28305L11.2591 6.25194C11.5994 5.94002 12.1229 5.9136 12.495 6.19567L17.559 10.0353C19.7497 8.65621 22.1404 7.65799 24.8056 7.04063L25.6127 0.819088L25.6194 0.775576C25.6988 0.329289 26.0945 0 26.5605 0H33.6942ZM26.6165 7.93088C26.565 8.32765 26.2627 8.64871 25.8637 8.7303C22.9271 9.33061 20.3695 10.4076 18.0554 11.9612C17.7135 12.1908 17.2596 12.1779 16.9317 11.9293L12.0004 8.19016L8.2061 12.0087L12.0299 16.8642C12.2782 17.1795 12.2962 17.6143 12.0749 17.9484C10.4794 20.3569 9.38101 22.8743 8.76968 25.7536C8.6867 26.1445 8.36062 26.4409 7.95717 26.4923L1.91075 27.2613V32.7386L7.95717 33.5077C8.37466 33.5608 8.70749 33.8759 8.77672 34.2833C9.26344 37.1489 10.3576 39.7708 11.935 42.0331C12.169 42.3687 12.1558 42.814 11.9025 43.1357L8.07866 47.9912L11.8729 51.8097L16.8044 48.0707L16.8355 48.0481C17.1605 47.8215 17.5967 47.8164 17.928 48.0388C20.1634 49.5396 22.7536 50.6011 25.48 51.2136L25.7444 51.2714L25.7811 51.28C26.1581 51.3757 26.4397 51.6876 26.4892 52.0691L27.2747 58.1251H32.7253L33.5108 52.0691C33.5619 51.6753 33.8603 51.3557 34.2556 51.2714C37.0789 50.6691 39.7645 49.588 42.072 48.0388L42.1047 48.0178C42.4466 47.8077 42.8883 47.8307 43.2062 48.0788L48.1353 51.9262L51.9211 48.1161L48.0975 43.2607C47.8569 42.9552 47.8318 42.5362 48.0342 42.2051C49.5173 39.7797 50.6186 37.2524 51.2303 34.3713L51.2387 34.3349C51.3336 33.9622 51.652 33.6825 52.0428 33.6328L58.0891 32.8636V27.3862L52.0428 26.6172C51.6253 26.5641 51.2924 26.2491 51.2232 25.8416C50.7364 22.9761 49.6424 20.3541 48.065 18.0918C47.8304 17.7553 47.8443 17.3087 48.0994 16.9869L52.0466 12.0068L48.2542 8.19016L43.3231 11.9293C42.9952 12.1779 42.5413 12.1908 42.1993 11.9612C39.8918 10.412 37.2062 9.33088 34.383 8.72863C33.9876 8.64428 33.6893 8.32468 33.6382 7.93088L32.8527 1.87493H27.4021L26.6165 7.93088Z" fill="white"/>
<path d="M34.5216 20.3144C34.5216 17.8182 32.5149 15.7519 29.872 15.7519C27.3281 15.7519 25.2223 17.721 25.2223 20.3144C25.2223 21.2609 25.5504 22.2807 26.1388 22.9543C26.4822 23.3474 26.4358 23.9392 26.0351 24.2762C25.6345 24.6131 25.0314 24.5676 24.688 24.1745C23.7477 23.0981 23.3115 21.6179 23.3115 20.3144C23.3115 16.6578 26.3012 13.877 29.872 13.877C33.5984 13.877 36.4325 16.8106 36.4325 20.3144C36.4325 21.7551 35.9893 23.1061 35.0561 24.1745C34.7127 24.5676 34.1094 24.6131 33.7088 24.2762C33.3082 23.9392 33.2618 23.3474 33.6051 22.9543C34.2005 22.2727 34.5216 21.3736 34.5216 20.3144Z" fill="white"/>
<path d="M32.1025 27.8173C32.1025 27.2996 32.5303 26.8799 33.0579 26.8799C33.5856 26.8799 34.0133 27.2996 34.0133 27.8173C34.0133 29.9952 34.2597 32.0482 34.7523 34.1027C35.2365 36.122 36.0895 38.0456 37.0971 40.0231C37.3331 40.4862 37.1418 41.0493 36.6699 41.2809C36.1979 41.5124 35.624 41.3247 35.388 40.8616C34.3575 38.8391 33.4271 36.7627 32.8922 34.5321C32.3657 32.3365 32.1025 30.1395 32.1025 27.8173Z" fill="white"/>
<path d="M25.9881 27.8173C25.9881 27.2996 26.4158 26.8799 26.9435 26.8799C27.4712 26.8799 27.8989 27.2996 27.8989 27.8173C27.8989 32.3513 26.7113 36.8812 24.4692 40.8932C24.2155 41.3471 23.6347 41.5133 23.172 41.2644C22.7094 41.0155 22.5399 40.4456 22.7936 39.9916C24.8827 36.2535 25.9881 32.0334 25.9881 27.8173Z" fill="white"/>
<path d="M37.452 42.0644C37.452 41.7072 37.1154 41.3769 36.7514 41.3769H23.2482C22.8842 41.3769 22.5475 41.7071 22.5475 42.0644V44.502H37.452V42.0644ZM39.3628 45.4394C39.3628 45.9572 38.935 46.3769 38.4074 46.3769H21.5921C21.0644 46.3769 20.6367 45.9572 20.6367 45.4394V42.0644C20.6368 40.6716 21.8288 39.502 23.2482 39.502H36.7514C38.1707 39.502 39.3627 40.6716 39.3628 42.0644V45.4394Z" fill="white"/>
<path d="M36.1777 25.6885C36.1777 25.0448 35.6774 24.5009 34.9676 24.5009H25.1586C24.3459 24.5009 23.8895 25.1157 23.9426 25.5849C23.9465 25.6193 23.9484 25.6539 23.9484 25.6885C23.9485 26.3321 24.4488 26.8759 25.1586 26.8759H34.9676C35.6235 26.8759 36.1777 26.385 36.1777 25.6885ZM38.0886 25.6885C38.0886 27.4919 36.6046 28.7509 34.9676 28.751H25.1586C23.34 28.7509 22.0649 27.3252 22.0383 25.739C21.8736 23.9838 23.4407 22.626 25.1586 22.626H34.9676C36.8055 22.626 38.0886 24.0821 38.0886 25.6885Z" fill="white"/>
<path d="M15.2861 30.0644C15.2861 26.0557 16.9229 22.445 19.6424 19.7765C20.0155 19.4104 20.6204 19.4104 20.9935 19.7765C21.3666 20.1426 21.3666 20.7362 20.9935 21.1024C18.6175 23.4338 17.1969 26.5732 17.1969 30.0644C17.1969 33.0927 18.2634 35.879 20.157 38.0855C20.4969 38.4816 20.4452 39.0731 20.0416 39.4066C19.638 39.7401 19.0353 39.6894 18.6954 39.2934C16.5126 36.7499 15.2861 33.5361 15.2861 30.0644Z" fill="white"/>
<path d="M42.802 30.0644C42.802 26.5732 41.3814 23.4338 39.0054 21.1024C38.6323 20.7363 38.6323 20.1427 39.0054 19.7765C39.3785 19.4104 39.9835 19.4104 40.3566 19.7765C43.0761 22.4451 44.7129 26.0557 44.7129 30.0644C44.7129 33.5361 43.4864 36.7499 41.3036 39.2934C40.9637 39.6894 40.3609 39.7401 39.9573 39.4066C39.5537 39.0731 39.5021 38.4816 39.842 38.0856C41.7356 35.879 42.802 33.0927 42.802 30.0644Z" fill="white"/>
</svg>
