<svg width="60" height="60" viewBox="0 0 60 60" fill="none" xmlns="http://www.w3.org/2000/svg">
<path d="M3.75 20.625C3.50136 20.625 3.2629 20.7238 3.08709 20.8996C2.91127 21.0754 2.8125 21.3139 2.8125 21.5625V25.3125C2.8125 25.5611 2.91127 25.7996 3.08709 25.9754C3.2629 26.1512 3.50136 26.25 3.75 26.25H5.7941C6.0881 27.5241 6.57563 28.7456 7.23973 29.8719L4.96207 32.1496C4.87501 32.2366 4.80595 32.34 4.75883 32.4537C4.71172 32.5675 4.68747 32.6894 4.68747 32.8125C4.68747 32.9356 4.71172 33.0575 4.75883 33.1713C4.80595 33.285 4.87501 33.3884 4.96207 33.4754L7.77457 36.2879C7.86163 36.375 7.96498 36.4441 8.07872 36.4912C8.19247 36.5383 8.31438 36.5625 8.4375 36.5625C8.56062 36.5625 8.68253 36.5383 8.79628 36.4912C8.91002 36.4441 9.01337 36.375 9.10043 36.2879L11.3781 34.0103C12.5044 34.6744 13.7259 35.1619 15 35.4559V38.4375C15 38.6861 15.0988 38.9246 15.2746 39.1004C15.4504 39.2762 15.6889 39.375 15.9375 39.375H19.2246C19.8251 41.704 20.977 43.8544 22.5833 45.6446C24.1895 47.4348 26.2029 48.8123 28.4534 49.6609C30.7039 50.5094 33.1255 50.804 35.5139 50.5199C37.9022 50.2358 40.1871 49.3813 42.1758 48.0285L51.4487 57.3013C51.7099 57.5625 52.0199 57.7696 52.3612 57.911C52.7024 58.0523 53.0681 58.1251 53.4375 58.1251C53.8069 58.1251 54.1726 58.0523 54.5138 57.911C54.8551 57.7696 55.1651 57.5625 55.4263 57.3013C55.6875 57.0401 55.8946 56.7301 56.036 56.3888C56.1773 56.0476 56.2501 55.6819 56.2501 55.3125C56.2501 54.9431 56.1773 54.5774 56.036 54.2362C55.8946 53.8949 55.6875 53.5849 55.4263 53.3237L46.1534 44.0508C48.2092 41.0314 49.0904 37.3647 48.6311 33.7409C48.1719 30.1171 46.4039 26.7861 43.66 24.375H45C45.2486 24.375 45.4871 24.2762 45.6629 24.1004C45.8387 23.9246 45.9375 23.6861 45.9375 23.4375V19.8586C46.1223 19.3688 48.75 12.3895 48.75 12.1875C48.75 10.1259 48.1686 8.49937 47.0222 7.35281C45.8757 6.20625 44.2491 5.625 42.1875 5.625C40.1259 5.625 38.4994 6.20637 37.3528 7.35281C36.2062 8.49926 35.625 10.1259 35.625 12.1875C35.625 12.2999 38.4375 19.8574 38.4375 19.8574V21.3758C36.925 20.8773 35.3425 20.6239 33.75 20.625H29.8309C29.5369 19.3509 29.0494 18.1294 28.3853 17.0031L30.6629 14.7254C30.75 14.6384 30.8191 14.535 30.8662 14.4213C30.9133 14.3075 30.9375 14.1856 30.9375 14.0625C30.9375 13.9394 30.9133 13.8175 30.8662 13.7037C30.8191 13.59 30.75 13.4866 30.6629 13.3996L27.8504 10.5871C27.7634 10.5 27.66 10.431 27.5463 10.3838C27.4325 10.3367 27.3106 10.3125 27.1875 10.3125C27.0644 10.3125 26.9425 10.3367 26.8287 10.3838C26.715 10.431 26.6116 10.5 26.5246 10.5871L24.2469 12.8647C23.1206 12.2006 21.8991 11.7131 20.625 11.4191V8.4375C20.625 8.18886 20.5262 7.9504 20.3504 7.77459C20.1746 7.59877 19.9361 7.5 19.6875 7.5H15.9375C15.6889 7.5 15.4504 7.59877 15.2746 7.77459C15.0988 7.9504 15 8.18886 15 8.4375V11.4191C13.7259 11.7131 12.5044 12.2006 11.3781 12.8647L9.10043 10.5871C9.01337 10.5 8.91002 10.431 8.79628 10.3838C8.68253 10.3367 8.56062 10.3125 8.4375 10.3125C8.31438 10.3125 8.19247 10.3367 8.07872 10.3838C7.96498 10.431 7.86163 10.5 7.77457 10.5871L4.96207 13.3996C4.87501 13.4866 4.80595 13.59 4.75883 13.7037C4.71172 13.8175 4.68747 13.9394 4.68747 14.0625C4.68747 14.1856 4.71172 14.3075 4.75883 14.4213C4.80595 14.535 4.87501 14.6384 4.96207 14.7254L7.23973 17.0031C6.57563 18.1294 6.0881 19.3509 5.7941 20.625H3.75ZM54.1004 54.6497C54.1896 54.7363 54.2606 54.8397 54.3094 54.954C54.3582 55.0683 54.3838 55.1911 54.3847 55.3154C54.3856 55.4396 54.3618 55.5628 54.3147 55.6778C54.2675 55.7928 54.198 55.8973 54.1101 55.9851C54.0223 56.073 53.9178 56.1425 53.8028 56.1896C53.6878 56.2368 53.5646 56.2606 53.4404 56.2597C53.3161 56.2587 53.1932 56.2331 53.079 56.1843C52.9647 56.1355 52.8613 56.0645 52.7747 55.9753L43.6673 46.8682C44.1362 46.4541 44.579 46.0113 44.9931 45.5425L54.1004 54.6497ZM37.5015 12.0216C37.5571 9.02098 39.133 7.5 42.1875 7.5C45.2461 7.5 46.8218 9.02461 46.8736 12.0325C46.61 12.7563 45.3288 16.1605 44.3518 18.75H40.0246L37.5015 12.0216ZM40.3125 20.625H44.0625V22.5H41.0048C40.7777 22.3739 40.5469 22.2535 40.3125 22.1387V20.625ZM46.875 35.625C46.875 38.2205 46.1055 40.7577 44.6637 42.9159C43.2219 45.0741 41.1726 46.7564 38.7748 47.7501C36.377 48.7437 33.7385 49.0042 31.1928 48.4985C28.647 47.9928 26.3083 46.7436 24.4724 44.909C22.6365 43.0743 21.3857 40.7365 20.8783 38.1911C20.3708 35.6457 20.6295 33.007 21.6215 30.6085C22.6135 28.2101 24.2944 26.1596 26.4516 24.7163C28.6088 23.2731 31.1455 22.5018 33.741 22.5H33.75C37.2298 22.5039 40.5659 23.888 43.0264 26.3486C45.487 28.8091 46.8711 32.1452 46.875 35.625ZM17.8125 28.125C16.8854 28.125 15.9791 27.8501 15.2083 27.335C14.4374 26.8199 13.8366 26.0879 13.4818 25.2313C13.127 24.3748 13.0342 23.4323 13.2151 22.523C13.3959 21.6137 13.8424 20.7785 14.4979 20.1229C15.1535 19.4674 15.9887 19.0209 16.898 18.8401C17.8073 18.6592 18.7498 18.752 19.6063 19.1068C20.4629 19.4616 21.1949 20.0624 21.71 20.8333C22.2251 21.6041 22.5 22.5104 22.5 23.4375C22.4986 24.6803 22.0043 25.8717 21.1255 26.7505C20.2467 27.6293 19.0553 28.1236 17.8125 28.125ZM7.48723 21.7168C7.74484 20.1752 8.33102 18.7071 9.20602 17.412C9.33218 17.2314 9.39076 17.0122 9.37147 16.7928C9.35219 16.5734 9.25627 16.3678 9.10055 16.2121L6.95074 14.0625L8.4375 12.5757L10.5871 14.7254C10.7428 14.8812 10.9484 14.9771 11.1678 14.9964C11.3872 15.0156 11.6064 14.9571 11.787 14.8309C13.0821 13.9559 14.5502 13.3697 16.0918 13.1121C16.3107 13.0756 16.5095 12.9626 16.6529 12.7933C16.7963 12.624 16.875 12.4094 16.875 12.1875V9.375H18.75V12.1875C18.75 12.4094 18.8287 12.6241 18.9721 12.7934C19.1155 12.9627 19.3143 13.0757 19.5332 13.1122C21.0748 13.3698 22.5429 13.956 23.838 14.831C24.0186 14.9572 24.2378 15.0158 24.4572 14.9965C24.6766 14.9772 24.8822 14.8813 25.0379 14.7255L27.1875 12.5757L28.6743 14.0625L26.5246 16.2121C26.3688 16.3678 26.2729 16.5734 26.2536 16.7928C26.2344 17.0122 26.2929 17.2314 26.4191 17.412C27.2937 18.7065 27.8798 20.174 28.1375 21.7148C26.774 22.2676 25.499 23.0178 24.3537 23.9414C24.3664 23.7746 24.375 23.6068 24.375 23.4369C24.3756 22.0428 23.9324 20.6847 23.1096 19.5593C22.2868 18.4339 21.1272 17.5996 19.7986 17.1773C18.47 16.755 17.0415 16.7665 15.7199 17.2103C14.3983 17.654 13.2523 18.5069 12.4478 19.6455C11.6433 20.784 11.2222 22.1491 11.2453 23.543C11.2684 24.9369 11.7346 26.2873 12.5765 27.3985C13.4183 28.5098 14.592 29.3242 15.9275 29.7238C17.2631 30.1235 18.6912 30.0877 20.0051 29.6215C19.1753 31.5141 18.7479 33.5585 18.75 35.625C18.7501 36.2518 18.7892 36.878 18.8672 37.5H16.875V34.6875C16.875 34.4656 16.7963 34.2509 16.6529 34.0816C16.5095 33.9123 16.3107 33.7993 16.0918 33.7628C14.5502 33.5052 13.0821 32.919 11.787 32.044C11.6064 31.9178 11.3872 31.8592 11.1678 31.8785C10.9484 31.8978 10.7428 31.9937 10.5871 32.1495L8.4375 34.2993L6.95074 32.8125L9.10043 30.6629C9.25615 30.5072 9.35207 30.3016 9.37135 30.0822C9.39064 29.8628 9.33206 29.6436 9.2059 29.463C8.33091 28.1679 7.74472 26.6998 7.48711 25.1582C7.45058 24.9393 7.33763 24.7405 7.16833 24.5971C6.99904 24.4537 6.78437 24.375 6.5625 24.375H4.6875V22.5H6.5625C6.78439 22.5 6.99908 22.4213 7.16841 22.2779C7.33773 22.1345 7.4507 21.9357 7.48723 21.7168Z" fill="white"/>
<path d="M31.974 5.20567C31.8628 5.42805 31.8445 5.68549 31.9231 5.92136C32.0017 6.15724 32.1708 6.35223 32.3932 6.46344L34.2682 7.40094C34.3784 7.45714 34.4987 7.49097 34.622 7.50047C34.7454 7.50996 34.8694 7.49495 34.9869 7.45629C35.1045 7.41763 35.2132 7.35608 35.3068 7.2752C35.4005 7.19432 35.4772 7.09571 35.5325 6.98504C35.5878 6.87438 35.6207 6.75385 35.6293 6.63042C35.6378 6.50699 35.6218 6.38308 35.5822 6.26585C35.5427 6.14862 35.4803 6.04039 35.3987 5.94739C35.3171 5.85439 35.2179 5.77846 35.1068 5.72399L33.2318 4.78649C33.0094 4.67529 32.7519 4.65698 32.5161 4.73559C32.2802 4.8142 32.0852 4.98329 31.974 5.20567Z" fill="white"/>
<path d="M41.25 0.9375V2.8125C41.25 3.06114 41.3488 3.2996 41.5246 3.47541C41.7004 3.65123 41.9389 3.75 42.1875 3.75C42.4361 3.75 42.6746 3.65123 42.8504 3.47541C43.0262 3.2996 43.125 3.06114 43.125 2.8125V0.9375C43.125 0.68886 43.0262 0.450403 42.8504 0.274587C42.6746 0.0987721 42.4361 0 42.1875 0C41.9389 0 41.7004 0.0987721 41.5246 0.274587C41.3488 0.450403 41.25 0.68886 41.25 0.9375Z" fill="white"/>
<path d="M36.1432 1.03649C35.9208 1.1477 35.7517 1.34269 35.6731 1.57856C35.5945 1.81444 35.6128 2.07188 35.724 2.29426L36.6615 4.16926C36.716 4.28035 36.7919 4.37956 36.8849 4.46117C36.9779 4.54278 37.0861 4.60517 37.2034 4.64475C37.3206 4.68432 37.4445 4.7003 37.5679 4.69177C37.6914 4.68323 37.8119 4.65034 37.9225 4.595C38.0332 4.53966 38.1318 4.46296 38.2127 4.36933C38.2936 4.2757 38.3551 4.16698 38.3938 4.04944C38.4325 3.93191 38.4475 3.80789 38.438 3.68452C38.4285 3.56116 38.3946 3.44089 38.3384 3.33067L37.4009 1.45567C37.2897 1.23329 37.0947 1.0642 36.8589 0.985594C36.623 0.906983 36.3655 0.925289 36.1432 1.03649Z" fill="white"/>
<path d="M46.9734 1.45443L46.0359 3.32943C45.9797 3.43966 45.9459 3.55992 45.9364 3.68329C45.9269 3.80665 45.9419 3.93067 45.9805 4.04821C46.0192 4.16574 46.0807 4.27446 46.1616 4.36809C46.2425 4.46173 46.3411 4.53843 46.4518 4.59377C46.5624 4.64911 46.683 4.68199 46.8064 4.69053C46.9298 4.69907 47.0537 4.68309 47.171 4.64351C47.2882 4.60393 47.3964 4.54154 47.4894 4.45993C47.5824 4.37832 47.6584 4.27911 47.7128 4.16802L48.6503 2.29302C48.7065 2.18279 48.7404 2.06253 48.7499 1.93917C48.7594 1.8158 48.7444 1.69178 48.7057 1.57424C48.667 1.45671 48.6055 1.34799 48.5246 1.25436C48.4437 1.16072 48.3451 1.08403 48.2344 1.02869C48.1238 0.973346 48.0033 0.940459 47.8798 0.931922C47.7564 0.923385 47.6325 0.939365 47.5153 0.978943C47.398 1.01852 47.2898 1.08091 47.1968 1.16252C47.1038 1.24413 47.0279 1.34334 46.9734 1.45443Z" fill="white"/>
<path d="M51.1429 4.78589L49.2679 5.72339C49.1568 5.77786 49.0576 5.85379 48.976 5.94679C48.8944 6.03979 48.832 6.14802 48.7924 6.26525C48.7528 6.38248 48.7369 6.50639 48.7454 6.62982C48.7539 6.75325 48.7868 6.87378 48.8422 6.98444C48.8975 7.09511 48.9742 7.19372 49.0678 7.2746C49.1615 7.35548 49.2702 7.41703 49.3877 7.45569C49.5053 7.49435 49.6293 7.50936 49.7526 7.49987C49.876 7.49037 49.9963 7.45654 50.1065 7.40034L51.9815 6.46284C52.0926 6.40836 52.1918 6.33244 52.2734 6.23944C52.355 6.14644 52.4174 6.0382 52.457 5.92097C52.4966 5.80374 52.5125 5.67984 52.504 5.55641C52.4955 5.43297 52.4626 5.31245 52.4072 5.20178C52.3519 5.09112 52.2752 4.99251 52.1816 4.91163C52.0879 4.83074 51.9792 4.7692 51.8617 4.73054C51.7441 4.69188 51.6201 4.67686 51.4968 4.68636C51.3734 4.69586 51.2531 4.72969 51.1429 4.78589Z" fill="white"/>
<path d="M22.5 35.625C22.5 37.85 23.1598 40.0251 24.396 41.8752C25.6321 43.7252 27.3891 45.1672 29.4448 46.0186C31.5005 46.8701 33.7625 47.0929 35.9448 46.6588C38.1271 46.2248 40.1316 45.1533 41.705 43.58C43.2783 42.0066 44.3498 40.0021 44.7838 37.8198C45.2179 35.6375 44.9951 33.3755 44.1436 31.3198C43.2922 29.2641 41.8502 27.5071 40.0002 26.271C38.1501 25.0348 35.975 24.375 33.75 24.375C30.7673 24.3783 27.9078 25.5647 25.7987 27.6737C23.6897 29.7828 22.5033 32.6423 22.5 35.625ZM43.125 35.625C43.125 37.4792 42.5752 39.2918 41.545 40.8335C40.5149 42.3752 39.0507 43.5768 37.3377 44.2864C35.6246 44.9959 33.7396 45.1816 31.921 44.8199C30.1025 44.4581 28.432 43.5652 27.1209 42.2541C25.8098 40.943 24.9169 39.2725 24.5551 37.454C24.1934 35.6354 24.3791 33.7504 25.0886 32.0373C25.7982 30.3243 26.9998 28.8601 28.5415 27.83C30.0832 26.7998 31.8958 26.25 33.75 26.25C36.2355 26.2528 38.6185 27.2414 40.376 28.999C42.1335 30.7565 43.1222 33.1395 43.125 35.625Z" fill="white"/>
<path d="M28.125 35.625C28.125 35.3764 28.0262 35.1379 27.8504 34.9621C27.6746 34.7863 27.4361 34.6875 27.1875 34.6875C26.9389 34.6875 26.7004 34.7863 26.5246 34.9621C26.3488 35.1379 26.25 35.3764 26.25 35.625C26.2522 37.6134 27.0431 39.5198 28.4492 40.9258C29.8552 42.3319 31.7616 43.1228 33.75 43.125C33.9986 43.125 34.2371 43.0262 34.4129 42.8504C34.5887 42.6746 34.6875 42.4361 34.6875 42.1875C34.6875 41.9389 34.5887 41.7004 34.4129 41.5246C34.2371 41.3488 33.9986 41.25 33.75 41.25C32.2587 41.2484 30.8289 40.6552 29.7743 39.6007C28.7198 38.5461 28.1266 37.1163 28.125 35.625Z" fill="white"/>
</svg>
