<svg width="33" height="33" viewBox="0 0 33 33" fill="none" xmlns="http://www.w3.org/2000/svg">
<g clip-path="url(#clip0_403_29389)">
<path d="M16.9878 29.7367C16.2396 29.7895 15.7056 29.326 15.6528 28.5779L14.9835 19.1015L8.72583 26.3102C8.2623 26.8442 7.51416 26.8971 6.98018 26.4335C6.44619 25.97 6.39335 25.2219 6.85688 24.6879L13.1146 17.4791L3.63816 18.1484C2.89002 18.2012 2.35604 17.7377 2.3032 16.9896C2.25036 16.2414 2.71389 15.7075 3.46203 15.6546L12.9384 14.9853L5.72964 8.72764C5.19565 8.26411 5.14281 7.51598 5.60634 6.98199C6.06988 6.44801 6.81801 6.39517 7.352 6.8587L14.5608 13.1164L13.8915 3.63998C13.8386 2.89184 14.3022 2.35786 15.0503 2.30502C15.7984 2.25218 16.3324 2.71571 16.3853 3.46384L17.0546 12.9402L23.3122 5.73145C23.7758 5.19747 24.5239 5.14463 25.0579 5.60816C25.5919 6.07169 25.6447 6.81983 25.1812 7.35381L18.9235 14.5626L28.3999 13.8933C29.148 13.8405 29.682 14.304 29.7349 15.0521C29.7877 15.8003 29.3242 16.3342 28.576 16.3871L19.0996 17.0564L26.3084 23.3141C26.8424 23.7776 26.8953 24.5257 26.4317 25.0597C25.9682 25.5937 25.2201 25.6465 24.6861 25.183L17.4773 18.9253L18.1466 28.4017C18.1994 29.1499 17.7359 29.6838 16.9878 29.7367Z" fill="white"/>
</g>
<defs>
<clipPath id="clip0_403_29389">
<rect width="30" height="30" fill="white" transform="translate(0 2.11359) rotate(-4.04)"/>
</clipPath>
</defs>
</svg>
