<svg width="50" height="50" viewBox="0 0 50 50" fill="none" xmlns="http://www.w3.org/2000/svg">
<path d="M32.4983 25.8581C38.4126 25.8581 43.2243 21.2745 43.2243 15.6407C43.2243 10.0069 38.4126 5.42332 32.4983 5.42332C26.584 5.42332 21.7725 10.0069 21.7725 15.6407C21.7725 21.2745 26.5841 25.8581 32.4983 25.8581ZM26.1897 22.1017C26.833 19.2824 29.4281 17.2716 32.4983 17.2716C35.5686 17.2716 38.1636 19.2824 38.807 22.1017C37.1514 23.5697 34.9332 24.4692 32.4983 24.4692C30.0635 24.4692 27.8454 23.5697 26.1897 22.1017ZM32.4983 15.8605C31.0124 15.8605 29.8035 14.709 29.8035 13.2935C29.8035 11.878 31.0124 10.7265 32.4983 10.7265C33.9842 10.7265 35.1931 11.878 35.1931 13.2935C35.1931 14.709 33.9842 15.8605 32.4983 15.8605ZM32.4983 6.81212C37.6086 6.81212 41.7663 10.7725 41.7663 15.6406C41.7663 17.6014 41.0914 19.4147 39.9518 20.8815C39.4929 19.6632 38.7082 18.5661 37.664 17.7091C36.922 17.0999 36.0726 16.6337 35.1636 16.3241C36.0722 15.5978 36.6512 14.5091 36.6512 13.2934C36.6512 11.1121 34.7882 9.33752 32.4983 9.33752C30.2084 9.33752 28.3455 11.1121 28.3455 13.2934C28.3455 14.5091 28.9245 15.5978 29.8332 16.3241C28.9241 16.6337 28.0747 17.0999 27.3327 17.7091C26.2887 18.5662 25.5039 19.6632 25.045 20.8815C23.9054 19.4147 23.2305 17.6014 23.2305 15.6406C23.2305 10.7725 27.388 6.81212 32.4983 6.81212ZM49.452 31.612C48.7414 30.8433 47.3014 30.4651 45.6867 31.3531C43.6725 32.4609 38.6701 34.7846 34.9177 36.1425C35.0645 35.4775 34.9464 34.7803 34.5625 34.1648C34.0104 33.2799 33.0395 32.7729 31.9642 32.8068C27.3221 32.8046 24.3182 31.6176 21.6675 30.5703C19.2577 29.618 17.1768 28.7955 14.7146 29.3633C12.2287 29.9364 9.58241 31.8996 6.16734 35.7108C5.28535 35.307 4.19414 35.4506 3.46399 36.1461L0.213468 39.2425C-0.0711559 39.5138 -0.0711559 39.9534 0.213468 40.2246L10.2618 49.7966C10.3986 49.9268 10.584 50 10.7774 50C10.9707 50 11.1561 49.9268 11.2929 49.7966L14.5434 46.7001C14.9896 46.2749 15.2355 45.708 15.2355 45.1039C15.2355 44.8226 15.1801 44.5502 15.0782 44.2956C17.1531 43.4676 19.4663 43.396 22.4227 43.5647C23.0871 43.6026 23.7845 43.656 24.5229 43.7127C26.2748 43.8471 28.0868 43.9863 29.8369 43.9492C33.5148 43.8718 35.7282 42.8879 38.6853 41.3956C41.6991 39.8749 48.1267 36.2431 49.3276 34.7396C50.1767 33.6762 50.2255 32.4486 49.452 31.6121V31.612ZM13.5124 45.7179L10.7773 48.3234L1.75989 39.7335L4.49501 37.128C4.85045 36.7894 5.42897 36.7894 5.78451 37.128L13.5125 44.4897C13.6834 44.6525 13.7775 44.8705 13.7775 45.1038C13.7775 45.337 13.6833 45.5551 13.5124 45.7179ZM48.1672 33.8986C47.3219 34.957 41.9155 38.1939 38.0027 40.1682C35.2299 41.5674 33.1613 42.4899 29.8046 42.5606C28.1288 42.5957 26.3551 42.4598 24.6399 42.3282C23.8938 42.2709 23.1891 42.2168 22.5096 42.1782C19.8866 42.0287 16.887 41.9759 14.1756 43.1573L7.28928 36.5976C14.0426 29.0616 16.5708 30.06 21.1088 31.8531C23.75 32.8969 27.0369 34.1957 31.9767 34.1957C31.9858 34.1957 31.995 34.1955 32.0042 34.1952C32.5456 34.1756 33.0314 34.4297 33.3089 34.8744C33.5863 35.319 33.5873 35.8485 33.3114 36.2905C32.8089 37.096 30.99 37.514 28.4466 37.4079C26.0617 37.3088 23.6616 36.766 22.7187 36.2987C22.3616 36.1218 21.9214 36.2538 21.7355 36.5941C21.5496 36.9343 21.6886 37.3536 22.0457 37.5307C23.3231 38.1641 25.9883 38.6959 28.3831 38.7955C28.6505 38.8066 28.927 38.8131 29.2085 38.8131C30.4843 38.8131 31.861 38.6795 32.9468 38.2436C36.7379 37.2257 43.8098 33.989 46.4155 32.5558C47.3112 32.0633 48.0502 32.1971 48.3577 32.5298C48.6608 32.8576 48.5895 33.3693 48.1669 33.8985L48.1672 33.8986ZM14.8666 28.8953C17.1493 28.8953 19.1669 27.7965 20.3694 26.1255C20.5219 26.3229 20.6933 26.5144 20.8885 26.7004C22.057 27.8133 23.4858 28.2154 25.2574 27.9293C26.5354 27.7231 27.7464 28.2009 28.4968 29.2076C29.5373 30.6031 30.8463 31.2815 32.4985 31.2815C34.1508 31.2815 35.4598 30.6031 36.5001 29.2076C37.2507 28.201 38.4617 27.7234 39.7397 27.9294C41.5111 28.215 42.9406 27.8131 44.1085 26.7004C45.277 25.5873 45.699 24.2258 45.3987 22.5385C45.1822 21.3212 45.6838 20.1677 46.7406 19.4527C48.2055 18.4615 48.9177 17.2146 48.9177 15.6408C48.9177 14.067 48.2055 12.82 46.7406 11.8288C45.6839 11.1138 45.1823 9.96034 45.3989 8.74287C45.6987 7.05507 45.2767 5.69376 44.1085 4.58106C42.94 3.46796 41.5107 3.06578 39.7396 3.35209C38.4618 3.55804 37.2507 3.08046 36.5002 2.07391C35.4599 0.678374 34.1509 0 32.4986 0C30.8464 0 29.5374 0.678374 28.4969 2.07391C27.7464 3.08046 26.5352 3.55834 25.2574 3.35199C23.486 3.06638 22.0566 3.46846 20.8885 4.58106C19.72 5.69416 19.2981 7.05557 19.5985 8.74297C19.815 9.96024 19.3134 11.1138 18.2566 11.8288C16.7916 12.82 16.0795 14.0669 16.0795 15.6408C16.0795 15.8695 16.0966 16.0914 16.127 16.3076C15.7186 16.2329 15.2977 16.1923 14.8669 16.1923C11.1903 16.1923 8.19918 19.0416 8.19918 22.5439C8.19918 26.0462 11.1903 28.8955 14.8669 28.8955L14.8666 28.8953ZM17.5373 15.6407C17.5373 14.519 18.0195 13.6926 19.1007 12.961C20.6246 11.93 21.348 10.2664 21.0358 8.51073C20.8141 7.26539 21.0865 6.35636 21.9193 5.56311C22.763 4.75943 23.6884 4.50775 25.0139 4.72134C26.857 5.01886 28.6032 4.32977 29.6855 2.87808C30.4535 1.84812 31.321 1.38879 32.4985 1.38879C33.6761 1.38879 34.5436 1.84812 35.3116 2.87808C36.3939 4.32977 38.1403 5.01886 39.9832 4.72144C41.2904 4.51033 42.2448 4.76985 43.0776 5.56311C43.9214 6.36678 44.1856 7.24843 43.9613 8.51093C43.649 10.2665 44.3723 11.9301 45.8963 12.9611C46.9775 13.6927 47.4597 14.5191 47.4597 15.6408C47.4597 16.7625 46.9775 17.5889 45.8963 18.3204C44.3723 19.3515 43.6489 21.0151 43.9612 22.7707C44.1828 24.0159 43.9104 24.925 43.0776 25.7183C42.234 26.522 41.3087 26.7736 39.9831 26.5601C38.1405 26.2628 36.3938 26.9518 35.3115 28.4034C34.5436 29.4334 33.6761 29.8926 32.4985 29.8926C31.321 29.8926 30.4535 29.4334 29.6855 28.4034C28.6032 26.9517 26.8567 26.2625 25.0138 26.5601C23.7064 26.7713 22.7522 26.5117 21.9194 25.7184C21.5642 25.38 21.3148 25.0253 21.1595 24.64C21.4013 23.9833 21.5343 23.2782 21.5343 22.5438C21.5343 20.0282 19.9911 17.8496 17.7592 16.8217C17.6109 16.4692 17.5373 16.0809 17.5373 15.6407ZM14.8666 17.5811C17.7392 17.5811 20.0763 19.8073 20.0763 22.5438C20.0763 25.2803 17.7393 27.5065 14.8666 27.5065C11.994 27.5065 9.65698 25.2803 9.65698 22.5438C9.65698 19.8073 11.9941 17.5811 14.8666 17.5811ZM11.6824 22.3985C11.4811 22.0663 11.6005 21.6416 11.9492 21.4498C12.2977 21.2582 12.7437 21.3719 12.945 21.704L13.8454 23.1896L16.9041 20.2759C17.1888 20.0048 17.6504 20.0049 17.935 20.2759C18.2196 20.5472 18.2196 20.9868 17.935 21.258L14.2045 24.8116C14.0669 24.9426 13.8811 25.0149 13.6891 25.0149C13.6574 25.0149 13.6257 25.0129 13.5939 25.009C13.3692 24.9808 13.171 24.8547 13.0578 24.6677L11.6824 22.3985Z" fill="white"/>
</svg>
