<svg width="40" height="40" viewBox="0 0 40 40" fill="none" xmlns="http://www.w3.org/2000/svg">
<path d="M17.401 6.01739C17.401 5.63748 17.7085 5.32947 18.0877 5.32947H28.8269C29.2062 5.32947 29.5136 5.63748 29.5136 6.01739C29.5136 6.39729 29.2062 6.7053 28.8269 6.7053H18.0877C17.7085 6.7053 17.401 6.39738 17.401 6.01739ZM11.74 7.48446C11.8741 7.61877 12.0498 7.68593 12.2256 7.68593C12.4013 7.68593 12.5771 7.61877 12.7111 7.48446L14.816 5.37573C15.0843 5.1071 15.0842 4.67156 14.816 4.40293C14.5479 4.1343 14.1131 4.1343 13.845 4.40293L12.2256 6.0253L11.6587 5.45734C11.3906 5.1887 10.9558 5.1887 10.6877 5.45734C10.4194 5.72597 10.4195 6.16151 10.6877 6.43014L11.74 7.48446ZM18.0877 14.0425H28.8269C29.2062 14.0425 29.5136 13.7345 29.5136 13.3546C29.5136 12.9747 29.2062 12.6667 28.8269 12.6667H18.0877C17.7085 12.6667 17.401 12.9747 17.401 13.3546C17.401 13.7345 17.7085 14.0425 18.0877 14.0425ZM11.74 14.8954C11.8741 15.0297 12.0498 15.0969 12.2256 15.0969C12.4013 15.0969 12.5771 15.0297 12.7111 14.8954L14.816 12.7867C15.0843 12.518 15.0842 12.0825 14.816 11.8139C14.5479 11.5452 14.1131 11.5452 13.845 11.8139L12.2256 13.4362L11.6587 12.8683C11.3906 12.5996 10.9558 12.5996 10.6877 12.8683C10.4194 13.1369 10.4195 13.5724 10.6877 13.8411L11.74 14.8954ZM38.9754 27.0988L35.9388 28.855C35.6243 29.037 35.2747 29.1299 34.9199 29.1299C34.7411 29.1299 34.5611 29.1064 34.3835 29.0587C33.8536 28.9164 33.4113 28.577 33.1382 28.1033L33.0551 27.9592L31.519 28.745C31.9783 29.4745 31.9119 30.3741 31.5083 31.0693C31.3054 31.4187 31.0155 31.7197 30.6681 31.9276C30.8695 32.258 30.9766 32.6368 30.9751 33.0402C30.972 33.8762 30.5021 34.6848 29.7778 35.1001C29.3754 35.3308 28.9304 35.4204 28.4848 35.3688C28.462 35.7439 28.3467 36.1124 28.1583 36.4365C27.7598 37.1218 27.0263 37.6176 26.1826 37.5959C26.1736 38.001 26.0556 38.402 25.8524 38.7513C25.4633 39.4206 24.7552 39.9115 23.9357 39.9115C23.5624 39.9115 23.1659 39.8096 22.766 39.5763L20.9525 38.5184L20.5997 39.0209C20.1578 39.6504 19.5101 40 18.8003 40C18.7352 40 18.6697 39.9971 18.6036 39.9911C17.7895 39.918 17.0398 39.4 16.6795 38.666C15.9146 39.062 15.025 38.9179 14.368 38.4549C13.9437 38.156 13.6114 37.7207 13.4599 37.2195C12.8291 37.3577 12.1683 37.1908 11.6513 36.8265C11.0074 36.3727 10.5757 35.6048 10.6655 34.7695C10.2606 34.7269 9.86915 34.5743 9.53697 34.3402C8.61649 33.6915 8.12972 32.4006 8.9806 31.1888L9.03896 31.1057L6.76255 28.2578C6.48737 28.6506 6.08687 28.9325 5.61658 29.0588C5.43908 29.1065 5.25891 29.13 5.0802 29.13C4.72536 29.13 4.37576 29.0371 4.06118 28.8551L1.02471 27.0988C0.0456796 26.5326 -0.290962 25.274 0.274256 24.2931L5.60353 15.0458C5.76731 14.7617 5.98927 14.5319 6.24549 14.3621V0.687918C6.24549 0.308015 6.55295 0 6.93216 0H33.0678C33.447 0 33.7545 0.308015 33.7545 0.687918V14.3621C34.0107 14.5318 34.2328 14.7616 34.3965 15.0457L39.7257 24.293C40.291 25.274 39.9543 26.5326 38.9754 27.0988ZM7.61884 1.37584V14.0332C7.88793 14.0646 8.15504 14.1499 8.40413 14.294L11.4407 16.0503C11.9136 16.3239 12.2523 16.7669 12.3943 17.2979C12.4828 17.6288 12.488 17.9685 12.4134 18.2922L16.2205 19.6546C17.8262 18.2167 19.0108 17.7058 21.4542 18.2446C23.7449 18.7498 25.6663 18.7544 27.578 18.2505C27.513 17.9393 27.5208 17.6146 27.6056 17.2978C27.7476 16.7668 28.0863 16.3237 28.5593 16.0502L31.5958 14.2939C31.8449 14.1498 32.112 14.0646 32.3811 14.0332V1.37584H7.61884ZM5.67246 27.4154L11.0017 18.1681C11.0913 18.0125 11.1149 17.83 11.0678 17.654C11.0208 17.4781 10.9093 17.3317 10.754 17.2419L7.71755 15.4855C7.61128 15.4241 7.49498 15.3948 7.38022 15.3948C7.14606 15.3948 6.91817 15.5165 6.79294 15.7337L1.46366 24.981C1.27706 25.3049 1.38821 25.7204 1.71138 25.9072L4.74794 27.6637C4.9033 27.7535 5.08561 27.7771 5.26114 27.7298C5.43676 27.6827 5.58285 27.571 5.67246 27.4154ZM11.5625 33.0087L13.1406 30.761L13.1409 30.7606C13.6205 30.0752 13.0376 29.613 12.9159 29.5273C12.7941 29.4415 12.1623 29.0485 11.6809 29.7342L10.1038 31.9802C9.62221 32.6661 10.2054 33.129 10.3272 33.2148C10.4489 33.3007 11.0804 33.6939 11.5621 33.0092L11.5625 33.0087ZM13.8109 35.3037L16.0155 32.1638L16.3507 31.6864C16.8323 31.0005 16.249 30.5376 16.1272 30.4518C16.0054 30.3659 15.3734 29.9725 14.8917 30.6583L14.2645 31.5517C14.2644 31.5519 14.2643 31.5519 14.2642 31.5521L14.264 31.5525L12.6858 33.8002L12.2181 34.4664C11.7365 35.1524 12.3197 35.6153 12.4415 35.7011C12.5633 35.7868 13.1954 36.1802 13.677 35.4945L13.8109 35.3037ZM16.8926 36.4119C16.8931 36.4112 16.8937 36.4105 16.8942 36.4098L17.685 35.2835L18.5971 33.9843C19.0786 33.2986 18.4956 32.8357 18.3739 32.7498C18.2522 32.6641 17.621 32.2708 17.1395 32.9545L17.1388 32.9556L14.9343 36.0953L14.9339 36.096C14.4535 36.7814 15.0363 37.2439 15.1581 37.3298C15.2799 37.4156 15.912 37.8091 16.3935 37.1231L16.8926 36.4119ZM20.0435 35.8685C19.9217 35.7826 19.2901 35.3894 18.8086 36.0746L18.8083 36.0751L18.0175 37.2015C17.8165 37.4878 17.778 37.7703 17.9033 38.0411C18.0472 38.3518 18.3856 38.5904 18.7262 38.6209C19.0229 38.6476 19.2753 38.5158 19.4764 38.2295L20.2671 37.1033C20.7486 36.4173 20.1653 35.9544 20.0435 35.8685ZM30.0096 29.1624L21.5182 24.2383C20.7549 23.7967 20.0003 24.1149 18.8323 24.6704C18.7756 24.6973 18.7189 24.7243 18.6621 24.7511C18.5769 24.9226 18.4909 25.1067 18.4013 25.2983C17.9603 26.2422 17.4604 27.312 16.5957 27.7797C15.578 28.3299 14.6698 28.4139 14.0384 28.016C13.7477 27.8327 13.2672 27.3773 13.3142 26.3852L13.496 22.5509C13.5042 22.3762 13.5787 22.2111 13.7042 22.0894C14.0614 21.7429 14.3818 21.4266 14.6918 21.1207C14.8335 20.9809 14.9699 20.8463 15.103 20.7156L11.8004 19.5337L7.50562 26.9861L9.86169 29.9336L10.5575 28.9425C11.4081 27.7309 12.785 27.7534 13.7056 28.4015C14.0052 28.6124 14.259 28.8913 14.4356 29.2135C15.2357 28.6993 16.2109 28.8285 16.9173 29.3263C17.5101 29.7439 17.9231 30.428 17.9149 31.1855C18.3624 31.2081 18.7992 31.367 19.1643 31.6244C19.9789 32.1988 20.4536 33.2758 19.9621 34.3559C20.2745 34.4253 20.5724 34.5588 20.8337 34.743C21.6178 35.2957 22.0865 36.3139 21.683 37.3524L23.4571 38.3873C24.1806 38.8091 24.5908 38.1876 24.6658 38.0587C24.7407 37.9299 25.0777 37.2662 24.3561 36.8439L24.3551 36.8433C24.3551 36.8432 24.3551 36.8432 24.3549 36.8431C24.3549 36.8431 24.3549 36.8431 24.3548 36.8431L22.0689 35.5098C21.7411 35.3186 21.6302 34.8975 21.821 34.5692C22.0118 34.2409 22.4321 34.1298 22.7599 34.3209L25.0459 35.6543C25.0459 35.6544 25.0461 35.6544 25.0462 35.6545L25.0465 35.6547C25.047 35.6549 25.0475 35.6553 25.048 35.6555L25.7628 36.0727C26.4861 36.4945 26.8965 35.8729 26.9715 35.7441C27.0465 35.6152 27.3834 34.9515 26.6618 34.5292L26.6607 34.5286C26.6607 34.5286 26.6606 34.5286 26.6606 34.5286C26.6604 34.5285 26.6602 34.5283 26.6601 34.5282L23.8577 32.8936C23.53 32.7024 23.419 32.2813 23.6098 31.953C23.8007 31.6247 24.2211 31.5136 24.5488 31.7047L27.3519 33.3398L27.352 33.3398C27.3526 33.3402 27.3531 33.3404 27.3536 33.3408L28.2507 33.8641C28.5529 34.0404 28.8371 34.0544 29.0956 33.9062C29.3924 33.736 29.6006 33.3778 29.6018 33.0352C29.6029 32.7367 29.4503 32.496 29.1482 32.3198L28.4236 31.8971C28.4234 31.897 28.4232 31.8969 28.423 31.8968L28.4224 31.8964C28.4223 31.8963 28.4221 31.8962 28.4221 31.8962L25.6467 30.2773C25.319 30.0862 25.208 29.6651 25.3988 29.3368C25.5897 29.0085 26.0099 28.8974 26.3377 29.0884L29.1131 30.7073C29.8366 31.1283 30.2464 30.5066 30.3212 30.3777C30.3959 30.2487 30.7326 29.5842 30.0096 29.1624ZM32.3675 26.7661L28.186 19.5103C25.3021 20.3259 22.814 19.9533 21.159 19.5883C18.7413 19.0554 18.149 19.64 15.6557 22.101C15.4125 22.341 15.1427 22.6072 14.8549 22.8879L14.686 26.4507C14.6749 26.6842 14.7201 26.8204 14.7698 26.8517C14.8859 26.9247 15.3074 26.9131 15.9434 26.5691C16.409 26.3173 16.8066 25.4662 17.1575 24.7152C17.2848 24.4426 17.4166 24.1609 17.5522 23.9049C17.6226 23.772 17.7347 23.666 17.8711 23.6029C17.9953 23.5454 18.1195 23.4865 18.2433 23.4275C19.4315 22.8623 20.7783 22.2218 22.2056 23.0472L30.3756 27.7849L32.3675 26.7661ZM38.5363 24.981L33.2071 15.7337C33.0205 15.4099 32.6057 15.2986 32.2825 15.4855L29.246 17.2419C29.0907 17.3317 28.9793 17.4781 28.9322 17.654C28.8851 17.83 28.9086 18.0125 28.9983 18.1681L34.3275 27.4155C34.4171 27.571 34.5633 27.6827 34.7389 27.7298C34.9147 27.7773 35.0968 27.7535 35.2521 27.6637L38.2887 25.9073C38.6119 25.7204 38.723 25.3048 38.5363 24.981Z" fill="white"/>
</svg>
