<svg width="60" height="60" viewBox="0 0 60 60" fill="none" xmlns="http://www.w3.org/2000/svg">
<mask id="mask0_389_27724" style="mask-type:luminance" maskUnits="userSpaceOnUse" x="0" y="0" width="60" height="60">
<path d="M0 0H60V60H0V0Z" fill="white"/>
</mask>
<g mask="url(#mask0_389_27724)">
<path d="M27.0595 4.32031C27.5449 4.32029 27.9384 3.9268 27.9384 3.4414C27.9384 2.95601 27.5449 2.56252 27.0595 2.5625H9.41699C8.93159 2.5625 8.53809 2.956 8.53809 3.4414C8.53809 3.92681 8.93159 4.32031 9.41699 4.32031H27.0595Z" fill="white"/>
<path d="M50.9811 4.32031C51.4666 4.32031 51.8601 3.92681 51.8601 3.4414C51.8601 2.956 51.4666 2.5625 50.9811 2.5625H32.5645C32.079 2.5625 31.6855 2.956 31.6855 3.4414C31.6855 3.92681 32.079 4.32031 32.5645 4.32031H50.9811Z" fill="white"/>
<path d="M8.14112 3.44259C8.14111 4.16027 7.55928 4.74206 6.84147 4.74206C6.12381 4.74205 5.542 4.1603 5.54199 3.44259C5.54199 2.72486 6.1238 2.14312 6.84147 2.14311C7.55929 2.14311 8.14112 2.72489 8.14112 3.44259ZM9.89893 3.44259C9.89893 1.75395 8.52998 0.385296 6.84147 0.385296C5.15305 0.385305 3.78418 1.75399 3.78418 3.44259C3.78419 5.13117 5.15306 6.49987 6.84147 6.49987C8.52997 6.49987 9.89892 5.13121 9.89893 3.44259Z" fill="white"/>
<path d="M54.4585 3.44259C54.4585 4.16027 53.8767 4.74206 53.1589 4.74206C52.4412 4.74205 51.8594 4.1603 51.8594 3.44259C51.8594 2.72486 52.4412 2.14312 53.1589 2.14311C53.8767 2.14311 54.4585 2.72489 54.4585 3.44259ZM56.2163 3.44259C56.2163 1.75395 54.8474 0.385296 53.1589 0.385296C51.4704 0.385305 50.1016 1.75399 50.1016 3.44259C50.1016 5.13117 51.4704 6.49987 53.1589 6.49987C54.8474 6.49987 56.2163 5.13121 56.2163 3.44259Z" fill="white"/>
<path d="M55.5431 27.3437C55.5926 27.8265 56.0243 28.1777 56.5072 28.1281C56.99 28.0786 57.3413 27.6469 57.2917 27.1641C55.9705 14.2945 45.7567 4.06253 32.8955 2.71308C32.4128 2.66242 31.9803 3.01268 31.9297 3.49542C31.879 3.97817 32.2293 4.4106 32.712 4.46128C44.7463 5.72395 54.3068 15.3016 55.5431 27.3437Z" fill="white"/>
<path d="M3.49135 28.1595C3.97426 28.2085 4.40556 27.8568 4.45462 27.3739C5.67446 15.363 15.1747 5.79768 27.1557 4.47778C27.6382 4.42462 27.9863 3.99038 27.9332 3.50789C27.88 3.02542 27.4458 2.67738 26.9633 2.73052C14.159 4.14111 4.00942 14.3599 2.70574 27.1962C2.65669 27.6791 3.00844 28.1104 3.49135 28.1595Z" fill="white"/>
<path d="M28.3154 54.8721H31.6855V58.2422H28.3154V54.8721ZM33.4433 54.5791C33.4433 53.7702 32.7874 53.1143 31.9785 53.1143H28.0225C27.2135 53.1143 26.5576 53.7702 26.5576 54.5791V58.5351C26.5576 59.3441 27.2135 60 28.0225 60H31.9785C32.7875 60 33.4433 59.3441 33.4433 58.5351V54.5791Z" fill="white"/>
<path d="M28.3154 1.75885H31.6855V5.1289H28.3154V1.75885ZM33.4433 1.46582C33.4433 0.656888 32.7874 0.00105286 31.9785 0.00103378H28.0225C27.2135 0.00103378 26.5576 0.656876 26.5576 1.46582V5.42184C26.5576 6.2308 27.2135 6.88671 28.0225 6.88671H31.9785C32.7875 6.8867 33.4433 6.23079 33.4433 5.42184V1.46582Z" fill="white"/>
<path d="M1.75781 28.3135H5.12787V31.6836H1.75781V28.3135ZM6.88568 28.0205C6.88566 27.2116 6.22983 26.5557 5.42089 26.5557H1.46487C0.655923 26.5557 1.92092e-05 27.2116 0 28.0205V31.9765C0 32.7855 0.655911 33.4414 1.46487 33.4414H5.42089C6.22984 33.4414 6.88568 32.7855 6.88568 31.9765V28.0205Z" fill="white"/>
<path d="M54.8721 28.3135H58.2421V31.6836H54.8721V28.3135ZM59.9999 28.0205C59.9999 27.2116 59.3441 26.5557 58.5352 26.5557H54.5791C53.7702 26.5557 53.1143 27.2116 53.1143 28.0205V31.9765C53.1143 32.7855 53.7702 33.4414 54.5791 33.4414H58.5352C59.3441 33.4414 59.9999 32.7855 59.9999 31.9765V28.0205Z" fill="white"/>
<path d="M35.0146 30.7134V33.0898C35.0146 33.5752 35.4081 33.9687 35.8936 33.9687C36.379 33.9687 36.7725 33.5752 36.7725 33.0898V30.7134C36.7725 29.09 37.4805 27.952 38.4432 27.1211C39.3992 26.2961 40.6008 25.7842 41.5753 25.4816L41.6689 25.453V25.4529C42.9981 25.0521 43.5395 23.4771 42.7677 22.3399L42.7676 22.34L39.8576 18.0516C39.5851 17.65 39.0385 17.5453 38.6369 17.8178C38.2352 18.0904 38.1306 18.637 38.4032 19.0387L41.3132 23.327L41.3234 23.3429C41.4213 23.5079 41.336 23.7174 41.1615 23.77C40.0574 24.1029 38.5452 24.7111 37.2947 25.7903C36.0203 26.8902 35.0147 28.4874 35.0146 30.7134Z" fill="white"/>
<path d="M23.2279 30.7135V33.0898C23.2279 33.5752 23.6215 33.9687 24.1069 33.9687C24.5923 33.9687 24.9858 33.5752 24.9858 33.0898V30.7135C24.9858 28.4875 23.9802 26.8903 22.7058 25.7904C21.4553 24.7112 19.9432 24.1028 18.8391 23.7699H18.839C18.6591 23.7157 18.5737 23.4945 18.6873 23.327L29.7581 7.01276C29.8743 6.84154 30.1268 6.84154 30.243 7.01276L36.2337 15.8408C36.5063 16.2424 37.0528 16.3471 37.4545 16.0746C37.8561 15.802 37.9607 15.2555 37.6882 14.8538L31.6975 6.02571C30.8839 4.82678 29.1172 4.82678 28.3036 6.02571L17.2328 22.34C16.4612 23.477 17.002 25.0522 18.3316 25.453C19.3219 25.7515 20.5705 26.2695 21.5573 27.1211C22.52 27.952 23.2279 29.0901 23.2279 30.7135Z" fill="white"/>
<path d="M29.1211 6.6076V21.6992C29.1211 22.1846 29.5146 22.5781 30 22.5781C30.4854 22.5781 30.8789 22.1846 30.8789 21.6992V6.6076C30.8789 6.1222 30.4854 5.7287 30 5.7287C29.5146 5.7287 29.1211 6.1222 29.1211 6.6076Z" fill="white"/>
<path d="M31.2096 24.1378C31.2096 24.806 30.6679 25.3477 29.9997 25.3477C29.3317 25.3476 28.79 24.806 28.79 24.1378C28.7901 23.4696 29.3317 22.928 29.9997 22.928C30.6679 22.928 31.2096 23.4696 31.2096 24.1378ZM32.9674 24.1378C32.9674 22.4988 31.6387 21.1702 29.9997 21.1702C28.3608 21.1702 27.0322 22.4988 27.0322 24.1378C27.0322 25.7767 28.3608 27.1054 29.9997 27.1055C31.6387 27.1055 32.9674 25.7768 32.9674 24.1378Z" fill="white"/>
<path d="M36.3474 42.4913V43.469C36.3474 43.6308 36.2163 43.7619 36.0545 43.762H23.9463C23.7845 43.7619 23.6533 43.6308 23.6533 43.469V34.6127C23.6533 34.4509 23.7845 34.3197 23.9463 34.3197H27.9339C28.4192 34.3197 28.8128 33.9262 28.8128 33.4408C28.8128 32.9554 28.4193 32.5619 27.9339 32.5619H23.9463C22.8136 32.5619 21.8955 33.48 21.8955 34.6127V43.469C21.8955 44.6016 22.8137 45.5198 23.9463 45.5198H36.0545C37.1871 45.5198 38.1052 44.6016 38.1052 43.469V42.4913C38.1052 42.0059 37.7117 41.6124 37.2263 41.6124C36.7409 41.6124 36.3474 42.0059 36.3474 42.4913Z" fill="white"/>
<path d="M36.3474 34.6126V38.6251C36.3474 39.1105 36.7409 39.504 37.2263 39.504C37.7117 39.504 38.1052 39.1105 38.1052 38.6251V34.6126C38.1052 33.48 37.1871 32.5619 36.0544 32.5619H31.7998C31.3144 32.5619 30.9209 32.9554 30.9209 33.4408C30.9209 33.9262 31.3144 34.3197 31.7998 34.3197H36.0544C36.2162 34.3197 36.3474 34.4508 36.3474 34.6126Z" fill="white"/>
<path d="M36.4 37.9258C36.8853 37.9258 37.2789 37.5323 37.2789 37.0469C37.2789 36.5615 36.8853 36.168 36.4 36.168H22.7744C22.289 36.168 21.8955 36.5615 21.8955 37.0469C21.8955 37.5323 22.289 37.9258 22.7744 37.9258H36.4Z" fill="white"/>
<path d="M3.11154 36.9847C3.23481 37.4542 3.71536 37.7349 4.18485 37.6116C4.65431 37.4883 4.935 37.0078 4.81176 36.5384C4.75436 36.3197 4.6997 36.0997 4.64791 35.8786C4.53721 35.406 4.06436 35.1126 3.59176 35.2233C3.11915 35.334 2.82574 35.8069 2.93644 36.2795C2.99175 36.5156 3.05012 36.7508 3.11154 36.9847Z" fill="white"/>
<path d="M4.96956 41.997C5.18207 42.4334 5.70817 42.6149 6.14458 42.4024C6.58099 42.1899 6.76247 41.6638 6.54996 41.2274C6.45411 41.0305 6.36073 40.8322 6.26981 40.6326C6.06858 40.1909 5.54733 39.996 5.1056 40.1972C4.66389 40.3984 4.4689 40.9196 4.67009 41.3613C4.76728 41.5747 4.86711 41.7866 4.96956 41.997ZM7.92951 46.7633C8.22637 47.1473 8.77834 47.2179 9.16239 46.9211C9.54642 46.6243 9.61715 46.0723 9.32031 45.6882C9.0524 45.3416 8.7931 44.9879 8.54286 44.6275C8.26599 44.2289 7.71838 44.1301 7.31969 44.407C6.92098 44.6838 6.82216 45.2315 7.09902 45.6302C7.36634 46.0152 7.64334 46.393 7.92951 46.7633ZM11.7936 50.8298C12.162 51.1458 12.7169 51.1034 13.0329 50.735C13.349 50.3666 13.3066 49.8118 12.9382 49.4957C12.6053 49.2101 12.2798 48.9161 11.9621 48.6141C11.6103 48.2798 11.054 48.2939 10.7196 48.6457C10.3852 48.9975 10.3993 49.5539 10.7511 49.8883C11.0905 50.2108 11.4381 50.5248 11.7936 50.8298ZM16.4016 54.0299C16.8265 54.2646 17.3612 54.1103 17.5959 53.6854C17.8306 53.2605 17.6764 52.7259 17.2515 52.4912C16.8673 52.279 16.4891 52.0571 16.1172 51.8261C15.7049 51.5699 15.163 51.6965 14.9069 52.1088C14.6507 52.5211 14.7773 53.063 15.1896 53.3192C15.5869 53.566 15.991 53.8031 16.4016 54.0299ZM20.8975 56.0086C21.3576 56.1633 21.856 55.9158 22.0107 55.4557C22.1654 54.9956 21.9179 54.4972 21.4578 54.3425C21.2498 54.2725 21.043 54.2 20.8375 54.125C20.3816 53.9584 19.8769 54.193 19.7104 54.649C19.5439 55.1049 19.7785 55.6095 20.2344 55.776C20.4541 55.8563 20.6752 55.9338 20.8975 56.0086Z" fill="white"/>
<path d="M23.8369 56.8199C24.3114 56.9223 24.7791 56.6207 24.8815 56.1463C24.984 55.6718 24.6824 55.2042 24.2079 55.1017C23.9856 55.0537 23.7647 55.003 23.5454 54.9495C23.0738 54.8345 22.5983 55.1236 22.4832 55.5951C22.3682 56.0667 22.6572 56.5423 23.1288 56.6573C23.3639 56.7147 23.6001 56.7687 23.8369 56.8199Z" fill="white"/>
<path d="M35.1185 56.1458C35.2207 56.6204 35.6882 56.9222 36.1627 56.82C36.4001 56.7688 36.6364 56.7146 36.8713 56.6573C37.3428 56.5423 37.6319 56.0667 37.5169 55.5951C37.4019 55.1236 36.9263 54.8345 36.4547 54.9495C36.2352 55.0031 36.0144 55.0539 35.7926 55.1016C35.3181 55.2038 35.0163 55.6713 35.1185 56.1458Z" fill="white"/>
<path d="M54.824 40.3665C55.2769 40.541 55.7856 40.3154 55.9601 39.8624C56.0442 39.6441 56.1257 39.4245 56.2043 39.2035C56.3671 38.7462 56.1283 38.2435 55.671 38.0807C55.2137 37.918 54.7111 38.1567 54.5483 38.614C54.4747 38.8207 54.3986 39.0262 54.3199 39.2304C54.1454 39.6833 54.3711 40.192 54.824 40.3665ZM52.2003 45.1249C52.6081 45.3882 53.1521 45.2711 53.4154 44.8633C53.6692 44.4704 53.9132 44.0704 54.147 43.6639C54.3891 43.2432 54.2443 42.7059 53.8236 42.4638C53.4029 42.2217 52.8655 42.3665 52.6235 42.7873C52.4046 43.1677 52.1762 43.5419 51.9387 43.9098C51.6754 44.3175 51.7925 44.8616 52.2003 45.1249ZM48.665 49.2514C49.011 49.5919 49.5675 49.5874 49.9079 49.2414C50.2363 48.9077 50.5563 48.5656 50.8674 48.2155C51.1898 47.8526 51.1569 47.2971 50.7941 46.9747C50.4312 46.6523 49.8757 46.685 49.5533 47.0479C49.262 47.3757 48.9625 47.696 48.655 48.0085C48.3145 48.3545 48.319 48.911 48.665 49.2514ZM44.3678 52.5772C44.6377 52.9806 45.1835 53.0889 45.587 52.8191C45.9766 52.5585 46.3592 52.2882 46.7344 52.0085C47.1235 51.7184 47.2038 51.1677 46.9137 50.7785C46.6235 50.3894 46.0729 50.309 45.6837 50.5991C45.3325 50.861 44.9744 51.114 44.6097 51.358C44.2062 51.6279 44.098 52.1737 44.3678 52.5772ZM40.1199 54.7172C40.3133 55.1624 40.8311 55.3665 41.2763 55.1731C41.4913 55.0796 41.7049 54.9835 41.917 54.8848C42.3571 54.6799 42.5478 54.1571 42.343 53.717C42.1382 53.277 41.6153 53.0863 41.1753 53.2911C40.9768 53.3835 40.7769 53.4734 40.5757 53.5608C40.1306 53.7543 39.9265 54.272 40.1199 54.7172Z" fill="white"/>
<path d="M55.8151 37.6116C56.2846 37.7349 56.7651 37.4542 56.8883 36.9847C56.9498 36.7508 57.0081 36.5156 57.0634 36.2795C57.1741 35.8069 56.8808 35.334 56.4082 35.2233C55.9356 35.1126 55.4627 35.406 55.352 35.8786C55.3002 36.0997 55.2456 36.3197 55.1882 36.5384C55.065 37.0079 55.3456 37.4883 55.8151 37.6116Z" fill="white"/>
</g>
</svg>
