<svg width="60" height="60" viewBox="0 0 60 60" fill="none" xmlns="http://www.w3.org/2000/svg">
<path d="M26.4515 10.9427C26.4515 10.425 26.8713 10.0052 27.389 10.0052H42.0511C42.5688 10.0052 42.9886 10.425 42.9886 10.9427C42.9886 11.4605 42.5688 11.8802 42.0511 11.8802H27.389C26.8713 11.8802 26.4515 11.4606 26.4515 10.9427ZM18.7227 12.9421C18.9057 13.1251 19.1456 13.2166 19.3856 13.2166C19.6256 13.2166 19.8655 13.1251 20.0485 12.9421L22.9223 10.0683C23.2885 9.70219 23.2884 9.10863 22.9223 8.74254C22.5562 8.37644 21.9627 8.37644 21.5966 8.74254L19.3857 10.9535L18.6117 10.1795C18.2456 9.8134 17.6521 9.8134 17.286 10.1795C16.9197 10.5456 16.9199 11.1391 17.286 11.5052L18.7227 12.9421ZM27.389 21.8795H42.0511C42.5688 21.8795 42.9886 21.4597 42.9886 20.942C42.9886 20.4243 42.5688 20.0045 42.0511 20.0045H27.389C26.8713 20.0045 26.4515 20.4243 26.4515 20.942C26.4515 21.4597 26.8713 21.8795 27.389 21.8795ZM18.7227 23.0418C18.9057 23.2248 19.1456 23.3163 19.3856 23.3163C19.6256 23.3163 19.8655 23.2248 20.0485 23.0418L22.9223 20.168C23.2885 19.8019 23.2884 19.2083 22.9223 18.8422C22.5562 18.4761 21.9627 18.4761 21.5966 18.8422L19.3857 21.0532L18.6117 20.2792C18.2456 19.9131 17.6521 19.9131 17.286 20.2792C16.9197 20.6453 16.9199 21.2388 17.286 21.6049L18.7227 23.0418ZM55.9065 39.6727L51.7608 42.0661C51.3314 42.3141 50.8541 42.4406 50.3696 42.4406C50.1255 42.4406 49.8798 42.4086 49.6373 42.3436C48.9138 42.1498 48.3099 41.6872 47.9372 41.0416L47.8237 40.8452L45.7265 41.9161C46.3536 42.9103 46.2629 44.1363 45.7119 45.0837C45.4349 45.5598 45.039 45.9701 44.5647 46.2534C44.8398 46.7037 44.9859 47.2199 44.9839 47.7696C44.9797 48.909 44.3381 50.0109 43.3493 50.577C42.7999 50.8914 42.1923 51.0134 41.584 50.943C41.5528 51.4542 41.3954 51.9565 41.1382 52.3982C40.5942 53.3321 39.5927 54.0077 38.4409 53.9782C38.4286 54.5303 38.2674 55.0767 37.9901 55.5529C37.4587 56.4649 36.4921 57.1339 35.3731 57.1339C34.8635 57.1339 34.3222 56.9951 33.7762 56.6771L31.3003 55.2354L30.8187 55.9202C30.2153 56.778 29.3311 57.2545 28.3619 57.2545C28.2731 57.2545 28.1836 57.2505 28.0935 57.2425C26.9819 57.1427 25.9584 56.4369 25.4665 55.4366C24.4222 55.9762 23.2077 55.7798 22.3106 55.1489C21.7314 54.7414 21.2777 54.1482 21.0708 53.4653C20.2096 53.6536 19.3074 53.4261 18.6016 52.9296C17.7225 52.3112 17.133 51.2647 17.2557 50.1264C16.703 50.0684 16.1685 49.8604 15.7149 49.5414C14.4582 48.6572 13.7937 46.898 14.9553 45.2466L15.035 45.1332L11.9271 41.2521C11.5514 41.7874 11.0046 42.1717 10.3625 42.3437C10.1202 42.4087 9.8742 42.4407 9.63022 42.4407C9.14576 42.4407 8.66846 42.3142 8.23897 42.0662L4.09334 39.6727C2.7567 38.9011 2.29709 37.1858 3.06877 35.8491L10.3447 23.2467C10.5683 22.8595 10.8714 22.5464 11.2212 22.315V3.67969C11.2212 3.16195 11.6409 2.74219 12.1587 2.74219H47.8411C48.3588 2.74219 48.7786 3.16195 48.7786 3.67969V22.315C49.1284 22.5463 49.4315 22.8594 49.655 23.2466L56.931 35.8489C57.7026 37.1858 57.243 38.901 55.9065 39.6727ZM13.0962 4.61719V21.8667C13.4635 21.9095 13.8282 22.0257 14.1683 22.2221L18.314 24.6157C18.9598 24.9885 19.4222 25.5922 19.616 26.3159C19.7368 26.7669 19.744 27.2298 19.642 27.6709L24.8397 29.5276C27.0321 27.568 28.6493 26.8718 31.9853 27.6061C35.1126 28.2946 37.7359 28.3009 40.3459 27.6141C40.2572 27.1901 40.2678 26.7476 40.3836 26.3157C40.5774 25.5921 41.0399 24.9882 41.6857 24.6156L45.8313 22.222C46.1714 22.0256 46.5361 21.9095 46.9035 21.8667V4.61719H13.0962ZM10.4388 40.1041L17.7148 27.5018C17.8371 27.2898 17.8692 27.041 17.805 26.8013C17.7408 26.5615 17.5885 26.3619 17.3765 26.2396L13.2309 23.846C13.0858 23.7622 12.9271 23.7224 12.7704 23.7224C12.4507 23.7224 12.1396 23.8882 11.9686 24.1842L4.69264 36.7866C4.43787 37.2279 4.58963 37.7941 5.03084 38.0488L9.17658 40.4425C9.38869 40.5649 9.6376 40.597 9.87725 40.5326C10.117 40.4684 10.3165 40.3162 10.4388 40.1041ZM18.4803 47.7267L20.6349 44.6636L20.6353 44.663C21.29 43.729 20.4943 43.0991 20.3281 42.9823C20.1619 42.8653 19.2992 42.3298 18.6419 43.2642L16.4889 46.325C15.8313 47.2598 16.6275 47.8907 16.7938 48.0076C16.9599 48.1247 17.8221 48.6605 18.4798 47.7274L18.4803 47.7267ZM21.5501 50.8543L24.5599 46.5754L25.0175 45.9247C25.6751 44.9899 24.8788 44.3591 24.7125 44.2421C24.5461 44.1251 23.6832 43.5889 23.0256 44.5236L22.1693 45.7411C22.1692 45.7413 22.169 45.7414 22.1689 45.7417L22.1686 45.7423L20.014 48.8054L19.3754 49.7133C18.7179 50.6482 19.5142 51.279 19.6805 51.396C19.8467 51.5128 20.7097 52.0488 21.3673 51.1144L21.5501 50.8543ZM25.7574 52.3646C25.7581 52.3637 25.7589 52.3628 25.7596 52.3618L26.8392 50.8268L28.0846 49.0563C28.7419 48.1218 27.9459 47.4909 27.7797 47.3739C27.6137 47.2571 26.7519 46.7211 26.0945 47.6529L26.0935 47.6543L23.0838 51.9332L23.0832 51.9341C22.4273 52.8682 23.223 53.4986 23.3893 53.6155C23.5556 53.7325 24.4186 54.2687 25.076 53.3339L25.7574 52.3646ZM30.0593 51.6241C29.893 51.5071 29.0306 50.9712 28.3733 51.9049L28.3728 51.9056L27.2932 53.4407C27.0187 53.8309 26.9662 54.2159 27.1373 54.5849C27.3337 55.0084 27.7958 55.3335 28.2608 55.3751C28.6658 55.4114 29.0105 55.2319 29.285 54.8416L30.3646 53.3068C31.0219 52.372 30.2256 51.7411 30.0593 51.6241ZM43.6657 42.4849L32.0727 35.7744C31.0305 35.1725 30.0003 35.6062 28.4056 36.3632C28.3282 36.3998 28.2508 36.4366 28.1733 36.4732C28.0569 36.7069 27.9395 36.9578 27.8173 37.2189C27.2151 38.5054 26.5326 39.9633 25.3521 40.6005C23.9626 41.3504 22.7226 41.4649 21.8606 40.9226C21.4638 40.6729 20.8078 40.0522 20.8719 38.7001L21.1201 33.4747C21.1314 33.2366 21.2331 33.0117 21.4044 32.8458C21.892 32.3736 22.3295 31.9425 22.7526 31.5257C22.9461 31.3351 23.1323 31.1517 23.3141 30.9736L18.8052 29.3629L12.9416 39.519L16.1583 43.536L17.1083 42.1853C18.2695 40.5341 20.1494 40.5648 21.4063 41.4479C21.8154 41.7354 22.1618 42.1155 22.403 42.5545C23.4953 41.8539 24.8267 42.0299 25.7912 42.7083C26.6005 43.2775 27.1643 44.2097 27.1531 45.2421C27.764 45.2728 28.3604 45.4894 28.8589 45.8402C29.971 46.6229 30.6192 48.0907 29.9482 49.5627C30.3746 49.6573 30.7814 49.8393 31.1381 50.0903C32.2086 50.8434 32.8486 52.2311 32.2977 53.6463L34.7197 55.0567C35.7075 55.6316 36.2676 54.7846 36.3699 54.6089C36.4722 54.4334 36.9323 53.5289 35.9471 52.9534L35.9458 52.9526C35.9457 52.9525 35.9457 52.9525 35.9455 52.9523C35.9455 52.9523 35.9455 52.9523 35.9454 52.9523L32.8244 51.1352C32.377 50.8747 32.2255 50.3009 32.486 49.8534C32.7465 49.406 33.3204 49.2546 33.7679 49.515L36.8889 51.3322C36.889 51.3323 36.8892 51.3323 36.8893 51.3325L36.8897 51.3327C36.8904 51.333 36.8911 51.3335 36.8918 51.3339L37.8677 51.9023C38.8553 52.4771 39.4155 51.6301 39.518 51.4546C39.6203 51.2789 40.0802 50.3745 39.095 49.7989L39.0936 49.7981C39.0935 49.7981 39.0935 49.798 39.0934 49.798C39.0931 49.7979 39.0929 49.7977 39.0927 49.7975L35.2667 47.5698C34.8193 47.3093 34.6678 46.7354 34.9283 46.288C35.1889 45.8406 35.7628 45.6892 36.2102 45.9496L40.0372 48.1779L40.0374 48.178C40.0383 48.1785 40.0389 48.1788 40.0396 48.1793L41.2644 48.8925C41.6769 49.1327 42.0649 49.1518 42.4179 48.9498C42.8231 48.7179 43.1073 48.2297 43.1089 47.7628C43.1105 47.3561 42.9021 47.028 42.4897 46.7879L41.5004 46.2118C41.5002 46.2117 41.4998 46.2116 41.4996 46.2114L41.4988 46.2109C41.4987 46.2108 41.4984 46.2107 41.4983 46.2105L37.7092 44.0044C37.2617 43.7439 37.1102 43.17 37.3707 42.7226C37.6314 42.2752 38.2051 42.1237 38.6526 42.3841L42.4418 44.5903C43.4296 45.1641 43.989 44.3168 44.0912 44.1411C44.1931 43.9654 44.6529 43.0598 43.6657 42.4849ZM46.8849 39.2193L41.176 29.331C37.2387 30.4425 33.8417 29.9347 31.5822 29.4373C28.2814 28.7111 27.4727 29.5078 24.0687 32.8616C23.7367 33.1887 23.3683 33.5515 22.9754 33.934L22.7448 38.7894C22.7297 39.1077 22.7913 39.2932 22.8592 39.3359C23.0177 39.4355 23.5932 39.4195 24.4615 38.9508C25.0971 38.6077 25.64 37.4477 26.1191 36.4242C26.2929 36.0527 26.4728 35.6688 26.6579 35.32C26.7541 35.1389 26.9071 34.9944 27.0933 34.9084C27.263 34.8301 27.4324 34.7497 27.6015 34.6693C29.2237 33.8992 31.0624 33.0263 33.0111 34.1511L44.1655 40.6077L46.8849 39.2193ZM55.3071 36.7864L48.0313 24.1842C47.7765 23.7429 47.2101 23.5912 46.7689 23.846L42.6232 26.2396C42.4112 26.3619 42.2591 26.5615 42.1947 26.8013C42.1305 27.041 42.1625 27.2898 42.285 27.5018L49.5609 40.1043C49.6833 40.3162 49.8828 40.4684 50.1226 40.5326C50.3626 40.5973 50.6112 40.5649 50.8231 40.4425L54.969 38.0489C55.4102 37.7941 55.562 37.2278 55.3071 36.7864Z" fill="white"/>
</svg>
