<svg width="40" height="40" viewBox="0 0 40 40" fill="none" xmlns="http://www.w3.org/2000/svg">
<path d="M22.4628 0C22.7835 0 23.0542 0.233913 23.0946 0.546059L23.6331 4.69757C25.3461 5.10828 26.9931 5.77099 28.4633 6.69051L31.8399 4.13045L31.8642 4.11288C32.1185 3.93809 32.4665 3.9685 32.6853 4.1887L35.9975 7.52203C36.2196 7.74556 36.2395 8.09562 36.0441 8.34204L33.3521 11.7382C34.289 13.1817 34.9627 14.8086 35.3197 16.5637L39.445 17.0885C39.7624 17.1289 40 17.3942 40 17.7083V22.4583C40 22.7724 39.7624 23.0378 39.445 23.0781L35.3018 23.6051C34.8807 25.3579 34.2048 26.9248 33.336 28.4103L35.9605 31.7428C36.1545 31.9893 36.1341 32.3383 35.9125 32.5613L32.6005 35.8947C32.3722 36.1244 32.0037 36.1472 31.7479 35.9474L28.3727 33.313C26.904 34.2306 25.259 34.8922 23.5482 35.3024L23.0098 39.4539C22.9693 39.7661 22.6985 40 22.3779 40H17.622C17.3014 40 17.0307 39.7661 16.9902 39.4539L16.4517 35.3024C14.7387 34.8916 13.0917 34.2289 11.6215 33.3094L8.2451 35.8696C7.98909 36.0637 7.6254 36.0386 7.39955 35.8113L4.08748 32.478C3.86591 32.255 3.84547 31.906 4.03953 31.6596L6.64851 28.3463C5.7113 26.9024 5.0373 25.2752 4.68017 23.5195L0.555035 22.9948C0.237573 22.9544 0 22.6891 0 22.375V17.625C0 17.3109 0.237571 17.0455 0.555035 17.0051L4.69824 16.4781C5.11969 14.7253 5.80134 13.1541 6.73914 11.6608L4.12441 8.34045C3.93037 8.09402 3.95082 7.74502 4.17236 7.52203L7.48451 4.1887L7.50605 4.16796C7.73296 3.96001 8.08197 3.9424 8.32998 4.13045L11.706 6.69019C13.1665 5.7708 14.7603 5.10533 16.5371 4.69375L17.0751 0.546059L17.0796 0.517051C17.1325 0.219526 17.3963 0 17.707 0H22.4628ZM17.7443 5.28725C17.71 5.55177 17.5085 5.76581 17.2424 5.8202C15.2847 6.22041 13.5797 6.9384 12.037 7.97416C11.809 8.12722 11.5064 8.1186 11.2878 7.95286L8.00026 5.46011L5.47073 8.00579L8.01994 11.2428C8.18546 11.453 8.19743 11.7429 8.04991 11.9656C6.98628 13.5713 6.25401 15.2495 5.84645 17.1691C5.79114 17.4296 5.57375 17.6273 5.30478 17.6615L1.27383 18.1742V21.8257L5.30478 22.3385C5.5831 22.3739 5.80499 22.5839 5.85115 22.8555C6.17563 24.7659 6.90505 26.5139 7.95669 28.0221C8.11266 28.2458 8.10387 28.5426 7.93498 28.7571L5.38577 31.9941L7.9153 34.5398L11.2029 32.0471L11.2236 32.032C11.4403 31.881 11.7311 31.8776 11.952 32.0258C13.4423 33.0264 15.169 33.7341 16.9867 34.1424L17.1629 34.1809L17.1874 34.1866C17.4387 34.2505 17.6265 34.4584 17.6595 34.7127L18.1832 38.75H21.8168L22.3405 34.7127C22.3746 34.4502 22.5735 34.2371 22.8371 34.1809C24.7193 33.7794 26.5096 33.0587 28.048 32.0258L28.0698 32.0119C28.2977 31.8718 28.5922 31.8871 28.8041 32.0525L32.0902 34.6175L34.6141 32.0774L32.065 28.8405C31.9046 28.6368 31.8879 28.3575 32.0228 28.1368C33.0115 26.5198 33.7458 24.8349 34.1535 22.9142L34.1591 22.89C34.2224 22.6415 34.4347 22.455 34.6952 22.4219L38.7261 21.9091V18.2575L34.6952 17.7448C34.4169 17.7094 34.1949 17.4994 34.1488 17.2277C33.8243 15.3174 33.0949 13.5694 32.0433 12.0612C31.8869 11.8369 31.8962 11.5391 32.0662 11.3246L34.6977 8.00451L32.1695 5.46011L28.8821 7.95286C28.6635 8.1186 28.3609 8.12722 28.1329 7.97416C26.5945 6.94132 24.8042 6.22059 22.922 5.81909C22.6584 5.76286 22.4596 5.54979 22.4255 5.28725L21.9018 1.24995H18.268L17.7443 5.28725Z" fill="white"/>
<path d="M23.0144 13.5416C23.0144 11.8775 21.6766 10.5 19.9146 10.5C18.2187 10.5 16.8149 11.8127 16.8148 13.5416C16.8148 14.1726 17.0336 14.8525 17.4258 15.3015C17.6548 15.5636 17.6238 15.9582 17.3568 16.1828C17.0897 16.4075 16.6876 16.3771 16.4586 16.115C15.8318 15.3974 15.541 14.4106 15.541 13.5416C15.541 11.1039 17.5342 9.25001 19.9146 9.25C22.399 9.25 24.2883 11.2058 24.2883 13.5416C24.2883 14.5021 23.9929 15.4028 23.3707 16.115C23.1418 16.3771 22.7396 16.4075 22.4725 16.1828C22.2055 15.9582 22.1745 15.5636 22.4034 15.3015C22.8003 14.8472 23.0144 14.2478 23.0144 13.5416Z" fill="white"/>
<path d="M21.4023 18.54C21.4023 18.1948 21.6875 17.915 22.0393 17.915C22.391 17.915 22.6762 18.1948 22.6762 18.54C22.6762 19.9919 22.8404 21.3606 23.1688 22.7302C23.4917 24.0764 24.0603 25.3588 24.7321 26.6772C24.8894 26.9859 24.7619 27.3613 24.4472 27.5157C24.1326 27.67 23.75 27.5449 23.5927 27.2362C22.9056 25.8879 22.2854 24.5036 21.9288 23.0165C21.5778 21.5528 21.4023 20.0881 21.4023 18.54Z" fill="white"/>
<path d="M17.3254 18.54C17.3254 18.1948 17.6106 17.915 17.9623 17.915C18.3141 17.915 18.5992 18.1948 18.5992 18.54C18.5992 21.5627 17.8075 24.5826 16.3128 27.2572C16.1436 27.5599 15.7565 27.6707 15.448 27.5047C15.1396 27.3388 15.0266 26.9588 15.1957 26.6562C16.5885 24.1641 17.3254 21.3507 17.3254 18.54Z" fill="white"/>
<path d="M24.968 28.0423C24.968 27.8041 24.7436 27.584 24.5009 27.5839H15.4988C15.2561 27.5839 15.0317 27.8041 15.0316 28.0423V29.6673H24.968V28.0423ZM26.2418 30.2923C26.2418 30.6375 25.9567 30.9173 25.6049 30.9173H14.3947C14.043 30.9173 13.7578 30.6375 13.7578 30.2923V28.0423C13.7578 27.1138 14.5526 26.334 15.4988 26.334H24.5009C25.4472 26.334 26.2418 27.1138 26.2418 28.0423V30.2923Z" fill="white"/>
<path d="M24.1198 17.1237C24.1198 16.6946 23.7862 16.332 23.313 16.332H16.7737C16.2319 16.332 15.9276 16.7418 15.963 17.0546C15.9656 17.0775 15.9669 17.1006 15.9669 17.1237C15.9669 17.5528 16.3005 17.9153 16.7737 17.9153H23.313C23.7503 17.9153 24.1198 17.588 24.1198 17.1237ZM25.3937 17.1237C25.3937 18.326 24.4044 19.1653 23.313 19.1654H16.7737C15.5613 19.1653 14.7112 18.2148 14.6935 17.1574C14.5837 15.9872 15.6285 15.0821 16.7737 15.082H23.313C24.5383 15.082 25.3937 16.0528 25.3937 17.1237Z" fill="white"/>
<path d="M10.1914 20.0407C10.1914 17.3682 11.2826 14.9611 13.0956 13.1821C13.3443 12.938 13.7476 12.938 13.9963 13.1821C14.245 13.4261 14.245 13.8219 13.9963 14.066C12.4123 15.6203 11.4652 17.7132 11.4652 20.0407C11.4652 22.0595 12.1763 23.9171 13.4387 25.3881C13.6653 25.6521 13.6308 26.0465 13.3617 26.2688C13.0927 26.4911 12.6909 26.4573 12.4643 26.1933C11.0091 24.4976 10.1914 22.3551 10.1914 20.0407Z" fill="white"/>
<path d="M28.536 20.0407C28.536 17.7132 27.5889 15.6203 26.0049 14.066C25.7562 13.8219 25.7562 13.4262 26.0049 13.1821C26.2537 12.938 26.657 12.938 26.9057 13.1821C28.7187 14.9611 29.8099 17.3682 29.8099 20.0407C29.8099 22.3551 28.9922 24.4977 27.537 26.1933C27.3104 26.4573 26.9086 26.4912 26.6395 26.2688C26.3704 26.0465 26.336 25.6521 26.5626 25.3881C27.825 23.9171 28.536 22.0595 28.536 20.0407Z" fill="white"/>
</svg>
