<svg width="26" height="26" viewBox="0 0 26 26" fill="none" xmlns="http://www.w3.org/2000/svg">
<path d="M15.9848 23.81C17.1193 24.5431 18.4713 24.8626 19.8133 24.7147C21.1554 24.5668 22.4057 23.9607 23.354 22.9982L24.183 22.1863C24.5465 21.814 24.75 21.314 24.75 20.7932C24.75 20.2725 24.5465 19.7725 24.183 19.4002L20.6642 15.9129C20.2956 15.55 19.7994 15.3467 19.2825 15.3467C18.7656 15.3467 18.2694 15.55 17.9008 15.9129C17.529 16.2769 17.0298 16.4807 16.5098 16.4807C15.9899 16.4807 15.4907 16.2769 15.1189 15.9129L9.592 10.3775C9.40763 10.1955 9.26121 9.97861 9.16128 9.73945C9.06134 9.5003 9.00988 9.24363 9.00988 8.98437C9.00988 8.72512 9.06134 8.46845 9.16128 8.2293C9.26121 7.99014 9.40763 7.77327 9.592 7.5913C9.9543 7.22208 10.1573 6.72512 10.1573 6.20744C10.1573 5.68977 9.9543 5.19281 9.592 4.82359L6.09162 1.31783C5.71986 0.953818 5.2206 0.75 4.70069 0.75C4.18077 0.75 3.68151 0.953818 3.30975 1.31783L2.49913 2.14815C1.53809 3.09791 0.932872 4.35013 0.785246 5.69425C0.63762 7.03837 0.956589 8.39241 1.68852 9.52869C5.50217 15.1577 10.3546 20.0051 15.9848 23.81Z" stroke="#FB3602" stroke-width="1.5" stroke-linecap="round" stroke-linejoin="round"/>
</svg>
