<svg width="50" height="50" viewBox="0 0 50 50" fill="none" xmlns="http://www.w3.org/2000/svg">
<circle cx="25" cy="25" r="25" fill="#FB3602"/>
<path d="M18.1481 14.1911C17.2515 18.1025 14.1409 21.19 10.2002 22.0799C9.50402 22.2371 9 22.8352 9 23.5439V26.4555C9 27.3861 9.84814 28.0936 10.771 27.9293C13.1419 27.5072 15.3389 26.5784 17.2413 25.2609C18.8436 24.1529 20.2368 22.7702 21.353 21.1798C22.8974 18.9829 23.9118 16.39 24.2085 13.5899C24.2418 13.2755 23.9964 13 23.6778 13H19.6231C18.9091 12.9999 18.3065 13.5002 18.1481 14.1911Z" fill="white"/>
<path d="M25.7921 36.412C25.7589 36.7255 26.0035 37.0002 26.3211 37.0002H30.3769C31.0912 37.0002 31.6939 36.4995 31.852 35.8081C32.7467 31.8951 35.8574 28.8096 39.8003 27.9201C40.4966 27.7631 41.0006 27.1648 41.0006 26.4562V23.5444C41.0006 22.614 40.1528 21.9066 39.23 22.0706C36.8589 22.492 34.6619 23.4194 32.7594 24.7393C31.1571 25.8443 29.764 27.2301 28.6476 28.8175C27.103 31.0176 26.0885 33.6112 25.7921 36.412Z" fill="white"/>
<path d="M30.3775 13H26.3227C26.0042 13 25.7588 13.2755 25.7921 13.5899C26.0887 16.39 27.1031 18.9829 28.6476 21.1798C29.7638 22.7702 31.157 24.153 32.7593 25.2609C34.6617 26.5784 36.8586 27.5073 39.2296 27.9293C40.1524 28.0936 41.0006 27.3861 41.0006 26.4555V23.5439C41.0006 22.8353 40.4966 22.2372 39.8004 22.0799C35.8597 21.19 32.7491 18.1025 31.8525 14.1911C31.694 13.5003 31.0914 13 30.3775 13Z" fill="white"/>
<path d="M21.353 28.8175C20.2367 27.2301 18.8436 25.8443 17.2413 24.7393C15.3388 23.4194 13.1417 22.492 10.7706 22.0706C9.84791 21.9066 9 22.614 9 23.5444V26.4562C9 27.1649 9.50417 27.7631 10.2004 27.9201C14.1433 28.8096 17.254 31.8951 18.1486 35.8081C18.3067 36.4995 18.9095 37.0002 19.6237 37.0002H23.6795C23.9972 37.0002 24.2418 36.7255 24.2086 36.412C23.9122 33.6112 22.8977 31.0176 21.353 28.8175Z" fill="white"/>
</svg>
