<svg width="100" height="100" viewBox="0 0 100 100" fill="none" xmlns="http://www.w3.org/2000/svg">
<g opacity="0.1">
<path d="M6.25 34.375C5.8356 34.375 5.43817 34.5396 5.14515 34.8326C4.85212 35.1257 4.6875 35.5231 4.6875 35.9375V42.1875C4.6875 42.6019 4.85212 42.9993 5.14515 43.2924C5.43817 43.5854 5.8356 43.75 6.25 43.75H9.65684C10.1468 45.8735 10.9594 47.9093 12.0662 49.7865L8.27012 53.5826C8.12502 53.7277 8.00992 53.9 7.93139 54.0895C7.85286 54.2791 7.81244 54.4823 7.81244 54.6875C7.81244 54.8927 7.85286 55.0959 7.93139 55.2855C8.00992 55.475 8.12502 55.6473 8.27012 55.7924L12.9576 60.4799C13.1027 60.625 13.275 60.7401 13.4645 60.8186C13.6541 60.8971 13.8573 60.9376 14.0625 60.9376C14.2677 60.9376 14.4709 60.8971 14.6605 60.8186C14.85 60.7401 15.0223 60.625 15.1674 60.4799L18.9635 56.6838C20.8407 57.7906 22.8765 58.6032 25 59.0932V64.0625C25 64.4769 25.1646 64.8743 25.4576 65.1674C25.7507 65.4604 26.1481 65.625 26.5625 65.625H32.041C33.0418 69.5067 34.9617 73.0906 37.6388 76.0743C40.3158 79.058 43.6714 81.3539 47.4223 82.7681C51.1732 84.1823 55.2092 84.6734 59.1898 84.1999C63.1703 83.7264 66.9785 82.3022 70.293 80.0475L85.7478 95.5022C86.1831 95.9374 86.6999 96.2827 87.2686 96.5183C87.8374 96.7539 88.4469 96.8751 89.0625 96.8751C89.6781 96.8751 90.2876 96.7539 90.8564 96.5183C91.4251 96.2827 91.9419 95.9374 92.3772 95.5022C92.8124 95.0669 93.1577 94.5501 93.3933 93.9814C93.6289 93.4126 93.7501 92.8031 93.7501 92.1875C93.7501 91.5719 93.6289 90.9624 93.3933 90.3936C93.1577 89.8249 92.8124 89.3081 92.3772 88.8728L76.9223 73.418C80.3486 68.3857 81.8173 62.2745 81.0519 56.2348C80.2865 50.1952 77.3399 44.6435 72.7666 40.625H75C75.4144 40.625 75.8118 40.4604 76.1049 40.1674C76.3979 39.8743 76.5625 39.4769 76.5625 39.0625V33.0977C76.8705 32.2813 81.25 20.6492 81.25 20.3125C81.25 16.8766 80.2811 14.1656 78.3703 12.2547C76.4596 10.3437 73.7484 9.375 70.3125 9.375C66.8766 9.375 64.1656 10.3439 62.2547 12.2547C60.3437 14.1654 59.375 16.8766 59.375 20.3125C59.375 20.4998 64.0625 33.0957 64.0625 33.0957V35.6264C61.5417 34.7956 58.9042 34.3731 56.25 34.375H49.7182C49.2282 32.2515 48.4156 30.2157 47.3088 28.3385L51.1049 24.5424C51.25 24.3973 51.3651 24.225 51.4436 24.0355C51.5221 23.8459 51.5626 23.6427 51.5626 23.4375C51.5626 23.2323 51.5221 23.0291 51.4436 22.8395C51.3651 22.65 51.25 22.4777 51.1049 22.3326L46.4174 17.6451C46.2723 17.5 46.1 17.3849 45.9105 17.3064C45.7209 17.2279 45.5177 17.1874 45.3125 17.1874C45.1073 17.1874 44.9041 17.2279 44.7145 17.3064C44.525 17.3849 44.3527 17.5 44.2076 17.6451L40.4115 21.4412C38.5343 20.3344 36.4985 19.5218 34.375 19.0318V14.0625C34.375 13.6481 34.2104 13.2507 33.9174 12.9576C33.6243 12.6646 33.2269 12.5 32.8125 12.5H26.5625C26.1481 12.5 25.7507 12.6646 25.4576 12.9576C25.1646 13.2507 25 13.6481 25 14.0625V19.0318C22.8765 19.5218 20.8407 20.3344 18.9635 21.4412L15.1674 17.6451C15.0223 17.5 14.85 17.3849 14.6605 17.3064C14.4709 17.2279 14.2677 17.1874 14.0625 17.1874C13.8573 17.1874 13.6541 17.2279 13.4645 17.3064C13.275 17.3849 13.1027 17.5 12.9576 17.6451L8.27012 22.3326C8.12502 22.4777 8.00992 22.65 7.93139 22.8395C7.85286 23.0291 7.81244 23.2323 7.81244 23.4375C7.81244 23.6427 7.85286 23.8459 7.93139 24.0355C8.00992 24.225 8.12502 24.3973 8.27012 24.5424L12.0662 28.3385C10.9594 30.2157 10.1468 32.2515 9.65684 34.375H6.25ZM90.1674 91.0828C90.316 91.2271 90.4343 91.3995 90.5157 91.59C90.597 91.7805 90.6397 91.9852 90.6412 92.1923C90.6427 92.3994 90.603 92.6047 90.5245 92.7964C90.4459 92.988 90.33 93.1621 90.1836 93.3086C90.0371 93.455 89.863 93.5709 89.6713 93.6494C89.4797 93.728 89.2744 93.7676 89.0673 93.7661C88.8601 93.7646 88.6554 93.7219 88.465 93.6405C88.2745 93.5592 88.1021 93.4408 87.9578 93.2922L72.7789 78.1137C73.5604 77.4235 74.2983 76.6856 74.9885 75.9041L90.1674 91.0828ZM62.5025 20.0359C62.5951 15.035 65.2217 12.5 70.3125 12.5C75.4102 12.5 78.0363 15.041 78.1227 20.0541C77.6834 21.2605 75.548 26.9342 73.9197 31.25H66.7076L62.5025 20.0359ZM67.1875 34.375H73.4375V37.5H68.3414C67.9628 37.2898 67.5781 37.0891 67.1875 36.8979V34.375ZM78.125 59.375C78.125 63.7008 76.8424 67.9295 74.4394 71.5265C72.0365 75.1235 68.6209 77.9273 64.6247 79.5834C60.6284 81.2395 56.2309 81.6736 51.9879 80.8308C47.745 79.9879 43.8472 77.906 40.7874 74.8483C37.7275 71.7905 35.6429 67.8942 34.7972 63.6518C33.9514 59.4095 34.3825 55.0116 36.0358 51.0142C37.6892 47.0168 40.4906 43.5994 44.086 41.1939C47.6813 38.7884 51.9091 37.503 56.235 37.5H56.25C62.0496 37.5066 67.6098 39.8134 71.7107 43.9143C75.8116 48.0152 78.1184 53.5754 78.125 59.375ZM29.6875 46.875C28.1423 46.875 26.6319 46.4168 25.3471 45.5584C24.0623 44.6999 23.061 43.4798 22.4697 42.0522C21.8784 40.6247 21.7237 39.0538 22.0251 37.5384C22.3266 36.0229 23.0706 34.6308 24.1632 33.5382C25.2558 32.4456 26.6479 31.7016 28.1634 31.4001C29.6788 31.0987 31.2497 31.2534 32.6772 31.8447C34.1048 32.436 35.3249 33.4373 36.1834 34.7221C37.0418 36.0069 37.5 37.5173 37.5 39.0625C37.4977 41.1338 36.6738 43.1196 35.2092 44.5842C33.7446 46.0488 31.7588 46.8727 29.6875 46.875ZM12.4787 36.1947C12.9081 33.6254 13.885 31.1784 15.3434 29.0199C15.5536 28.719 15.6513 28.3537 15.6191 27.9881C15.587 27.6224 15.4271 27.2797 15.1676 27.0201L11.5846 23.4375L14.0625 20.9596L17.6451 24.5424C17.9047 24.8019 18.2474 24.9618 18.6131 24.9939C18.9787 25.0261 19.344 24.9284 19.6449 24.7182C21.8034 23.2598 24.2504 22.2829 26.8197 21.8535C27.1845 21.7926 27.5158 21.6044 27.7548 21.3222C27.9938 21.0401 28.125 20.6823 28.125 20.3125V15.625H31.25V20.3125C31.25 20.6823 31.3812 21.0401 31.6202 21.3223C31.8592 21.6045 32.1905 21.7928 32.5553 21.8537C35.1246 22.2831 37.5716 23.26 39.7301 24.7184C40.031 24.9286 40.3963 25.0263 40.7619 24.9941C41.1276 24.962 41.4703 24.8021 41.7299 24.5426L45.3125 20.9596L47.7904 23.4375L44.2076 27.0201C43.9481 27.2797 43.7882 27.6224 43.7561 27.9881C43.7239 28.3537 43.8216 28.719 44.0318 29.0199C45.4895 31.1775 46.4663 33.6233 46.8959 36.1914C44.6233 37.1127 42.4984 38.363 40.5895 39.9023C40.6107 39.6244 40.625 39.3447 40.625 39.0615C40.626 36.738 39.8873 34.4745 38.516 32.5989C37.1447 30.7232 35.212 29.3327 32.9977 28.6289C30.7834 27.925 28.4025 27.9442 26.1998 28.6838C23.9972 29.4234 22.0872 30.8449 20.7464 32.7425C19.4055 34.6401 18.7036 36.9152 18.7421 39.2384C18.7807 41.5616 19.5577 43.8121 20.9608 45.6642C22.3638 47.5163 24.3199 48.8736 26.5459 49.5397C28.7718 50.2059 31.1521 50.1461 33.3418 49.3691C31.9588 52.5235 31.2465 55.9308 31.25 59.375C31.2502 60.4197 31.3154 61.4634 31.4453 62.5H28.125V57.8125C28.125 57.4427 27.9938 57.0849 27.7548 56.8027C27.5158 56.5205 27.1845 56.3322 26.8197 56.2713C24.2504 55.8419 21.8034 54.865 19.6449 53.4066C19.344 53.1964 18.9787 53.0987 18.6131 53.1309C18.2474 53.163 17.9047 53.3229 17.6451 53.5824L14.0625 57.1654L11.5846 54.6875L15.1674 51.1049C15.4269 50.8453 15.5868 50.5026 15.6189 50.1369C15.6511 49.7713 15.5534 49.406 15.3432 49.1051C13.8848 46.9466 12.9079 44.4996 12.4785 41.9303C12.4176 41.5655 12.2294 41.2342 11.9472 40.9952C11.6651 40.7562 11.3073 40.625 10.9375 40.625H7.8125V37.5H10.9375C11.3073 37.5 11.6651 37.3688 11.9473 37.1298C12.2295 36.8908 12.4178 36.5595 12.4787 36.1947Z" fill="white"/>
<path d="M53.29 8.67611C53.1047 9.04674 53.0741 9.47581 53.2052 9.86894C53.3362 10.2621 53.618 10.587 53.9886 10.7724L57.1136 12.3349C57.2973 12.4286 57.4978 12.4849 57.7034 12.5008C57.909 12.5166 58.1157 12.4916 58.3116 12.4271C58.5075 12.3627 58.6887 12.2601 58.8447 12.1253C59.0008 11.9905 59.1286 11.8262 59.2208 11.6417C59.3131 11.4573 59.3679 11.2564 59.3821 11.0507C59.3963 10.845 59.3697 10.6385 59.3037 10.4431C59.2378 10.2477 59.1338 10.0673 58.9978 9.91231C58.8618 9.75731 58.6964 9.63077 58.5113 9.53998L55.3863 7.97748C55.0156 7.79215 54.5866 7.76164 54.1934 7.89266C53.8003 8.02367 53.4753 8.30549 53.29 8.67611Z" fill="white"/>
<path d="M68.75 1.5625V4.6875C68.75 5.1019 68.9146 5.49933 69.2076 5.79235C69.5007 6.08538 69.8981 6.25 70.3125 6.25C70.7269 6.25 71.1243 6.08538 71.4174 5.79235C71.7104 5.49933 71.875 5.1019 71.875 4.6875V1.5625C71.875 1.1481 71.7104 0.750671 71.4174 0.457646C71.1243 0.16462 70.7269 0 70.3125 0C69.8981 0 69.5007 0.16462 69.2076 0.457646C68.9146 0.750671 68.75 1.1481 68.75 1.5625Z" fill="white"/>
<path d="M60.2386 1.72748C59.868 1.91283 59.5862 2.23781 59.4552 2.63094C59.3241 3.02406 59.3547 3.45313 59.54 3.82377L61.1025 6.94877C61.1933 7.13392 61.3198 7.29927 61.4748 7.43528C61.6298 7.57129 61.8102 7.67528 62.0056 7.74124C62.201 7.8072 62.4075 7.83384 62.6132 7.81961C62.8189 7.80538 63.0198 7.75057 63.2042 7.65834C63.3887 7.56611 63.553 7.43827 63.6878 7.28222C63.8226 7.12616 63.9252 6.94496 63.9897 6.74907C64.0541 6.55318 64.0791 6.34648 64.0633 6.14087C64.0474 5.93526 63.9911 5.73482 63.8974 5.55111L62.3349 2.42611C62.1495 2.05549 61.8246 1.77367 61.4314 1.64266C61.0383 1.51164 60.6092 1.54215 60.2386 1.72748Z" fill="white"/>
<path d="M78.2896 2.42437L76.7271 5.54937C76.6335 5.73309 76.5771 5.93353 76.5613 6.13913C76.5454 6.34474 76.5704 6.55145 76.6349 6.74734C76.6993 6.94323 76.8019 7.12442 76.9367 7.28048C77.0715 7.43654 77.2358 7.56437 77.4203 7.6566C77.6047 7.74883 77.8056 7.80364 78.0113 7.81787C78.2171 7.8321 78.4236 7.80547 78.6189 7.73951C78.8143 7.67354 78.9947 7.56956 79.1497 7.43355C79.3047 7.29753 79.4313 7.13218 79.522 6.94703L81.0845 3.82203C81.1782 3.63831 81.2346 3.43788 81.2504 3.23227C81.2663 3.02666 81.2412 2.81995 81.1768 2.62406C81.1124 2.42818 81.0098 2.24698 80.875 2.09092C80.7402 1.93486 80.5758 1.80703 80.3914 1.7148C80.2069 1.62257 80.0061 1.56776 79.8003 1.55353C79.5946 1.5393 79.3881 1.56593 79.1927 1.6319C78.9974 1.69786 78.817 1.80184 78.662 1.93786C78.507 2.07387 78.3804 2.23922 78.2896 2.42437Z" fill="white"/>
<path d="M85.2378 7.97615L82.1128 9.53865C81.9277 9.62944 81.7623 9.75599 81.6263 9.91099C81.4903 10.066 81.3863 10.2464 81.3204 10.4418C81.2544 10.6371 81.2278 10.8437 81.242 11.0494C81.2562 11.2551 81.311 11.456 81.4033 11.6404C81.4955 11.8249 81.6233 11.9892 81.7794 12.124C81.9355 12.2588 82.1167 12.3614 82.3125 12.4258C82.5084 12.4903 82.7151 12.5153 82.9207 12.4995C83.1263 12.4836 83.3268 12.4272 83.5105 12.3336L86.6355 10.7711C86.8207 10.6803 86.986 10.5537 87.122 10.3987C87.258 10.2437 87.362 10.0633 87.428 9.86796C87.4939 9.67258 87.5206 9.46607 87.5063 9.26035C87.4921 9.05463 87.4373 8.85375 87.3451 8.66931C87.2528 8.48488 87.125 8.32052 86.969 8.18572C86.8129 8.05092 86.6317 7.94834 86.4358 7.8839C86.2399 7.81947 86.0332 7.79444 85.8276 7.81028C85.622 7.82611 85.4216 7.88248 85.2378 7.97615Z" fill="white"/>
<path d="M37.5 59.375C37.5 63.0834 38.5997 66.7085 40.6599 69.7919C42.7202 72.8754 45.6486 75.2786 49.0747 76.6977C52.5008 78.1169 56.2708 78.4882 59.9079 77.7647C63.5451 77.0413 66.886 75.2555 69.5083 72.6333C72.1305 70.011 73.9163 66.6701 74.6397 63.0329C75.3632 59.3958 74.9919 55.6258 73.5727 52.1997C72.1536 48.7736 69.7504 45.8452 66.6669 43.7849C63.5835 41.7247 59.9584 40.625 56.25 40.625C51.2789 40.6306 46.513 42.6078 42.9979 46.1229C39.4828 49.638 37.5056 54.4039 37.5 59.375ZM71.875 59.375C71.875 62.4653 70.9586 65.4863 69.2417 68.0558C67.5248 70.6253 65.0845 72.628 62.2294 73.8106C59.3743 74.9932 56.2327 75.3027 53.2017 74.6998C50.1708 74.0969 47.3867 72.6087 45.2015 70.4235C43.0163 68.2383 41.5281 65.4542 40.9252 62.4233C40.3223 59.3923 40.6318 56.2507 41.8144 53.3956C42.997 50.5405 44.9997 48.1002 47.5692 46.3833C50.1387 44.6664 53.1597 43.75 56.25 43.75C60.3926 43.7547 64.3641 45.4024 67.2933 48.3317C70.2226 51.2609 71.8703 55.2324 71.875 59.375Z" fill="white"/>
<path d="M46.875 59.375C46.875 58.9606 46.7104 58.5632 46.4174 58.2701C46.1243 57.9771 45.7269 57.8125 45.3125 57.8125C44.8981 57.8125 44.5007 57.9771 44.2076 58.2701C43.9146 58.5632 43.75 58.9606 43.75 59.375C43.7537 62.6891 45.0719 65.8663 47.4153 68.2097C49.7587 70.5531 52.9359 71.8713 56.25 71.875C56.6644 71.875 57.0618 71.7104 57.3549 71.4174C57.6479 71.1243 57.8125 70.7269 57.8125 70.3125C57.8125 69.8981 57.6479 69.5007 57.3549 69.2076C57.0618 68.9146 56.6644 68.75 56.25 68.75C53.7644 68.7473 51.3815 67.7587 49.6239 66.0011C47.8663 64.2435 46.8777 61.8606 46.875 59.375Z" fill="white"/>
</g>
</svg>
