<svg width="100" height="100" viewBox="0 0 100 100" fill="none" xmlns="http://www.w3.org/2000/svg">
<g opacity="0.1">
<path fill-rule="evenodd" clip-rule="evenodd" d="M20.5202 81.1686L19.1749 81.9453C13.6092 85.1586 6.42982 83.2283 3.22099 77.6704C0.012171 72.1128 1.93021 64.9298 7.4959 61.7165C9.0059 60.8447 15.0457 57.3577 16.5559 56.4857C22.101 51.5096 26.1379 44.5663 29.7167 38.3522C29.73 38.3257 29.7441 38.2994 29.759 38.2737C30.0871 37.7032 30.4133 37.1392 30.7363 36.5837C31.1267 35.9092 31.5126 35.2471 31.8955 34.6008C31.8965 34.599 31.8977 34.5973 31.8986 34.5955L31.8994 34.5941C32.7704 33.1279 34.2232 32.3065 35.9194 32.3185C37.6155 32.3304 39.0628 33.171 39.909 34.6369L45.5549 44.4159C48.9373 43.1653 52.8282 44.4939 54.6924 47.7224C56.5563 50.951 55.7614 54.9849 52.9871 57.2888L58.6329 67.0679C59.5043 68.5769 59.4831 70.3075 58.5802 71.793C57.6786 73.2761 56.1684 74.0918 54.4273 74.0234H54.4263L54.4237 74.0232C53.7041 73.9953 52.9816 73.9667 52.2567 73.9408C44.8979 73.6886 37.2741 73.772 29.8981 76.1353L38.1708 90.4639C38.6039 91.2141 38.3469 92.1735 37.5965 92.6067L35.912 93.5794C32.5159 95.54 28.1408 94.3677 26.18 90.9718L20.5202 81.1686ZM16.9057 59.9063L9.06452 64.4334C4.99374 66.7835 3.59119 72.0371 5.93786 76.1018C8.28472 80.1667 13.5357 81.5786 17.6063 79.2285L25.4475 74.7012L16.9057 59.9063ZM31.112 42.1812C27.87 47.7126 24.1924 53.5579 19.4659 58.0663L28.2959 73.3602C34.642 71.2183 41.1698 70.6992 47.5849 70.7132L31.112 42.1812ZM55.9161 68.6365L37.192 36.2055C36.9177 35.7302 36.4473 35.4594 35.8975 35.4555C35.3484 35.4518 34.8804 35.7204 34.5981 36.1941L34.5969 36.1961C34.0543 37.12 33.4959 38.0763 32.9298 39.0553L51.239 70.7679C51.7682 70.7841 52.2965 70.8026 52.8235 70.8222C53.4002 70.8426 53.9753 70.8649 54.5486 70.8885H54.55C55.1159 70.9108 55.6065 70.6453 55.8994 70.1634C56.1912 69.6834 56.1977 69.1241 55.9161 68.6365ZM51.378 54.502C52.669 53.1234 52.9686 51.0114 51.9753 49.291C50.9822 47.5706 49.0033 46.7741 47.1639 47.2028L51.378 54.502ZM23.2373 79.6L28.8971 89.4032C29.9943 91.3035 32.4428 91.9596 34.3433 90.8624L34.6694 90.6741L27.0161 77.4183L23.2373 79.6ZM98.9196 26.2418C98.9196 28.8661 96.7796 31.0012 94.1553 31.0012H80.3871L74.5986 37.0269C74.1551 37.4887 73.4755 37.6343 72.8818 37.3953C72.2879 37.1563 71.8988 36.5804 71.8988 35.9402V31.0012H70.7647C68.1404 31.0012 66.0004 28.8661 66.0004 26.2418V10.2339C66.0004 7.61022 68.1412 5.46944 70.7647 5.46944H94.1553C96.7788 5.46944 98.9196 7.61022 98.9196 10.2339V26.2418ZM95.7824 26.2418V10.2339C95.7824 9.33787 95.0512 8.60669 94.1553 8.60669H70.7647C69.8688 8.60669 69.1377 9.33787 69.1377 10.2339V26.2418C69.1377 27.1371 69.8694 27.8639 70.7647 27.8639H73.4675C74.3337 27.8639 75.0361 28.5663 75.0361 29.4326V32.043L78.5875 28.3459C78.8833 28.0381 79.2918 27.8639 79.7186 27.8639H94.1553C95.0506 27.8639 95.7824 27.1371 95.7824 26.2418ZM73.7961 14.7904C72.9304 14.7904 72.2275 14.0875 72.2275 13.2218C72.2275 12.3561 72.9304 11.6532 73.7961 11.6532H90.8433C91.7092 11.6532 92.412 12.3561 92.412 13.2218C92.412 14.0875 91.7092 14.7904 90.8433 14.7904H73.7961ZM73.7961 19.862C72.9304 19.862 72.2275 19.1592 72.2275 18.2934C72.2275 17.4277 72.9304 16.7247 73.7961 16.7247H90.8433C91.7092 16.7247 92.412 17.4277 92.412 18.2934C92.412 19.1592 91.7092 19.862 90.8433 19.862H73.7961ZM73.7961 24.9288C72.9304 24.9288 72.2275 24.2259 72.2275 23.3602C72.2275 22.4945 72.9304 21.7916 73.7961 21.7916H90.8433C91.7092 21.7916 92.412 22.4945 92.412 23.3602C92.412 24.2259 91.7092 24.9288 90.8433 24.9288H73.7961ZM84.1259 39.6102C92.2908 39.6102 98.9196 46.239 98.9196 54.4039C98.9196 62.5688 92.2908 69.1977 84.1259 69.1977C75.961 69.1977 69.3322 62.5688 69.3322 54.4039C69.3322 46.239 75.961 39.6102 84.1259 39.6102ZM84.1259 42.7475C77.6924 42.7475 72.4694 47.9706 72.4694 54.4039C72.4694 60.8375 77.6924 66.0604 84.1259 66.0604C90.5592 66.0604 95.7824 60.8375 95.7824 54.4039C95.7824 47.9706 90.5592 42.7475 84.1259 42.7475ZM90.9373 55.7624L81.3947 61.2718C80.9094 61.552 80.3114 61.552 79.8261 61.2718C79.3408 60.9916 79.0418 60.4737 79.0418 59.9134V48.8945C79.0418 48.3341 79.3408 47.8163 79.8261 47.5361C80.3114 47.2559 80.9094 47.2559 81.3947 47.5361L90.9373 53.0455C91.4226 53.3257 91.7216 53.8435 91.7216 54.4039C91.7216 54.9643 91.4226 55.4822 90.9373 55.7624ZM87.0157 54.4039L82.179 51.6116V57.1965L87.0157 54.4039ZM43.7759 32.6516C40.663 30.821 35.9881 27.5622 32.7126 23.7471C30.349 20.9939 28.7324 17.9371 28.6771 14.9157C28.5955 10.393 31.1457 7.13728 34.623 5.95277C37.6402 4.92493 41.4467 5.45493 44.8651 8.30826C48.2835 5.45826 52.0904 4.92806 55.1088 5.95493C58.5882 7.13846 61.14 10.3926 61.0582 14.9155C61.0031 17.9369 59.3863 20.9939 57.0228 23.7471C53.7475 27.5622 49.0724 30.821 45.9606 32.651C45.2702 33.0624 44.4665 33.0626 43.7759 32.6516ZM44.8677 29.6498C47.7396 27.9108 51.7747 25.0437 54.6426 21.7034C56.49 19.5514 57.8784 17.2202 57.9216 14.8587C57.9751 11.8904 56.3818 9.70179 54.0984 8.92493C51.6875 8.10493 48.633 8.84669 45.983 11.5406C45.6879 11.8404 45.2849 12.0092 44.8643 12.009C44.4437 12.009 44.0408 11.84 43.7459 11.54C41.0963 8.84395 38.0437 8.10179 35.6345 8.92238C33.3522 9.69983 31.7604 11.8902 31.8139 14.8587C31.8571 17.2202 33.2455 19.5514 35.093 21.7034C37.9606 25.0437 41.9959 27.9108 44.8677 29.6498ZM53.0577 38.6051C52.8335 39.4414 51.9726 39.9385 51.1365 39.7143C50.3002 39.4902 49.8031 38.6294 50.0273 37.7932L51.5245 32.2053C51.7486 31.369 52.6094 30.872 53.4457 31.0961C54.282 31.3202 54.7788 32.181 54.5549 33.0173L53.0577 38.6051ZM60.9426 56.7814C60.1065 56.5565 59.6104 55.6951 59.8353 54.859C60.0602 54.0232 60.9216 53.5269 61.7575 53.7518L67.3494 55.2561C68.1855 55.481 68.6816 56.3422 68.4567 57.1783C68.2318 58.0143 67.3706 58.5104 66.5345 58.2855L60.9426 56.7814ZM60.7618 46.0665C60.012 46.4992 59.052 46.242 58.619 45.4924C58.1861 44.7426 58.4433 43.7824 59.1931 43.3494L64.2124 40.4516C64.9622 40.0188 65.9224 40.2761 66.3551 41.0257C66.788 41.7755 66.5308 42.7357 65.781 43.1686L60.7618 46.0665Z" fill="white"/>
</g>
</svg>
