<svg width="100" height="100" viewBox="0 0 100 100" fill="none" xmlns="http://www.w3.org/2000/svg">
<g opacity="0.1">
<path d="M55.8003 1.90137C56.5555 1.90137 57.1929 2.46276 57.2882 3.21191L58.5563 13.1755C62.5904 14.1612 66.4692 15.7517 69.9315 17.9586L77.8832 11.8144L77.9404 11.7723C78.5393 11.3528 79.359 11.4258 79.8743 11.9542L87.6744 19.9542C88.1974 20.4907 88.2442 21.3308 87.7843 21.9222L81.4446 30.0729C83.6508 33.5375 85.2375 37.4419 86.0783 41.6543L95.7932 42.9137C96.5408 43.0107 97.1003 43.6474 97.1003 44.4013V55.8013C97.1003 56.5552 96.5408 57.1919 95.7932 57.2889L86.036 58.5536C85.0443 62.7604 83.4527 66.5207 81.4067 70.086L87.5872 78.0841C88.0443 78.6756 87.9961 79.5133 87.4743 80.0485L79.6744 88.0485C79.1369 88.5998 78.2691 88.6545 77.6665 88.1751L69.7181 81.8525C66.2592 84.0548 62.3853 85.6425 58.3564 86.6269L57.0884 96.5907C56.993 97.3399 56.3554 97.9013 55.6002 97.9013H44.4003C43.6451 97.9013 43.0077 97.3399 42.9124 96.5907L41.6442 86.6269C37.61 85.6412 33.7312 84.0507 30.2689 81.8439L22.3176 87.9882C21.7147 88.4541 20.8582 88.3939 20.3263 87.8484L12.5264 79.8484C12.0046 79.3132 11.9565 78.4757 12.4135 77.8842L18.5576 69.9325C16.3505 66.4672 14.7632 62.5617 13.9222 58.348L4.2075 57.0888C3.45988 56.9919 2.90039 56.3551 2.90039 55.6012V44.2014C2.90039 43.4475 3.45987 42.8106 4.2075 42.7137L13.9647 41.4487C14.9573 37.2421 16.5625 33.4713 18.7711 29.8873L12.6134 21.9184C12.1564 21.327 12.2046 20.4894 12.7263 19.9542L20.5264 11.9542L20.5771 11.9045C21.1115 11.4054 21.9334 11.3631 22.5175 11.8144L30.4681 17.9578C33.9074 15.7513 37.6609 14.1541 41.8452 13.1664L43.1123 3.21191L43.1227 3.14229C43.2475 2.42823 43.8687 1.90137 44.6004 1.90137H55.8003ZM44.6883 14.5908C44.6075 15.2256 44.1328 15.7393 43.5063 15.8698C38.8959 16.8303 34.8805 18.5535 31.2474 21.0393C30.7105 21.4067 29.9979 21.386 29.4831 20.9882L21.741 15.0056L15.784 21.1152L21.7873 28.8841C22.1771 29.3885 22.2053 30.0843 21.8579 30.6188C19.3531 34.4724 17.6286 38.5002 16.6688 43.1072C16.5385 43.7324 16.0266 44.2068 15.3931 44.2889L5.90027 45.5194V54.2831L15.3931 55.5137C16.0486 55.5987 16.5711 56.1027 16.6798 56.7546C17.444 61.3395 19.1618 65.5347 21.6384 69.1543C22.0057 69.6912 21.985 70.4036 21.5873 70.9184L15.5839 78.6872L21.5409 84.7968L29.2832 78.8144L29.332 78.7782C29.8423 78.4157 30.5272 78.4075 31.0473 78.7633C34.5569 81.1646 38.6234 82.8631 42.904 83.843L43.319 83.9355L43.3766 83.9492C43.9685 84.1024 44.4107 84.6014 44.4884 85.2119L45.7217 94.9014H54.279L55.5123 85.2119C55.5925 84.5818 56.061 84.0704 56.6817 83.9355C61.1142 82.9719 65.3306 81.2421 68.9534 78.7633L69.0047 78.7298C69.5415 78.3936 70.2349 78.4304 70.7341 78.8274L78.4728 84.9832L84.4165 78.8871L78.4135 71.1185C78.0358 70.6297 77.9963 69.9592 78.3141 69.4295C80.6425 65.5489 82.3716 61.5051 83.3319 56.8954L83.3451 56.8372C83.4942 56.2408 83.994 55.7933 84.6076 55.7138L94.1003 54.4832V45.7193L84.6076 44.4888C83.9521 44.4039 83.4294 43.8999 83.3207 43.2479C82.5566 38.663 80.8389 34.4679 78.3624 30.8482C77.9941 30.3099 78.0159 29.5952 78.4163 29.0803L84.6135 21.1122L78.6595 15.0056L70.9176 20.9882C70.4028 21.386 69.6902 21.4067 69.1533 21.0393C65.5304 18.5605 61.3141 16.8308 56.8816 15.8672C56.2609 15.7322 55.7926 15.2208 55.7124 14.5908L54.4791 4.90125H45.9216L44.6883 14.5908Z" fill="white"/>
<path d="M57.0999 34.4014C57.0998 30.4075 53.9492 27.1014 49.7999 27.1014C45.806 27.1015 42.4999 30.2521 42.4999 34.4014C42.4999 35.9158 43.015 37.5475 43.9388 38.6253C44.4779 39.2542 44.4051 40.2012 43.7761 40.7403C43.1471 41.2795 42.2002 41.2066 41.661 40.5776C40.1848 38.8554 39.5 36.487 39.5 34.4014C39.5 28.5509 44.1939 24.1016 49.7999 24.1016C55.6505 24.1016 60.0999 28.7954 60.0999 34.4014C60.0999 36.7066 59.4041 38.8682 57.9389 40.5776C57.3998 41.2066 56.4527 41.2795 55.8237 40.7403C55.1948 40.2012 55.1219 39.2542 55.661 38.6253C56.5957 37.5347 57.0999 36.0962 57.0999 34.4014Z" fill="white"/>
<path d="M53.3008 46.4023C53.3008 45.5739 53.9723 44.9023 54.8007 44.9023C55.6291 44.9023 56.3007 45.5739 56.3007 46.4023C56.3007 49.8868 56.6874 53.1716 57.4609 56.4588C58.2211 59.6897 59.5603 62.7675 61.1423 65.9314C61.5128 66.6724 61.2124 67.5734 60.4715 67.9439C59.7305 68.3143 58.8295 68.014 58.459 67.2731C56.841 64.0371 55.3803 60.7148 54.5406 57.1458C53.714 53.633 53.3008 50.1177 53.3008 46.4023Z" fill="white"/>
<path d="M43.7004 46.4023C43.7004 45.5739 44.3719 44.9023 45.2003 44.9023C46.0287 44.9023 46.7002 45.5739 46.7002 46.4023C46.7002 53.6566 44.8358 60.9045 41.3156 67.3236C40.9173 68.0499 40.0055 68.3158 39.2791 67.9176C38.5528 67.5192 38.2867 66.6074 38.685 65.8811C41.9648 59.9002 43.7004 53.1479 43.7004 46.4023Z" fill="white"/>
<path d="M61.7008 69.2043C61.7007 68.6328 61.1723 68.1044 60.6008 68.1044H39.4008C38.8293 68.1044 38.3007 68.6328 38.3007 69.2043V73.1045H61.7008V69.2043ZM64.7007 74.6044C64.7007 75.4329 64.0291 76.1044 63.2007 76.1044H36.8007C35.9723 76.1044 35.3008 75.4329 35.3008 74.6044V69.2043C35.3008 66.9759 37.1724 65.1045 39.4008 65.1045H60.6008C62.8292 65.1045 64.7006 66.976 64.7007 69.2043V74.6044Z" fill="white"/>
<path d="M59.7 42.9986C59.7 41.9687 58.9145 41.0985 57.8001 41.0985H42.4C41.1241 41.0986 40.4076 42.0822 40.4909 42.8329C40.497 42.8879 40.5001 42.9433 40.5001 42.9986C40.5001 44.0284 41.2856 44.8985 42.4 44.8985H57.8001C58.8299 44.8985 59.7 44.113 59.7 42.9986ZM62.7001 42.9986C62.7001 45.8841 60.3702 47.8986 57.8001 47.8986H42.4C39.5448 47.8985 37.5429 45.6174 37.5011 43.0795C37.2425 40.2711 39.703 38.0987 42.4 38.0986H57.8001C60.6856 38.0987 62.7001 40.4285 62.7001 42.9986Z" fill="white"/>
<path d="M26.9004 49.9985C26.9004 43.5846 29.4701 37.8076 33.7398 33.5379C34.3255 32.9522 35.2752 32.9522 35.8609 33.5379C36.4467 34.1237 36.4467 35.0735 35.8609 35.6593C32.1306 39.3896 29.9003 44.4126 29.9003 49.9985C29.9003 54.8438 31.5747 59.3019 34.5477 62.8323C35.0813 63.466 35.0002 64.4124 34.3665 64.946C33.7329 65.4796 32.7866 65.3985 32.253 64.7648C28.826 60.6953 26.9004 55.5533 26.9004 49.9985Z" fill="white"/>
<path d="M70.1012 49.9986C70.1011 44.4126 67.8708 39.3897 64.1405 35.6593C63.5547 35.0735 63.5547 34.1238 64.1405 33.538C64.7263 32.9522 65.6761 32.9522 66.2619 33.538C70.5315 37.8076 73.1012 43.5846 73.1012 49.9986C73.1012 55.5533 71.1756 60.6953 67.7486 64.7649C67.215 65.3986 66.2686 65.4797 65.6349 64.9461C65.0012 64.4125 64.9203 63.466 65.4539 62.8324C68.4269 59.3019 70.1012 54.8438 70.1012 49.9986Z" fill="white"/>
</g>
</svg>
