<svg width="100" height="100" viewBox="0 0 100 100" fill="none" xmlns="http://www.w3.org/2000/svg">
<g opacity="0.1">
<path d="M44.0856 18.2379C44.0856 17.375 44.7852 16.6754 45.6481 16.6754H70.0848C70.9477 16.6754 71.6473 17.375 71.6473 18.2379C71.6473 19.1008 70.9477 19.8004 70.0848 19.8004H45.6481C44.7852 19.8004 44.0856 19.101 44.0856 18.2379ZM31.2041 21.5701C31.5092 21.8752 31.909 22.0277 32.309 22.0277C32.709 22.0277 33.1088 21.8752 33.4139 21.5701L38.2036 16.7805C38.8139 16.1703 38.8137 15.1811 38.2036 14.5709C37.5934 13.9607 36.6041 13.9607 35.994 14.5709L32.3092 18.2559L31.0192 16.9658C30.409 16.3557 29.4198 16.3557 28.8096 16.9658C28.1993 17.576 28.1994 18.5652 28.8096 19.1754L31.2041 21.5701ZM45.6481 36.4658H70.0848C70.9477 36.4658 71.6473 35.7662 71.6473 34.9033C71.6473 34.0404 70.9477 33.3408 70.0848 33.3408H45.6481C44.7852 33.3408 44.0856 34.0404 44.0856 34.9033C44.0856 35.7662 44.7852 36.4658 45.6481 36.4658ZM31.2041 38.4029C31.5092 38.708 31.909 38.8605 32.309 38.8605C32.709 38.8605 33.1088 38.708 33.4139 38.4029L38.2036 33.6133C38.8139 33.0031 38.8137 32.0139 38.2036 31.4037C37.5934 30.7936 36.6041 30.7936 35.994 31.4037L32.3092 35.0887L31.0192 33.7986C30.409 33.1885 29.4198 33.1885 28.8096 33.7986C28.1993 34.4088 28.1994 35.398 28.8096 36.0082L31.2041 38.4029ZM93.1772 66.1211L86.2676 70.1102C85.552 70.5234 84.7565 70.7344 83.9491 70.7344C83.5422 70.7344 83.1327 70.6811 82.7285 70.5727C81.5227 70.2496 80.5162 69.4787 79.895 68.4027L79.7059 68.0754L76.2106 69.8602C77.2557 71.5172 77.1045 73.5605 76.1862 75.1395C75.7244 75.933 75.0647 76.6168 74.2742 77.0891C74.7326 77.8395 74.9762 78.6998 74.9729 79.616C74.9659 81.515 73.8965 83.3516 72.2485 84.2949C71.3328 84.8189 70.3202 85.0223 69.3063 84.9051C69.2543 85.757 68.992 86.5941 68.5633 87.3303C67.6567 88.8869 65.9875 90.0129 64.0678 89.9637C64.0473 90.8838 63.7787 91.7945 63.3164 92.5881C62.4309 94.1082 60.8198 95.2232 58.9549 95.2232C58.1055 95.2232 57.2034 94.9918 56.2934 94.4619L52.1668 92.059L51.3641 93.2004C50.3584 94.6301 48.8848 95.4242 47.2696 95.4242C47.1215 95.4242 46.9723 95.4176 46.8221 95.4041C44.9696 95.2379 43.2637 94.0615 42.4438 92.3943C40.7034 93.2937 38.6791 92.9664 37.184 91.9148C36.2186 91.2357 35.4625 90.2471 35.1176 89.1088C33.6823 89.4227 32.1787 89.0436 31.0024 88.216C29.5371 87.1853 28.5547 85.4412 28.7592 83.5439C27.8379 83.4473 26.9471 83.1006 26.1912 82.5689C24.0967 81.0953 22.9891 78.1633 24.9252 75.4109L25.058 75.2221L19.8782 68.7535C19.252 69.6457 18.3407 70.2861 17.2705 70.5728C16.8666 70.6812 16.4567 70.7346 16.05 70.7346C15.2426 70.7346 14.4471 70.5236 13.7313 70.1104L6.82191 66.1211C4.59418 64.8352 3.82816 61.9764 5.11429 59.7484L17.2409 38.7445C17.6135 38.0992 18.1186 37.5773 18.7016 37.1916V6.13281C18.7016 5.26992 19.4012 4.57031 20.2641 4.57031H79.7348C80.5977 4.57031 81.2973 5.26992 81.2973 6.13281V37.1916C81.8803 37.5771 82.3856 38.099 82.758 38.7443L94.8846 59.7482C96.1707 61.9764 95.4047 64.835 93.1772 66.1211ZM21.8266 7.69531V36.4445C22.4389 36.5158 23.0467 36.7096 23.6135 37.0369L30.5231 41.0262C31.5993 41.6475 32.37 42.6537 32.693 43.8598C32.8944 44.6115 32.9063 45.383 32.7364 46.1182L41.3993 49.2127C45.0532 45.9467 47.7485 44.7863 53.3084 46.0102C58.5207 47.1576 62.8928 47.1682 67.2428 46.0234C67.095 45.3168 67.1127 44.5793 67.3057 43.8596C67.6287 42.6535 68.3994 41.6471 69.4758 41.026L76.3852 37.0367C76.952 36.7094 77.5598 36.5158 78.1721 36.4445V7.69531H21.8266ZM17.3977 66.8402L29.5243 45.8363C29.7282 45.483 29.7817 45.0684 29.6746 44.6688C29.5676 44.2691 29.3139 43.9365 28.9606 43.7326L22.0512 39.7434C21.8094 39.6037 21.5448 39.5373 21.2836 39.5373C20.7508 39.5373 20.2323 39.8137 19.9473 40.307L7.82074 61.3109C7.39613 62.0465 7.64906 62.9902 8.38441 63.4146L15.294 67.4041C15.6475 67.6082 16.0623 67.6617 16.4618 67.5543C16.8614 67.4473 17.1938 67.1937 17.3977 66.8402ZM30.8002 79.5445L34.3912 74.4393L34.3918 74.4383C35.483 72.8816 34.1569 71.8318 33.8799 71.6371C33.6028 71.4422 32.1651 70.5496 31.0696 72.107L27.4811 77.2084C26.3852 78.7664 27.7121 79.8178 27.9893 80.0127C28.2662 80.2078 29.7032 81.1008 30.7993 79.5457L30.8002 79.5445ZM35.9164 84.7572L40.9328 77.6256L41.6955 76.5412C42.7914 74.9832 41.4643 73.9318 41.1871 73.7369C40.9098 73.5418 39.4717 72.6482 38.3756 74.2061L36.9485 76.2352C36.9483 76.2355 36.9481 76.2357 36.9479 76.2361L36.9473 76.2371L33.3563 81.3424L32.292 82.8555C31.1961 84.4137 32.5233 85.465 32.8004 85.66C33.0776 85.8547 34.5159 86.748 35.6118 85.1906L35.9164 84.7572ZM42.9287 87.2744C42.9299 87.2729 42.9311 87.2713 42.9323 87.2697L44.7317 84.7113L46.8073 81.7605C47.9028 80.2029 46.5762 79.1516 46.2993 78.9564C46.0225 78.7619 44.5862 77.8686 43.4905 79.4215L43.4889 79.4238L38.4727 86.5553L38.4717 86.5568C37.3786 88.1137 38.7047 89.1643 38.9819 89.3592C39.259 89.5541 40.6973 90.4479 41.793 88.8898L42.9287 87.2744ZM50.0985 86.0402C49.8213 85.8451 48.384 84.952 47.2885 86.5082L47.2877 86.5094L45.4883 89.0678C45.0309 89.7182 44.9434 90.3598 45.2286 90.9748C45.5559 91.6807 46.326 92.2225 47.101 92.2918C47.776 92.3523 48.3504 92.0531 48.808 91.4027L50.6073 88.8447C51.7028 87.2867 50.3756 86.2352 50.0985 86.0402ZM72.7758 70.8082L53.4541 59.624C51.7172 58.6209 50.0002 59.3437 47.3424 60.6053C47.2133 60.6664 47.0844 60.7277 46.9551 60.7887C46.7612 61.1781 46.5655 61.5963 46.3618 62.0314C45.3582 64.1756 44.2207 66.6055 42.2532 67.6676C39.9373 68.9174 37.8707 69.1082 36.434 68.2043C35.7727 67.7881 34.6793 66.7537 34.7862 64.5002L35.1998 55.7912C35.2186 55.3943 35.3881 55.0195 35.6737 54.743C36.4864 53.9561 37.2155 53.2375 37.9207 52.5428C38.2432 52.2252 38.5536 51.9195 38.8565 51.6227L31.3416 48.9381L21.569 65.865L26.9301 72.56L28.5135 70.3088C30.4489 67.5568 33.5821 67.608 35.6768 69.0799C36.3586 69.559 36.936 70.1926 37.3379 70.9242C39.1584 69.7564 41.3776 70.0498 42.985 71.1805C44.3338 72.1291 45.2735 73.6828 45.2549 75.4035C46.2731 75.4547 47.267 75.8156 48.0979 76.4004C49.9514 77.7049 51.0317 80.1512 49.9133 82.6045C50.6241 82.7621 51.302 83.0654 51.8965 83.4838C53.6807 84.7391 54.7473 87.0518 53.8291 89.4105L57.8659 91.7611C59.5121 92.7193 60.4457 91.3076 60.6162 91.0148C60.7868 90.7223 61.5535 89.2148 59.9116 88.2557L59.9094 88.2543C59.9092 88.2541 59.9092 88.2541 59.9088 88.2539C59.9088 88.2539 59.9088 88.2539 59.9086 88.2539L54.7071 85.2254C53.9614 84.7912 53.7088 83.8348 54.143 83.0891C54.5772 82.3434 55.5336 82.091 56.2795 82.525L61.4811 85.5537C61.4813 85.5539 61.4817 85.5539 61.4819 85.5541L61.4825 85.5545C61.4836 85.5551 61.4848 85.5559 61.486 85.5564L63.1125 86.5039C64.7584 87.4619 65.6922 86.0502 65.8629 85.7576C66.0334 85.4648 66.8 83.9574 65.158 82.9982L65.1557 82.9969C65.1555 82.9969 65.1555 82.9967 65.1553 82.9967C65.1549 82.9965 65.1545 82.9961 65.1541 82.9959L58.7776 79.283C58.0319 78.8488 57.7793 77.8924 58.2135 77.1467C58.6479 76.401 59.6043 76.1486 60.35 76.5826L66.7284 80.2965L66.7287 80.2967C66.7301 80.2975 66.7311 80.298 66.7323 80.2988L68.7737 81.4875C69.4612 81.8879 70.1078 81.9197 70.6961 81.583C71.3715 81.1965 71.8452 80.3828 71.8479 79.6047C71.8504 78.9268 71.5032 78.3801 70.8159 77.9799L69.167 77.0197C69.1666 77.0195 69.1661 77.0193 69.1657 77.0189L69.1643 77.0182C69.1641 77.018 69.1637 77.0178 69.1635 77.0176L62.8483 73.3406C62.1026 72.9064 61.85 71.95 62.2842 71.2043C62.7186 70.4586 63.6748 70.2062 64.4207 70.6402L70.736 74.3172C72.3823 75.2734 73.3147 73.8613 73.485 73.5686C73.6549 73.2756 74.4211 71.7664 72.7758 70.8082ZM78.1412 65.3654L68.6264 48.885C62.0641 50.7375 56.4026 49.8912 52.6368 49.0621C47.1354 47.8518 45.7875 49.1797 40.1141 54.7693C39.5608 55.3145 38.9469 55.9191 38.292 56.5566L37.9077 64.649C37.8825 65.1795 37.9852 65.4887 38.0983 65.5598C38.3625 65.7258 39.3217 65.6992 40.7688 64.918C41.8282 64.3461 42.733 62.4129 43.5315 60.707C43.8211 60.0879 44.1209 59.448 44.4295 58.8666C44.5899 58.5648 44.8448 58.324 45.1551 58.1807C45.4379 58.0502 45.7203 57.9162 46.0022 57.7822C48.7059 56.4986 51.7703 55.0438 55.0182 56.9186L73.6088 67.6795L78.1412 65.3654ZM92.1782 61.3107L80.0518 40.307C79.6272 39.5715 78.6832 39.3187 77.9479 39.7434L71.0383 43.7326C70.685 43.9365 70.4315 44.2691 70.3242 44.6688C70.2172 45.0684 70.2705 45.483 70.4746 45.8363L82.6012 66.8404C82.8051 67.1937 83.1377 67.4473 83.5373 67.5543C83.9373 67.6621 84.3516 67.6082 84.7049 67.4041L91.6147 63.4148C92.35 62.9902 92.603 62.0463 92.1782 61.3107Z" fill="white"/>
</g>
</svg>
