<svg width="34" height="34" viewBox="0 0 34 34" fill="none" xmlns="http://www.w3.org/2000/svg">
<g clip-path="url(#clip0_493_2519)">
<path d="M22.2309 18.3058H26.8078C27.3528 18.3058 27.816 18.4964 28.1975 18.8779C28.5787 19.2593 28.7696 19.7224 28.7696 20.2675V20.921C28.7696 22.365 28.2586 23.5977 27.2369 24.6195C26.2152 25.6409 24.9823 26.1518 23.5385 26.1518H22.2309C21.8768 26.1518 21.5704 26.2812 21.3115 26.54C21.0527 26.7988 20.9233 27.1052 20.9233 27.4594V30.075C20.9233 30.4291 21.0527 30.7358 21.3115 30.9946C21.5703 31.2531 21.8767 31.3828 22.2309 31.3828H23.5385C24.9553 31.3828 26.3069 31.1067 27.5944 30.5553C28.8816 30.0035 29.9951 29.2576 30.9351 28.3176C31.875 27.378 32.6207 26.2645 33.1724 24.9771C33.7241 23.6898 34 22.3378 34 20.9211V6.53684C34 5.44653 33.6188 4.52074 32.8559 3.75762C32.093 2.99494 31.1665 2.61363 30.0769 2.61363H22.2304C21.1408 2.61363 20.2146 2.99494 19.4516 3.75762C18.6889 4.52074 18.3074 5.44653 18.3074 6.53684V14.3826C18.3074 15.4727 18.6889 16.3985 19.4521 17.1617C20.2147 17.9243 21.1413 18.3058 22.2309 18.3058Z" fill="white" fill-opacity="0.1"/>
<path d="M1.14314 17.1617C1.90575 17.9243 2.83204 18.3058 3.92192 18.3058H8.49882C9.04344 18.3058 9.50712 18.4964 9.88793 18.8779C10.2695 19.2593 10.46 19.7224 10.46 20.2675V20.921C10.46 22.365 9.94912 23.5977 8.92786 24.6195C7.90654 25.6409 6.67373 26.1518 5.22916 26.1518H3.92185C3.56767 26.1518 3.26108 26.2812 3.00237 26.54C2.74379 26.7988 2.6139 27.1052 2.6139 27.4594V30.075C2.6139 30.4291 2.74372 30.7358 3.00237 30.9946C3.26101 31.2531 3.5676 31.3828 3.92185 31.3828H5.22916C6.64675 31.3828 7.99814 31.1067 9.28591 30.5553C10.573 30.0035 11.686 29.2576 12.6261 28.3176C13.5661 27.378 14.3121 26.2645 14.8636 24.9771C15.4152 23.6898 15.6914 22.3378 15.6914 20.9211V6.53684C15.6914 5.44653 15.3098 4.52074 14.5472 3.75762C13.7845 2.99494 12.8582 2.61363 11.7684 2.61363H3.92235C2.83246 2.61363 1.90625 2.99494 1.14364 3.75762C0.38045 4.52074 -0.000354767 5.44653 -0.000354767 6.53684V14.3826C-0.000426292 15.4728 0.380451 16.3985 1.14314 17.1617Z" fill="white" fill-opacity="0.1"/>
</g>
<defs>
<clipPath id="clip0_493_2519">
<rect width="34" height="34" fill="white" transform="matrix(-1 0 0 -1 34 34)"/>
</clipPath>
</defs>
</svg>
