<svg width="96" height="29" viewBox="0 0 96 29" fill="none" xmlns="http://www.w3.org/2000/svg">
<g clip-path="url(#clip0_389_28037)">
<path d="M88.0206 13.9006H84.624C82.4374 13.9006 81.266 15.5407 81.266 18.2738V28.154H74.824V13.8996H72.0902C69.9037 13.8996 68.7332 15.5397 68.7332 18.2729V28.153H62.2902V8.62854H68.7332V11.5966C69.7879 9.29251 71.2324 8.62854 73.3804 8.62854H81.267V11.5966C82.3217 9.29251 83.7662 8.62854 85.9142 8.62854H88.0216L88.0206 13.9006ZM60.8843 19.9139H47.4531C47.8043 22.101 49.1707 23.3507 51.474 23.3507C53.1916 23.3507 54.4027 22.6471 54.7935 21.3984L60.4934 22.9989C59.0885 26.396 55.6127 28.4662 51.474 28.4662C44.4849 28.4662 41.2832 23.0375 41.2832 18.3918C41.2832 13.8233 44.0941 8.35602 51.0832 8.35602C58.5018 8.35602 60.9614 13.9006 60.9614 18.0013C60.9663 18.6397 60.9405 19.278 60.8843 19.9139ZM54.6372 16.1264C54.4808 14.4466 53.2698 12.8858 51.0842 12.8858C49.053 12.8858 47.8439 13.7827 47.4531 16.1264H54.6372ZM30.0396 28.153H35.7L42.7673 8.63053H36.2867L32.8505 19.9922L29.3361 8.62953H22.8931L30.0396 28.153ZM3.64527 28.153H10.0487V13.9006H16.1414V28.154H22.5053V8.62953H10.0487V7.41954C10.0487 6.09161 10.9857 5.27206 12.4698 5.27206H16.1404V0H11.416C6.76882 0 3.64527 2.85108 3.64527 7.0281V8.62953H0.0141602V13.9016H3.64527V28.153Z" fill="white"/>
<path d="M92.0038 28.74C94.2033 28.74 95.9862 26.9562 95.9862 24.7562C95.9862 22.5562 94.2033 20.7734 92.0038 20.7734C89.8044 20.7734 88.0205 22.5572 88.0205 24.7572C88.0205 26.9572 89.8044 28.74 92.0038 28.74Z" fill="#BFF747"/>
</g>
<defs>
<clipPath id="clip0_389_28037">
<rect width="96" height="29" fill="white"/>
</clipPath>
</defs>
</svg>
