<svg width="97" height="29" viewBox="0 0 97 29" fill="none" xmlns="http://www.w3.org/2000/svg">
<g clip-path="url(#clip0_389_28032)">
<path d="M26.5456 18.3141C24.9693 18.3141 23.4923 17.6464 22.1503 16.5593L22.4771 15.0248L22.4913 14.9679C22.7822 13.3341 23.7054 10.5916 26.5456 10.5916C28.6756 10.5916 30.4082 12.3251 30.4082 14.4564C30.401 16.5806 28.6686 18.3141 26.5456 18.3141ZM26.5456 6.67716C22.9171 6.67716 20.1055 9.03583 18.9625 12.9148C17.2157 10.2933 15.8949 7.14609 15.1211 4.49609H11.2159V14.6624C11.2159 16.6659 9.58278 18.2997 7.58045 18.2997C5.57811 18.2997 3.94518 16.6659 3.94518 14.6624V4.49609H0.0395953V14.6624C0.0253877 18.8257 3.4123 22.2428 7.57306 22.2428C11.734 22.2428 15.1209 18.8257 15.1209 14.6624V12.9575C15.8806 14.5417 16.8107 16.1401 17.9397 17.5611L15.5468 28.8142H19.5444L21.2768 20.6514C22.7963 21.6247 24.5431 22.2358 26.5454 22.2358C30.8268 22.2358 34.3132 18.7262 34.3132 14.4421C34.3132 10.1653 30.827 6.67716 26.5456 6.67716Z" fill="#6FDA44"/>
<path d="M46.2347 7.11756L48.7554 17.2839L51.5317 7.11756H54.8404L50.5732 21.8094H47.2643L44.6444 11.579L42.0314 21.8022H38.7227L34.4551 7.11055H37.7639L40.5401 17.2768L43.0607 7.11055H46.2345V7.11775L46.2347 7.11756ZM62.7573 6.67706C58.4616 6.67706 54.9825 10.1652 54.9825 14.4563C54.9825 18.7545 58.4687 22.2357 62.7573 22.2357C67.0531 22.2357 70.5393 18.7545 70.5393 14.4563C70.5393 10.1582 67.0531 6.67706 62.7573 6.67706ZM62.7573 19.0386C60.2296 19.0386 58.1847 16.9925 58.1847 14.4635C58.1847 11.9342 60.2367 9.88829 62.7573 9.88829C65.2851 9.88829 67.3299 11.9342 67.3299 14.4635C67.3299 16.9855 65.2851 19.0386 62.7573 19.0386ZM79.9898 10.4069C77.7676 10.4069 75.9711 12.2113 75.9711 14.4278V21.8022H72.6409V7.11756H75.9711V9.37672C75.9711 9.37672 77.3912 7.11036 80.3094 7.11036H81.3318V10.4069H79.9898ZM91.1659 13.888C93.5301 12.5523 95.135 10.016 95.135 7.11036H91.8047C91.8047 9.56133 89.8168 11.5506 87.3672 11.5506H86.9198V0.0273438H83.5899V21.802H86.9198V14.8825H87.3176C87.6441 14.8825 88.0702 15.0958 88.2619 15.3585L92.9906 21.8022H96.981L91.1659 13.888Z" fill="white"/>
</g>
<defs>
<clipPath id="clip0_389_28032">
<rect width="97" height="29" fill="white"/>
</clipPath>
</defs>
</svg>
