<svg width="146" height="36" viewBox="0 0 146 36" fill="none" xmlns="http://www.w3.org/2000/svg">
<g clip-path="url(#clip0_1134_38)">
<path d="M42.5156 25.207H52.9647V22.1314H46.2294V10.5469H42.5156V25.207Z" fill="white"/>
<path d="M59.1553 23.1525C57.6656 23.1525 56.8893 21.8813 56.8893 19.9745C56.8893 18.0676 57.6656 16.7759 59.1553 16.7759C60.6451 16.7759 61.4424 18.0676 61.4424 19.9745C61.4424 21.8813 60.6451 23.1525 59.1553 23.1525ZM59.1763 25.5309C62.6384 25.5309 64.9044 23.132 64.9044 19.9745C64.9044 16.8169 62.6384 14.418 59.1763 14.418C55.7353 14.418 53.4272 16.8169 53.4272 19.9745C53.4272 23.132 55.7353 25.5309 59.1763 25.5309Z" fill="white"/>
<path d="M70.8967 28.8369C72.4914 28.8369 73.8972 28.4883 74.8413 27.6682C75.7016 26.9096 76.2681 25.7614 76.2681 24.1826V14.7099H72.9949V15.8376H72.953C72.3235 14.9559 71.3583 14.4023 69.9316 14.4023C67.2668 14.4023 65.4204 16.5757 65.4204 19.6513C65.4204 22.8703 67.6655 24.6337 70.0784 24.6337C71.3793 24.6337 72.1976 24.1211 72.8271 23.4239H72.911V24.4696C72.911 25.7408 72.3025 26.479 70.8548 26.479C69.7217 26.479 69.1552 26.0074 68.9664 25.4538H65.6512C65.9869 27.6477 67.9383 28.8369 70.8967 28.8369ZM70.8757 22.1527C69.5958 22.1527 68.7566 21.1275 68.7566 19.5488C68.7566 17.9495 69.5958 16.9243 70.8757 16.9243C72.3025 16.9243 73.0579 18.1135 73.0579 19.5283C73.0579 21.0045 72.3655 22.1527 70.8757 22.1527Z" fill="white"/>
<path d="M82.9986 23.1525C81.5089 23.1525 80.7325 21.8813 80.7325 19.9745C80.7325 18.0676 81.5089 16.7759 82.9986 16.7759C84.4883 16.7759 85.2856 18.0676 85.2856 19.9745C85.2856 21.8813 84.4883 23.1525 82.9986 23.1525ZM83.0196 25.5309C86.4816 25.5309 88.7479 23.132 88.7479 19.9745C88.7479 16.8169 86.4816 14.418 83.0196 14.418C79.5785 14.418 77.2705 16.8169 77.2705 19.9745C77.2705 23.132 79.5785 25.5309 83.0196 25.5309Z" fill="white"/>
<path d="M89.7461 25.207H93.1662V14.7091H89.7461V25.207ZM89.7461 13.2534H93.1662V10.5469H89.7461V13.2534Z" fill="white"/>
<path d="M94.6499 28.6729H98.07V24.1211H98.1119C98.7834 25.0027 99.7695 25.5358 101.154 25.5358C103.966 25.5358 105.833 23.3624 105.833 19.9588C105.833 16.8013 104.092 14.4023 101.238 14.4023C99.7695 14.4023 98.7204 15.038 97.986 15.9811H97.9231V14.7099H94.6499V28.6729ZM100.273 22.9524C98.8043 22.9524 97.9651 21.7837 97.9651 20.0818C97.9651 18.38 98.7204 17.0883 100.21 17.0883C101.679 17.0883 102.371 18.2775 102.371 20.0818C102.371 21.8657 101.574 22.9524 100.273 22.9524Z" fill="white"/>
<path d="M111.402 25.5358C114.214 25.5358 116.291 24.3466 116.291 22.0502C116.291 19.3642 114.067 18.8926 112.179 18.5851C110.815 18.339 109.598 18.2365 109.598 17.4984C109.598 16.8423 110.248 16.5347 111.088 16.5347C112.032 16.5347 112.682 16.8218 112.808 17.7649H115.955C115.788 15.6941 114.151 14.4023 111.109 14.4023C108.57 14.4023 106.471 15.5505 106.471 17.7649C106.471 20.2254 108.465 20.7175 110.332 21.025C111.759 21.2711 113.06 21.3736 113.06 22.3167C113.06 22.9934 112.409 23.3624 111.381 23.3624C110.248 23.3624 109.535 22.8498 109.409 21.8042H106.178C106.283 24.1211 108.255 25.5358 111.402 25.5358Z" fill="white"/>
<path d="M120.936 25.5124C122.426 25.5124 123.37 24.9383 124.146 23.9132H124.209V25.2049H127.482V14.707H124.062V20.5711C124.062 21.8218 123.349 22.6829 122.174 22.6829C121.083 22.6829 120.558 22.0473 120.558 20.8991V14.707H117.159V21.5962C117.159 23.9337 118.46 25.5124 120.936 25.5124Z" fill="white"/>
<path d="M128.971 25.2078H132.391V19.3232C132.391 18.0725 133.02 17.1908 134.09 17.1908C135.118 17.1908 135.601 17.847 135.601 18.9747V25.2078H139.021V19.3232C139.021 18.0725 139.63 17.1908 140.721 17.1908C141.749 17.1908 142.231 17.847 142.231 18.9747V25.2078H145.651V18.38C145.651 16.0221 144.434 14.4023 142.001 14.4023C140.616 14.4023 139.462 14.9764 138.622 16.2477H138.58C138.035 15.12 136.965 14.4023 135.559 14.4023C134.006 14.4023 132.978 15.12 132.307 16.2067H132.244V14.7099H128.971V25.2078Z" fill="white"/>
<path fill-rule="evenodd" clip-rule="evenodd" d="M7.5661 3.9331C6.31535 4.78772 5.18433 5.79817 4.2025 6.93562C8.2147 6.57162 13.3121 7.16599 19.23 10.0575C25.5497 13.1452 30.6385 13.2496 34.1801 12.582C33.8587 11.6313 33.4541 10.7175 32.9749 9.84883C28.9208 10.2667 23.7233 9.71359 17.6662 6.75415C13.8198 4.87482 10.4293 4.10066 7.5661 3.9331ZM30.6067 6.55481C27.4051 3.05924 22.7524 0.859375 17.5739 0.859375C16.0531 0.859375 14.5775 1.04912 13.1709 1.40569C15.076 1.91368 17.0999 2.65685 19.23 3.69765C23.6648 5.86442 27.4935 6.56208 30.6067 6.55481ZM34.9373 15.9194C30.6587 16.745 24.7504 16.5754 17.6662 13.114C11.0432 9.87804 5.77188 9.9188 2.21671 10.6908C2.0332 10.7307 1.85402 10.7725 1.67916 10.8161C1.2137 11.8053 0.842152 12.8455 0.575565 13.9257C0.860294 13.8514 1.15452 13.7807 1.45809 13.7148C5.77113 12.7782 11.8651 12.8189 19.23 16.4174C25.8531 19.6534 31.1244 19.6127 34.6796 18.8406C34.8014 18.8142 34.9215 18.7869 35.0395 18.7587C35.0524 18.4893 35.0589 18.2182 35.0589 17.9457C35.0589 17.2601 35.0176 16.5839 34.9373 15.9194ZM34.4686 22.3645C30.2315 23.0884 24.4953 22.8105 17.6662 19.4739C11.0432 16.2379 5.77188 16.2787 2.21671 17.0507C1.42756 17.222 0.717663 17.4307 0.0914287 17.6511C0.0897213 17.749 0.0888672 17.8473 0.0888672 17.9457C0.0888672 27.3822 7.91717 35.0321 17.5739 35.0321C25.6669 35.0321 32.4757 29.6592 34.4686 22.3645Z" fill="#FB3602"/>
</g>
<defs>
<clipPath id="clip0_1134_38">
<rect width="146" height="36" fill="white"/>
</clipPath>
</defs>
</svg>
