<svg width="34" height="34" viewBox="0 0 34 34" fill="none" xmlns="http://www.w3.org/2000/svg">
<path d="M11.7691 15.6942H7.19216C6.64725 15.6942 6.184 15.5036 5.80255 15.1221C5.42131 14.7407 5.23044 14.2776 5.23044 13.7325V13.079C5.23044 11.635 5.74136 10.4023 6.76311 9.38053C7.7848 8.35913 9.01768 7.84822 10.4615 7.84822H11.7691C12.1232 7.84822 12.4296 7.71875 12.6885 7.46004C12.9473 7.20118 13.0767 6.8948 13.0767 6.54062V3.925C13.0767 3.57089 12.9473 3.26422 12.6885 3.00537C12.4297 2.74687 12.1233 2.61719 11.7691 2.61719H10.4615C9.04473 2.61719 7.69305 2.89329 6.40564 3.44471C5.11837 3.99649 4.00494 4.74236 3.06491 5.68239C2.12496 6.62199 1.3793 7.7355 0.827596 9.02291C0.275889 10.3102 0 11.6622 0 13.0789V27.4632C0 28.5535 0.381235 29.4793 1.14406 30.2424C1.90696 31.0051 2.83346 31.3864 3.92314 31.3864H11.7696C12.8592 31.3864 13.7854 31.0051 14.5484 30.2424C15.3111 29.4793 15.6926 28.5535 15.6926 27.4632V19.6174C15.6926 18.5273 15.3111 17.6015 14.5479 16.8383C13.7853 16.0757 12.8587 15.6942 11.7691 15.6942Z" fill="white" fill-opacity="0.1"/>
<path d="M32.8564 16.8383C32.0938 16.0757 31.1675 15.6942 30.0776 15.6942H25.5007C24.9561 15.6942 24.4924 15.5036 24.1116 15.1221C23.73 14.7407 23.5395 14.2776 23.5395 13.7325V13.079C23.5395 11.635 24.0504 10.4023 25.0716 9.38053C26.093 8.35913 27.3258 7.84822 28.7704 7.84822H30.0777C30.4318 7.84822 30.7384 7.71875 30.9971 7.46004C31.2557 7.20118 31.3856 6.8948 31.3856 6.54062V3.925C31.3856 3.57089 31.2558 3.26422 30.9971 3.00537C30.7385 2.74687 30.4319 2.61719 30.0777 2.61719H28.7704C27.3528 2.61719 26.0014 2.89329 24.7136 3.44471C23.4265 3.99649 22.3135 4.74236 21.3734 5.68239C20.4334 6.62199 19.6874 7.7355 19.1359 9.02291C18.5844 10.3102 18.3081 11.6622 18.3081 13.0789V27.4632C18.3081 28.5535 18.6897 29.4793 19.4523 30.2424C20.215 31.0051 21.1413 31.3864 22.2311 31.3864H30.0772C31.167 31.3864 32.0933 31.0051 32.8559 30.2424C33.6191 29.4793 33.9999 28.5535 33.9999 27.4632V19.6174C33.9999 18.5272 33.6191 17.6015 32.8564 16.8383Z" fill="white" fill-opacity="0.1"/>
</svg>
