<svg width="160" height="160" viewBox="0 0 160 160" fill="none" xmlns="http://www.w3.org/2000/svg">
<circle cx="80" cy="80" r="80" fill="#FB3602"/>
<circle cx="80" cy="80" r="40" fill="white"/>
<path d="M70.8645 65.5882C69.669 70.8033 65.5215 74.92 60.2672 76.1065C59.339 76.3161 58.667 77.1136 58.667 78.0585V81.9407C58.667 83.1815 59.7978 84.1247 61.0283 83.9057C64.1896 83.343 67.1189 82.1045 69.6553 80.3479C71.7917 78.8705 73.6493 77.0269 75.1377 74.9064C77.1969 71.9772 78.5494 68.52 78.945 64.7866C78.9894 64.3673 78.6622 64 78.2375 64H72.8311C71.8791 63.9999 71.0756 64.6669 70.8645 65.5882Z" fill="#FB3602"/>
<path d="M81.0548 95.216C81.0105 95.6341 81.3367 96.0002 81.7602 96.0002H87.1679C88.1203 96.0002 88.924 95.3326 89.1347 94.4109C90.3277 89.1935 94.4753 85.0795 99.7324 83.8935C100.661 83.6841 101.333 82.8864 101.333 81.9416V78.0592C101.333 76.8186 100.202 75.8755 98.9721 76.0941C95.8106 76.6559 92.8812 77.8925 90.3446 79.6524C88.2082 81.1258 86.3507 82.9734 84.8622 85.09C82.8027 88.0235 81.45 91.4816 81.0548 95.216Z" fill="#FB3602"/>
<path d="M87.1692 64H81.7628C81.3381 64 81.0109 64.3673 81.0553 64.7866C81.4508 68.52 82.8034 71.9772 84.8626 74.9064C86.351 77.0269 88.2085 78.8706 90.345 80.3479C92.8814 82.1045 95.8107 83.343 98.972 83.9057C100.202 84.1248 101.333 83.1815 101.333 81.9407V78.0585C101.333 77.1137 100.661 76.3162 99.7331 76.1065C94.4788 74.92 90.3313 70.8033 89.1358 65.5882C88.9246 64.667 88.1211 64 87.1692 64Z" fill="#FB3602"/>
<path d="M75.1377 85.09C73.6493 82.9734 71.7917 81.1258 69.6553 79.6524C67.1188 77.8925 64.1893 76.6559 61.0278 76.0941C59.7975 75.8755 58.667 76.8186 58.667 78.0592V81.9416C58.667 82.8865 59.3392 83.6841 60.2675 83.8935C65.5247 85.0795 69.6723 89.1935 70.8652 94.4109C71.0759 95.3326 71.8796 96.0002 72.832 96.0002H78.2397C78.6632 96.0002 78.9894 95.634 78.9451 95.216C78.55 91.4816 77.1973 88.0235 75.1377 85.09Z" fill="#FB3602"/>
<path d="M83.6537 11.5822L85.9771 11.7107L85.3972 21.9334L83.0738 21.8048L83.4465 15.2359L80.9719 15.0991L81.0834 13.1347L82.3007 13.202C82.7145 13.2249 83.0316 13.1689 83.2521 13.034C83.4729 12.8938 83.5949 12.6194 83.6181 12.2108L83.6537 11.5822Z" fill="white"/>
<path d="M88.4132 17.1208C88.7559 15.455 89.3947 14.234 90.3296 13.4579C91.2656 12.6766 92.3922 12.4181 93.7094 12.6824C95.0214 12.9456 95.9514 13.6167 96.4992 14.6956C97.0481 15.7694 97.1513 17.1393 96.8086 18.8051C96.4838 20.3836 95.8609 21.5408 94.9396 22.2768C94.0184 23.0128 92.9018 23.2492 91.5897 22.986C90.2621 22.7197 89.3196 22.0701 88.7622 21.0375C88.2048 20.0048 88.0885 18.6993 88.4132 17.1208ZM94.4813 18.3382C94.9266 16.1736 94.5297 14.967 93.2905 14.7184C92.0306 14.4657 91.178 15.4216 90.7327 17.5861C90.3233 19.5759 90.7486 20.6972 92.0086 20.95C93.2477 21.1986 94.0719 20.328 94.4813 18.3382Z" fill="white"/>
<path d="M104.528 20.6783L107.405 21.7969L106.646 23.7008L103.769 22.5821L102.633 25.4307L100.705 24.681L101.841 21.8325L98.9636 20.7138L99.7227 18.8099L102.6 19.9286L103.733 17.0874L105.66 17.8371L104.528 20.6783Z" fill="white"/>
<path d="M114.645 28.6438L115.588 21.0664L117.708 22.4949L116.996 27.3222L121.262 24.8906L123.388 26.3236L116.551 29.9478L114.588 32.7884L112.673 31.4974L114.645 28.6438Z" fill="white"/>
<path d="M120.233 32.0751C120.826 31.4593 121.471 31.037 122.168 30.8082C122.865 30.5795 123.56 30.5475 124.252 30.7123C124.947 30.8732 125.593 31.234 126.19 31.7945C126.76 32.3296 127.139 32.9326 127.329 33.6033C127.526 34.2738 127.525 34.9604 127.325 35.663C127.128 36.3618 126.724 37.0287 126.113 37.6635L125.761 38.0284L121.552 34.0743C120.851 35.0454 120.888 35.8943 121.662 36.6211C121.958 36.8995 122.257 37.061 122.559 37.1055C122.868 37.1498 123.158 37.0852 123.428 36.9115L125.143 38.5224C124.423 39.056 123.655 39.2754 122.837 39.1805C122.023 39.0819 121.223 38.6637 120.438 37.926C119.487 37.0329 118.993 36.0654 118.955 35.0235C118.917 33.9816 119.343 32.9988 120.233 32.0751ZM124.88 33.0403C124.21 32.4111 123.458 32.3963 122.624 32.9958L125.009 35.2359C125.296 34.8688 125.428 34.4889 125.403 34.0962C125.381 33.6996 125.207 33.3477 124.88 33.0403Z" fill="white"/>
<path d="M133.197 44.6232L129.145 47.6431L127.743 45.8089L128.544 45.2115C128.066 45.2654 127.623 45.1854 127.213 44.9715C126.807 44.7545 126.437 44.4261 126.101 43.9864C125.787 43.576 125.593 43.1484 125.52 42.7037C125.449 42.2632 125.492 41.8402 125.648 41.4347C125.807 41.0334 126.078 40.6905 126.459 40.4061C127.689 39.4895 128.949 39.7701 130.238 41.2479L131.391 42.5478C131.58 42.7686 131.763 42.8127 131.941 42.6799L132.03 42.6135C132.302 42.4113 132.454 42.1532 132.487 41.8394C132.523 41.5297 132.42 41.2157 132.176 40.8975C131.703 40.2777 131.143 40.1555 130.499 40.531L129.058 38.6465C129.529 38.3482 130.024 38.1993 130.544 38.1998C131.071 38.2014 131.586 38.3436 132.088 38.6265C132.598 38.9104 133.061 39.3245 133.477 39.869C133.922 40.4511 134.205 41.0352 134.327 41.6214C134.452 42.2118 134.419 42.7654 134.229 43.2822C134.041 43.8033 133.697 44.2502 133.197 44.6232ZM128.011 42.1486C127.79 42.3129 127.68 42.5299 127.68 42.7996C127.683 43.0735 127.791 43.3507 128.006 43.6313C128.287 43.9998 128.632 44.216 129.04 44.2798C129.456 44.3447 129.842 44.2444 130.198 43.9789L130.44 43.7988L129.264 42.4172C128.844 41.9284 128.426 41.8389 128.011 42.1486Z" fill="white"/>
<path d="M137.18 45.5758L138.331 47.582L137.138 48.2493C137.683 48.2519 138.162 48.3577 138.576 48.5668C138.991 48.7804 139.297 49.0584 139.494 49.4008L139.706 49.7705L137.633 50.9306L137.377 50.4855C137.058 49.9286 136.684 49.559 136.256 49.3765C135.827 49.1941 135.419 49.2115 135.031 49.4288L131.398 51.4618L130.246 49.4557L137.18 45.5758Z" fill="white"/>
<path d="M137.603 57.4159L137.168 55.9595C136.663 54.2706 137.083 53.157 138.427 52.6185C139.17 52.3206 139.874 52.3728 140.538 52.7748C141.202 53.1769 141.738 53.8738 142.145 54.8656C142.541 55.8282 142.64 56.6973 142.442 57.4728C142.25 58.2463 141.789 58.8273 141.06 59.2157L140.212 57.1519C140.788 56.7964 140.923 56.2443 140.615 55.4956C140.479 55.165 140.305 54.9291 140.092 54.7879C139.879 54.6467 139.662 54.6205 139.441 54.7092C139.042 54.869 138.926 55.2354 139.092 55.8084L139.541 57.2764C140.009 58.8496 139.53 59.9221 138.102 60.4941C137.408 60.7722 136.726 60.703 136.056 60.2863C135.393 59.8725 134.864 59.1844 134.468 58.2217C134.039 57.1765 133.914 56.2442 134.093 55.425C134.279 54.6086 134.734 53.9989 135.457 53.596L136.35 55.7691C135.753 56.1442 135.626 56.7498 135.97 57.5861C136.114 57.9361 136.294 58.1924 136.509 58.3551C136.725 58.5177 136.944 58.5546 137.166 58.4659C137.599 58.2923 137.745 57.9423 137.603 57.4159Z" fill="white"/>
<path d="M149 72.5682L146.845 72.9144L145.988 67.71L144.084 68.0158L144.869 72.7774L142.886 73.0959L142.102 68.3342L140.057 68.6628L140.914 73.8671L138.767 74.2121L137.535 66.7318L147.768 65.0879L149 72.5682Z" fill="white"/>
<path d="M146.893 75.791L146.897 78.2071L144.094 79.7299L146.901 81.1976L146.904 83.6215L142.909 81.455L138.935 83.6326L138.932 81.2166L141.735 79.7017L138.927 78.2261L138.924 75.8022L142.92 77.9687L146.893 75.791Z" fill="white"/>
<path d="M146.686 86.6574L146.31 88.9332L145.107 88.7395C145.524 89.0778 145.828 89.4723 146.017 89.9227C146.207 90.3732 146.258 90.8599 146.172 91.3829C146.067 92.0198 145.802 92.5486 145.377 92.9692C144.952 93.3951 144.405 93.6898 143.737 93.8534C143.069 94.0222 142.318 94.0395 141.484 93.9052C140.645 93.7701 139.933 93.5173 139.349 93.1467C138.763 92.7813 138.334 92.3295 138.062 91.7914C137.795 91.2593 137.714 90.6748 137.819 90.0379C137.905 89.5149 138.111 89.0695 138.435 88.7018C138.765 88.335 139.185 88.0571 139.695 87.8681L135.881 87.2539L136.256 84.9781L146.686 86.6574ZM141.865 91.5984C142.562 91.7107 143.126 91.6526 143.557 91.4243C143.993 91.1968 144.254 90.8241 144.339 90.3063C144.426 89.7833 144.299 89.3456 143.959 88.9931C143.623 88.6467 143.106 88.4173 142.409 88.305C141.701 88.1911 141.127 88.2448 140.687 88.4663C140.251 88.6938 139.99 89.069 139.903 89.592C139.818 90.1098 139.945 90.545 140.285 90.8974C140.631 91.2507 141.157 91.4844 141.865 91.5984Z" fill="white"/>
<path d="M140.79 96.3305C141.604 96.6084 142.26 97.0131 142.76 97.5447C143.259 98.0763 143.577 98.6871 143.712 99.3772C143.851 100.069 143.787 100.799 143.518 101.568C143.26 102.301 142.862 102.893 142.323 103.341C141.787 103.796 141.153 104.08 140.423 104.191C139.697 104.304 138.915 104.217 138.077 103.931L137.595 103.766L139.495 98.3443C138.309 98.117 137.542 98.5016 137.193 99.4982C137.059 99.88 137.034 100.216 137.118 100.505C137.206 100.802 137.385 101.035 137.657 101.206L136.883 103.415C136.093 102.989 135.573 102.389 135.321 101.615C135.075 100.842 135.129 99.9504 135.483 98.9389C135.912 97.7143 136.599 96.8691 137.544 96.4035C138.488 95.9379 139.57 95.9136 140.79 96.3305ZM141.827 100.907C142.129 100.044 141.831 99.3619 140.933 98.8607L139.856 101.932C140.314 102.039 140.718 101.999 141.07 101.814C141.427 101.631 141.679 101.328 141.827 100.907Z" fill="white"/>
<path d="M140.649 107.99L139.581 110.041L138.362 109.422C138.659 109.874 138.832 110.327 138.881 110.783C138.929 111.244 138.861 111.649 138.679 111.999L138.482 112.377L136.363 111.301L136.6 110.846C136.896 110.277 137.004 109.765 136.923 109.312C136.843 108.858 136.604 108.53 136.207 108.329L132.493 106.444L133.561 104.393L140.649 107.99Z" fill="white"/>
<path d="M139.846 116.008L138.534 118.038L136.606 116.824L137.917 114.793L139.846 116.008ZM137.142 114.37L135.886 116.314L129.167 112.082L130.423 110.138L137.142 114.37Z" fill="white"/>
<path d="M131.238 116.168C131.903 116.708 132.375 117.313 132.657 117.983C132.938 118.653 133.02 119.335 132.903 120.028C132.791 120.725 132.473 121.387 131.95 122.015C131.45 122.615 130.869 123.032 130.205 123.268C129.542 123.51 128.848 123.558 128.124 123.412C127.405 123.268 126.702 122.918 126.017 122.362L125.623 122.042L129.314 117.611C128.282 116.991 127.428 117.088 126.749 117.902C126.489 118.214 126.348 118.521 126.325 118.821C126.302 119.129 126.388 119.409 126.583 119.663L125.079 121.468C124.489 120.798 124.212 120.057 124.249 119.244C124.29 118.435 124.655 117.617 125.343 116.791C126.177 115.79 127.118 115.234 128.168 115.121C129.218 115.009 130.241 115.358 131.238 116.168ZM130.597 120.815C131.185 120.11 131.146 119.368 130.48 118.589L128.389 121.099C128.781 121.356 129.174 121.458 129.569 121.405C129.968 121.356 130.311 121.159 130.597 120.815Z" fill="white"/>
<path d="M120.511 128.196C120.883 128.62 121.259 128.839 121.639 128.855C122.018 128.87 122.384 128.726 122.737 128.423C123.062 128.145 123.239 127.805 123.267 127.406C123.295 127.013 123.163 126.651 122.87 126.318L119.85 122.884L121.613 121.372L126.838 127.314L125.075 128.826L124.297 127.94C124.383 128.478 124.341 128.983 124.172 129.455C124.003 129.926 123.748 130.308 123.407 130.601C122.765 131.151 122.055 131.396 121.276 131.334C120.497 131.272 119.764 130.852 119.078 130.071L115.807 126.352L117.564 124.845L120.511 128.196Z" fill="white"/>
<path d="M116.314 130.925C116.754 131.637 116.997 132.345 117.042 133.05C117.081 133.758 116.935 134.416 116.601 135.023C116.263 135.634 115.747 136.148 115.054 136.567C114.433 136.942 113.799 137.165 113.151 137.237C112.504 137.308 111.895 137.214 111.324 136.957C110.756 136.703 110.276 136.274 109.882 135.669L111.901 134.449C112.178 134.866 112.503 135.104 112.875 135.162C113.243 135.222 113.624 135.134 114.018 134.896C114.476 134.619 114.73 134.241 114.782 133.761C114.833 133.281 114.673 132.741 114.301 132.141C113.927 131.537 113.509 131.144 113.047 130.961C112.588 130.783 112.13 130.833 111.672 131.109C111.283 131.345 111.023 131.625 110.894 131.949C110.763 132.28 110.81 132.648 111.036 133.053L109.017 134.273C108.675 133.661 108.524 133.055 108.562 132.453C108.604 131.856 108.806 131.298 109.168 130.777C109.526 130.259 110.016 129.813 110.637 129.438C111.326 129.022 112.022 128.804 112.726 128.784C113.429 128.772 114.091 128.947 114.714 129.309C115.337 129.67 115.87 130.209 116.314 130.925Z" fill="white"/>
<path d="M107.273 136.077C107.594 136.866 107.714 137.621 107.635 138.342C107.555 139.063 107.296 139.7 106.856 140.253C106.419 140.81 105.818 141.241 105.053 141.543C104.323 141.832 103.61 141.922 102.914 141.814C102.214 141.712 101.582 141.425 101.019 140.953C100.457 140.485 100.011 139.845 99.681 139.032L99.4912 138.564L104.884 136.43C104.281 135.397 103.484 135.076 102.493 135.468C102.113 135.619 101.84 135.82 101.674 136.073C101.504 136.332 101.443 136.619 101.491 136.934L99.2939 137.803C99.1018 136.935 99.2197 136.154 99.6473 135.459C100.077 134.769 100.795 134.225 101.801 133.826C103.019 133.344 104.115 133.303 105.09 133.703C106.065 134.102 106.793 134.894 107.273 136.077ZM104.451 139.848C105.309 139.509 105.636 138.84 105.431 137.841L102.376 139.05C102.594 139.461 102.889 139.737 103.261 139.878C103.635 140.024 104.032 140.014 104.451 139.848Z" fill="white"/>
<path d="M91.9028 148.224L89.8393 148.538L89.5643 145.849L87.1765 147.184L86.2347 145.337L88.7439 144.262L86.7067 142.422L88.2063 140.975L90.0442 143.036L91.1519 140.526L93.0233 141.46L91.6356 143.829L94.3628 144.098L94.0286 146.14L91.3364 145.579L91.9028 148.224Z" fill="white"/>
<path d="M77.0256 148.376L74.7009 148.273L75.1678 138.044L77.4924 138.148L77.1924 144.72L79.6683 144.831L79.5786 146.796L78.3606 146.742C77.9466 146.723 77.6301 146.783 77.4111 146.92C77.1919 147.063 77.0729 147.338 77.0543 147.747L77.0256 148.376Z" fill="white"/>
<path d="M72.1886 142.887C71.8641 144.557 71.2387 145.785 70.3124 146.571C69.385 147.362 68.2613 147.632 66.9413 147.382C65.6265 147.133 64.6892 146.472 64.1296 145.399C63.5689 144.331 63.4508 142.962 63.7753 141.293C64.0827 139.711 64.6929 138.547 65.6061 137.801C66.5192 137.056 67.6332 136.807 68.948 137.056C70.2785 137.309 71.228 137.948 71.7967 138.975C72.3654 140.001 72.496 141.306 72.1886 142.887ZM66.1075 141.735C65.6859 143.904 66.096 145.106 67.3378 145.342C68.6005 145.581 69.4426 144.616 69.8641 142.447C70.2517 140.453 69.8141 139.336 68.5515 139.097C67.3097 138.862 66.495 139.741 66.1075 141.735Z" fill="white"/>
<path d="M56.042 139.506L53.1527 138.419L53.8907 136.507L56.78 137.594L57.8841 134.734L59.8202 135.462L58.7161 138.323L61.6054 139.411L60.8674 141.323L57.9781 140.235L56.8768 143.088L54.9407 142.359L56.042 139.506Z" fill="white"/>
<path d="M45.8397 131.649L44.98 139.236L42.8449 137.831L43.5035 132.996L39.2642 135.473L37.1225 134.063L43.919 130.366L45.8507 127.504L47.7802 128.775L45.8397 131.649Z" fill="white"/>
<path d="M40.2147 128.28C39.6283 128.902 38.9879 129.331 38.2935 129.567C37.5992 129.804 36.9052 129.843 36.2115 129.686C35.5143 129.532 34.8643 129.178 34.2615 128.624C33.6859 128.095 33.2995 127.497 33.1023 126.828C32.8976 126.16 32.8915 125.473 33.0839 124.768C33.2727 124.067 33.6694 123.396 34.2739 122.755L34.6213 122.386L38.8739 126.295C39.5639 125.316 39.518 124.468 38.7363 123.75C38.4369 123.474 38.1361 123.316 37.8338 123.275C37.5241 123.234 37.2352 123.302 36.9672 123.478L35.2347 121.886C35.9481 121.344 36.7142 121.117 37.533 121.203C38.3483 121.293 39.1526 121.702 39.9459 122.432C40.9065 123.314 41.4113 124.277 41.4604 125.318C41.5095 126.359 41.0943 127.347 40.2147 128.28ZM35.5577 127.365C36.2344 127.987 36.9865 127.993 37.8139 127.385L35.4047 125.171C35.1212 125.541 34.9941 125.922 35.0234 126.314C35.0491 126.711 35.2272 127.061 35.5577 127.365Z" fill="white"/>
<path d="M27.1145 115.872L31.1328 112.808L32.5548 114.627L31.7599 115.233C32.2373 115.174 32.682 115.249 33.0941 115.459C33.502 115.671 33.8763 115.996 34.2172 116.432C34.5354 116.839 34.7337 117.264 34.8122 117.708C34.8875 118.148 34.8493 118.571 34.6978 118.979C34.543 119.382 34.2764 119.727 33.8979 120.016C32.6783 120.946 31.4158 120.679 30.1105 119.215L28.9431 117.927C28.7519 117.709 28.568 117.666 28.3913 117.801L28.303 117.868C28.0339 118.074 27.8845 118.333 27.8549 118.648C27.8221 118.958 27.9291 119.27 28.1758 119.586C28.6563 120.201 29.2169 120.317 29.8576 119.934L31.3185 121.803C30.851 122.107 30.3574 122.261 29.8378 122.266C29.3108 122.27 28.7946 122.133 28.2891 121.856C27.7761 121.578 27.3086 121.168 26.8866 120.628C26.4353 120.051 26.1456 119.47 26.0172 118.885C25.8857 118.296 25.9124 117.742 26.0974 117.223C26.2792 116.7 26.6182 116.25 27.1145 115.872ZM32.3274 118.29C32.5461 118.123 32.6541 117.905 32.6513 117.636C32.6454 117.362 32.5336 117.086 32.3161 116.807C32.0304 116.442 31.6831 116.23 31.2742 116.17C30.8579 116.11 30.4731 116.214 30.1198 116.483L29.8801 116.666L31.0709 118.035C31.4965 118.519 31.9153 118.604 32.3274 118.29Z" fill="white"/>
<path d="M23.1198 114.962L21.9466 112.969L23.1317 112.288C22.5867 112.292 22.1065 112.191 21.6912 111.987C21.2731 111.777 20.964 111.503 20.7638 111.163L20.5476 110.795L22.6077 109.613L22.868 110.055C23.1937 110.608 23.5717 110.974 24.002 111.152C24.4323 111.33 24.8404 111.308 25.2262 111.086L28.8366 109.014L30.0099 111.008L23.1198 114.962Z" fill="white"/>
<path d="M22.5638 103.123L23.0148 104.574C23.5381 106.258 23.1307 107.376 21.7928 107.929C21.0527 108.235 20.3485 108.19 19.6801 107.795C19.0117 107.4 18.4683 106.709 18.05 105.722C17.6439 104.764 17.5352 103.896 17.7241 103.118C17.908 102.342 18.3623 101.757 19.0871 101.36L19.9577 103.415C19.3853 103.777 19.2571 104.33 19.5729 105.075C19.7124 105.405 19.8893 105.639 20.1036 105.777C20.318 105.916 20.5355 105.94 20.756 105.849C21.153 105.685 21.265 105.317 21.092 104.746L20.6276 103.283C20.1416 101.715 20.6093 100.637 22.0306 100.05C22.7216 99.7646 23.4044 99.8265 24.079 100.236C24.7466 100.642 25.2834 101.325 25.6895 102.283C26.1304 103.324 26.2657 104.255 26.0954 105.076C25.918 105.894 25.4701 106.509 24.7514 106.919L23.8347 104.756C24.4275 104.374 24.5475 103.768 24.1948 102.935C24.0471 102.587 23.8644 102.332 23.6468 102.172C23.4291 102.012 23.21 101.977 22.9894 102.068C22.5582 102.246 22.4163 102.598 22.5638 103.123Z" fill="white"/>
<path d="M10.9998 88.0919L13.1511 87.7226L14.0654 92.9175L15.9655 92.5914L15.1289 87.8385L17.1075 87.4989L17.944 92.2518L19.9854 91.9014L19.0711 86.7065L21.2145 86.3386L22.5287 93.8053L12.314 95.5586L10.9998 88.0919Z" fill="white"/>
<path d="M13.0732 84.8652L13.043 82.4494L15.829 80.8964L13.0057 79.4591L12.9754 77.0353L16.9948 79.1586L20.9439 76.9382L20.9741 79.3541L18.1881 80.8992L21.0115 82.3444L21.0418 84.7681L17.0224 82.6449L13.0732 84.8652Z" fill="white"/>
<path d="M13.1614 73.9804L13.5121 71.7007L14.7176 71.8816C14.296 71.5477 13.9881 71.1566 13.7938 70.7082C13.5995 70.2598 13.5426 69.7736 13.6232 69.2497C13.7214 68.6117 13.9805 68.0801 14.4006 67.6549C14.8215 67.2246 15.3648 66.924 16.0305 66.7533C16.6971 66.5773 17.4479 66.552 18.2831 66.6773C19.1235 66.8034 19.8381 67.0486 20.4269 67.4129C21.0165 67.772 21.4501 68.2192 21.7278 68.7544C22.001 69.2836 22.0886 69.8672 21.9904 70.5052C21.9098 71.0291 21.7093 71.4766 21.3889 71.8478C21.0632 72.2181 20.6463 72.5005 20.1381 72.6949L23.9593 73.2683L23.6086 75.548L13.1614 73.9804ZM17.9275 68.9881C17.2289 68.8833 16.6656 68.9474 16.2375 69.1803C15.8041 69.4125 15.5475 69.7879 15.4677 70.3066C15.3871 70.8305 15.5188 71.2668 15.8628 71.6156C16.2023 71.9584 16.7214 72.1823 17.42 72.2871C18.1291 72.3935 18.7025 72.3336 19.1403 72.1074C19.5737 71.8752 19.8307 71.4972 19.9113 70.9733C19.9911 70.4546 19.859 70.0209 19.515 69.6721C19.1658 69.3225 18.6366 69.0945 17.9275 68.9881Z" fill="white"/>
<path d="M18.9489 64.2483C18.1325 63.9792 17.4716 63.5816 16.9661 63.0555C16.4606 62.5293 16.1366 61.922 15.994 61.2334C15.8465 60.5432 15.903 59.8124 16.1637 59.041C16.4127 58.3044 16.8043 57.7089 17.3388 57.2545C17.8698 56.7935 18.5 56.5034 19.2292 56.3842C19.9533 56.2634 20.7362 56.3417 21.5778 56.619L22.0616 56.7785L20.2223 62.2205C21.4101 62.435 22.1729 62.042 22.511 61.0417C22.6405 60.6585 22.6617 60.3226 22.5744 60.0338C22.4838 59.7385 22.3016 59.507 22.0278 59.3393L22.7771 57.1222C23.5716 57.5389 24.0989 58.1331 24.3591 58.9047C24.6141 59.6746 24.5701 60.5672 24.227 61.5824C23.8115 62.8117 23.1342 63.6642 22.1948 64.14C21.2555 64.6158 20.1735 64.6519 18.9489 64.2483ZM17.862 59.6837C17.5694 60.5496 17.8749 61.2283 18.7785 61.7197L19.8205 58.6367C19.3619 58.5353 18.9578 58.5791 18.6083 58.7681C18.2537 58.9555 18.005 59.2607 17.862 59.6837Z" fill="white"/>
<path d="M18.9594 52.5926L20.0038 50.5303L21.2297 51.1358C20.928 50.6876 20.7499 50.236 20.6953 49.7808C20.6431 49.3209 20.7061 48.915 20.8843 48.563L21.0768 48.183L23.2079 49.2355L22.9762 49.693C22.6863 50.2655 22.5841 50.7782 22.6696 51.231C22.755 51.6839 22.9973 52.0089 23.3965 52.206L27.1313 54.0506L26.0868 56.1129L18.9594 52.5926Z" fill="white"/>
<path d="M19.6758 44.5625L20.9647 42.5182L22.9063 43.712L21.6173 45.7563L19.6758 44.5625ZM22.3977 46.1713L23.6319 44.2138L30.3969 48.3735L29.1628 50.3309L22.3977 46.1713Z" fill="white"/>
<path d="M28.28 44.3114C27.6095 43.7786 27.1299 43.1788 26.8413 42.5118C26.5528 41.8449 26.463 41.1642 26.572 40.4696C26.6768 39.7718 26.9873 39.1061 27.5035 38.4725C27.9964 37.8675 28.5734 37.4438 29.2345 37.2014C29.8949 36.9516 30.5878 36.8962 31.3135 37.035C32.0349 37.1705 32.7413 37.5129 33.4326 38.0621L33.83 38.3778L30.1883 42.8479C31.2263 43.457 32.0799 43.3508 32.7493 42.5291C33.0057 42.2144 33.1439 41.9066 33.1638 41.606C33.183 41.298 33.0937 41.0183 32.8961 40.767L34.3797 38.9459C34.9778 39.6096 35.2628 40.3478 35.2348 41.1606C35.2027 41.97 34.8469 42.7917 34.1676 43.6256C33.345 44.6353 32.4096 45.2018 31.3613 45.3252C30.313 45.4485 29.2859 45.1106 28.28 44.3114ZM28.8693 39.6585C28.2898 40.3698 28.3371 41.1111 29.0112 41.8823L31.0743 39.3499C30.68 39.0973 30.2858 38.9995 29.8915 39.0566C29.4931 39.1104 29.1523 39.3111 28.8693 39.6585Z" fill="white"/>
<path d="M38.8745 32.1699C38.4971 31.7501 38.1187 31.5346 37.7392 31.5235C37.3598 31.5123 36.9953 31.66 36.6456 31.9665C36.3238 32.2486 36.1509 32.5897 36.1268 32.9896C36.1031 33.3822 36.2394 33.7433 36.5357 34.0728L39.5936 37.4746L37.8474 39.0054L32.5569 33.12L34.3031 31.5892L35.0914 32.4661C34.9995 31.9293 35.0356 31.4241 35.1996 30.9506C35.3636 30.4771 35.6145 30.0923 35.9522 29.7963C36.5879 29.239 37.2955 28.9869 38.0751 29.0402C38.8547 29.0934 39.5918 29.5065 40.2867 30.2794L43.5985 33.9637L41.8583 35.4893L38.8745 32.1699Z" fill="white"/>
<path d="M43.0424 29.3906C42.5937 28.6838 42.3432 27.9781 42.291 27.2736C42.2433 26.5663 42.3829 25.9071 42.7098 25.296C43.0413 24.6821 43.5513 24.162 44.24 23.7356C44.8567 23.3539 45.4883 23.1239 46.1347 23.0457C46.7811 22.9676 47.3911 23.0543 47.9647 23.3061C48.5355 23.5533 49.021 23.9773 49.4211 24.5779L47.4157 25.8194C47.1341 25.4055 46.8069 25.1715 46.434 25.1175C46.0656 25.0607 45.6856 25.1535 45.294 25.396C44.8394 25.6774 44.589 26.0584 44.5429 26.539C44.4968 27.0196 44.6629 27.5577 45.041 28.1533C45.4219 28.7535 45.8443 29.1422 46.308 29.3195C46.7689 29.4924 47.2267 29.4381 47.6813 29.1567C48.0684 28.917 48.3248 28.6345 48.4505 28.3089C48.5779 27.9762 48.5265 27.6087 48.2961 27.2063L50.3015 25.9649C50.6498 26.5728 50.808 27.1777 50.7762 27.7795C50.7415 28.3768 50.5458 28.9376 50.1889 29.462C49.8365 29.9836 49.352 30.4352 48.7353 30.817C48.0511 31.2406 47.357 31.4659 46.6531 31.493C45.9509 31.5128 45.2864 31.3452 44.6597 30.9901C44.033 30.635 43.4939 30.1019 43.0424 29.3906Z" fill="white"/>
<path d="M52.028 24.1414C51.6991 23.356 51.5703 22.6024 51.6418 21.8806C51.7132 21.1587 51.9656 20.5191 52.3991 19.9617C52.8305 19.3994 53.4267 18.9629 54.1877 18.6521C54.9143 18.3554 55.6265 18.2575 56.3242 18.3587C57.0248 18.4529 57.6596 18.733 58.2284 19.1991C58.7953 19.6602 59.2482 20.2956 59.5873 21.1053L59.7822 21.5707L54.4137 23.7633C55.0276 24.79 55.828 25.1018 56.8148 24.6988C57.1928 24.5444 57.4637 24.3401 57.6274 24.0859C57.7941 23.8248 57.8518 23.5372 57.8008 23.2231L59.988 22.3298C60.1896 23.1956 60.0804 23.9783 59.6604 24.6778C59.2385 25.3725 58.5267 25.9243 57.5252 26.3334C56.3125 26.8286 55.2165 26.8816 54.2371 26.4924C53.2578 26.1032 52.5214 25.3196 52.028 24.1414ZM54.8084 20.3403C53.9542 20.6892 53.635 21.3617 53.851 22.3579L56.8924 21.1158C56.6696 20.7072 56.3714 20.4344 55.9978 20.2974C55.6222 20.1556 55.2257 20.1699 54.8084 20.3403Z" fill="white"/>
<path d="M67.2658 11.8318L69.3257 11.4953L69.6302 14.1816L72.0033 12.8208L72.9652 14.6579L70.468 15.7597L72.5253 17.5774L71.0417 19.0402L69.1813 16.9989L68.1012 19.5205L66.2197 18.6074L67.5813 16.2233L64.8513 15.9832L65.163 13.9381L67.8612 14.4705L67.2658 11.8318Z" fill="white"/>
</svg>
